<svg width="24" height="24" fill="none" xmlns="http://www.w3.org/2000/svg"><path d="M21.75 0H2.25A2.258 2.258 0 000 2.25v19.5A2.258 2.258 0 002.25 24h19.5A2.258 2.258 0 0024 21.75V2.25A2.258 2.258 0 0021.75 0zM16.5 3.75c0-.411.336-.753.752-.753h2.998c.41 0 .752.336.752.752v2.998c0 .41-.336.752-.752.752h-2.998a.755.755 0 01-.752-.752V3.749zM12 7.498a4.502 4.502 0 010 9.002 4.502 4.502 0 010-9zm9.003 12.752c0 .41-.336.752-.752.752H3.749a.755.755 0 01-.752-.752V10.5h1.648a7.29 7.29 0 00-.149 1.5 7.495 7.495 0 007.499 7.499 7.5 7.5 0 007.354-8.998h1.648v9.75h.006z" fill="#080808"/></svg>