<svg width="24" height="24" fill="none" xmlns="http://www.w3.org/2000/svg"><path d="M23.077 0H2.154C.966 0 0 .876 0 1.953v20.094C0 23.123.966 24 2.154 24h20.923c.51 0 .923-.375.923-.837V.837C24 .375 23.587 0 23.077 0zm-4.615 22.326H2.154c-.17 0-.308-.126-.308-.28V1.954c0-.153.138-.279.308-.279h16.308v20.652zm3.692 0h-1.846v-5.75h1.846v5.75zm0-7.48h-1.846V9.099h1.846v5.749zm0-7.423h-1.846V1.674h1.846v5.75z" fill="#080808"/><path d="M16.289 15.572l-1.014-1.593c-.546-.857-1.751-1.339-3.162-.6L9.98 10.026c1.404-.736 1.552-1.928 1.007-2.784L9.972 5.65c-.595-.935-1.91-1.255-2.942-.715l-1.019.534c-2.183 1.143-2.93 3.67-1.67 5.65l3.91 6.142c1.26 1.979 4.046 2.658 6.23 1.514l1.02-.534c1.028-.538 1.382-1.735.788-2.668zm-1.712 1.218l-1.019.534c-1.299.68-2.958.277-3.708-.902l-3.91-6.14c-.75-1.179-.305-2.684.994-3.364l1.02-.534a.326.326 0 01.42.102L9.388 8.08c.084.134.034.305-.113.382l-1.019.533c-.441.231-.593.743-.338 1.144l3.058 4.803c.255.4.82.538 1.26.306l1.02-.533a.326.326 0 01.42.102l1.014 1.593c.085.133.034.304-.113.381z" fill="#080808"/></svg>