<svg width="491" height="328" fill="none" xmlns="http://www.w3.org/2000/svg"><path d="M13.074 96.803l.27-27.226c0-21.295-1.034-33.336-3.1-36.121-.99-1.258-1.483-2.112-1.483-2.56 0-.54.584-1.124 1.752-1.753 1.258-.719 3.639-1.483 7.143-2.291 3.505-.809 6.604-1.213 9.3-1.213 2.696 0 4.043.629 4.043 1.887l-.27 1.752c-1.077 9.704-1.616 19.184-1.616 28.438 0 9.255.27 19.588.808 31 .54 11.411.809 19.813.809 25.204 0 7.278-2.83 13.523-8.491 18.734-5.571 5.302-12.22 8.177-19.948 8.626C.764 141.1 0 140.561 0 139.663c0-.629.225-1.123.674-1.483l1.348-1.348c.539-.539 1.527-1.931 2.965-4.178 1.438-2.246 2.695-4.807 3.774-7.682 1.078-2.786 2.066-6.694 2.965-11.726.898-5.032 1.348-10.513 1.348-16.443zm40.039-9.3l.135 3.37c0 .538.36.808 1.078.808 2.875-.27 5.391-.988 7.548-2.156 2.156-1.259 3.773-2.651 4.852-4.179 2.156-3.324 3.324-6.2 3.504-8.626l.135-1.617c0-4.852-1.932-7.278-5.796-7.278-2.875 0-5.211 1.258-7.008 3.774-2.965 3.953-4.448 9.255-4.448 15.904zm29.382 17.926c0 3.414-.719 6.424-2.157 9.03-1.347 2.516-2.92 4.403-4.717 5.661-1.707 1.168-3.729 2.111-6.065 2.83-2.965.899-5.795 1.348-8.491 1.348-7.548 0-13.119-2.831-16.713-8.491-3.594-5.661-5.391-12.849-5.391-21.565 0-8.806 2.201-16.623 6.604-23.452 4.493-6.829 11.187-10.243 20.082-10.243 8.087 0 13.568 2.83 16.444 8.49 1.168 2.157 1.752 4.224 1.752 6.2 0 1.888-.09 3.415-.27 4.583-.18 1.079-.808 2.74-1.887 4.987a21.978 21.978 0 01-4.313 6.065c-1.797 1.797-4.627 3.505-8.49 5.122-3.864 1.617-8.402 2.696-13.614 3.235-.718 0-1.078.314-1.078.943 0 .809.27 2.022.809 3.639.629 1.528 1.303 2.831 2.022 3.909 1.976 2.516 4.897 3.774 8.76 3.774 3.864 0 7.144-1.258 9.84-3.774 1.437-1.348 2.605-3.01 3.504-4.987.359-.719.808-1.078 1.347-1.078.63 0 1.123.494 1.483 1.482.36.989.539 1.752.539 2.292zm22.189-56.069l-.135 13.074c0 .539.18.808.54.808.359 0 .718-.134 1.078-.404 2.246-1.528 5.795-2.291 10.647-2.291 8.177 0 13.838 2.785 16.983 8.356 1.168 2.067 1.752 4.807 1.752 8.222 0 3.414-.225 8.132-.674 14.152-.359 6.02-.539 10.288-.539 12.804 0 8.805 1.258 14.646 3.774 17.521.449.449.674.899.674 1.348 0 .899-1.932 1.348-5.796 1.348-10.423 0-15.634-4.852-15.634-14.556 0-3.774.898-9.076 2.695-15.904 1.797-6.83 2.696-11.861 2.696-15.096 0-3.235-.764-5.706-2.292-7.413-1.527-1.797-3.639-2.695-6.334-2.695-2.696 0-4.852.584-6.47 1.752-1.527 1.168-2.471 2.38-2.83 3.639l-.404 1.752c-.09 1.707-.135 7.143-.135 16.308s.225 15.141.674 17.926c.449 2.696.674 4.223.674 4.583 0 2.605-1.752 4.942-5.257 7.008-3.504 1.977-6.963 2.965-10.378 2.965-1.258 0-1.887-.718-1.887-2.156l.27-2.561c1.977-15.095 2.965-31.449 2.965-49.06 0-6.829-.27-13.748-.809-20.756l-.135-2.965c-.18-2.516-.718-4.673-1.617-6.47-.808-1.797-1.572-2.965-2.291-3.504l-1.213-.674c-.63-.36-.944-.764-.944-1.213 0-1.258 2.112-2.785 6.335-4.582 4.223-1.887 7.458-2.83 9.704-2.83 2.336 0 3.594.493 3.774 1.482.36 4.582.539 11.276.539 20.082zm38.158 73.32c1.617-9.704 2.426-21.34 2.426-34.908 0-13.568-.405-22.373-1.213-26.417 0-1.168 1.348-1.752 4.043-1.752 4.133 0 6.874 1.573 8.222 4.718.09.27.314.404.674.404.359 0 .629-.09.808-.27 2.786-2.875 7.099-4.313 12.939-4.313 5.841 0 10.468 1.483 13.883 4.448 3.414 2.965 5.121 7.278 5.121 12.94 0 3.413-.314 8.266-.943 14.555-.539 6.29-.809 10.962-.809 14.017 0 7.279 1.213 12.535 3.639 15.77.36.449.539.898.539 1.348 0 1.168-1.258 1.752-3.774 1.752-11.141 0-16.712-4.942-16.712-14.826 0-3.774.853-9.03 2.561-15.77 1.707-6.738 2.56-11.86 2.56-15.364 0-7.189-2.965-10.783-8.895-10.783-2.875 0-5.077.854-6.604 2.561-1.438 1.707-2.247 3.684-2.426 5.93-.18 2.157-.27 6.29-.27 12.4 0 9.345.315 17.477.944 24.395l.269 2.966c0 2.515-1.662 4.447-4.987 5.795-3.235 1.438-6.065 2.157-8.491 2.157-2.336 0-3.504-.584-3.504-1.753zm77.689 36.391c0 1.078-.539 1.617-1.617 1.617h-.135c-2.965 0-6.335-1.033-10.109-3.099-3.684-2.067-5.526-4.448-5.526-7.144 0-2.695 1.708-7.413 5.122-14.152 3.414-6.649 5.122-11.097 5.122-13.343 0-2.426-1.168-6.784-3.505-13.074a2111.438 2111.438 0 01-7.143-19.947c-1.707-5.122-3.594-9.615-5.661-13.478-1.977-3.954-3.414-6.29-4.313-7.009l-1.348-.943c-.988-.54-1.482-1.123-1.482-1.752 0-1.258 1.932-2.516 5.795-3.774 3.954-1.348 7.413-2.022 10.378-2.022 1.348 0 2.471 1.078 3.37 3.235 1.617 4.223 3.369 10.063 5.256 17.521 4.583 15.275 7.458 22.913 8.626 22.913.809 0 2.426-3.145 4.852-9.435 2.516-6.29 3.774-11.366 3.774-15.23 0-6.739-1.977-10.692-5.93-11.86-.899-.18-1.348-.63-1.348-1.348 0-1.618 2.112-3.145 6.335-4.583 4.223-1.527 8.042-2.291 11.456-2.291 2.965 0 4.448 1.932 4.448 5.795 0 2.966-.629 6.425-1.887 10.378-1.258 3.954-2.426 7.099-3.504 9.435-1.079 2.246-3.774 7.548-8.087 15.904-4.223 8.267-7.728 15.545-10.513 21.835-3.055 7.547-4.583 15.23-4.583 23.047 0 4.133.36 7.233 1.079 9.3.719 2.066 1.078 3.235 1.078 3.504zM13.756 262.691l.809-23.856h-9.03c-.72 0-1.079-.27-1.079-.809 0-1.617.764-3.459 2.292-5.526 1.527-2.156 3.19-3.235 4.987-3.235h2.83c-.18-7.008-.36-12.04-.54-15.095-.359-5.481-1.257-9.704-2.695-12.669l-.674-1.348c-.36-.449-.539-.988-.539-1.617s.494-1.168 1.483-1.618c.988-.449 2.426-.988 4.313-1.617 1.977-.629 6.11-1.438 12.4-2.426 6.29-1.078 13.118-1.618 20.486-1.618 7.458 0 11.501.54 12.13 1.618.72 1.078 1.079 2.785 1.079 5.121 0 2.247-.315 3.37-.944 3.37-.09 0-.404-.045-.943-.135-1.438-.359-3.64-.539-6.605-.539-2.965 0-6.154.27-9.569.809-3.414.539-6.02 1.078-7.817 1.617l-2.561.944c-.719.179-1.258.808-1.617 1.887-.72 5.301-1.079 13.073-1.079 23.316h21.835c.808 0 1.213.27 1.213.809 0 1.618-.719 3.504-2.157 5.661-1.437 2.156-3.055 3.235-4.852 3.235l-16.039-.135.944 40.434c0 1.977-.315 3.414-.944 4.313-1.707 2.246-4.627 3.909-8.76 4.987-4.044 1.168-7.413 1.752-10.109 1.752-.719 0-1.078-.449-1.078-1.348 0-.449.045-.809.135-1.078 1.078-1.528 1.976-9.929 2.695-25.204zm120.659-35.447c0 27.854.629 46.095 1.887 54.721 0 2.156-2.067 3.908-6.2 5.256-4.133 1.438-7.548 2.156-10.243 2.156-2.696 0-4.044-.404-4.044-1.213 0-.539.135-1.213.405-2.021 1.707-3.774 2.561-18.959 2.561-45.556 0-25.159-1.079-39.131-3.235-41.917l-.539-.808c-.539-.45-.809-.989-.809-1.618 0-.718.494-1.303 1.483-1.752 1.347-.808 3.729-1.617 7.143-2.426 3.504-.809 6.649-1.213 9.435-1.213 2.785 0 4.178.629 4.178 1.887v.404c-1.078 9.345-1.752 20.712-2.022 34.1zm71.854-36.256l19.408 1.078c8.626 0 14.826-1.033 18.6-3.1.539-.359.988-.539 1.348-.539.449 0 .673.629.673 1.887s-.763 3.325-2.291 6.2c-2.246 4.403-5.481 6.604-9.704 6.604l-7.413-.135c-.719 0-1.168.405-1.348 1.213-.629 13.209-.943 27.496-.943 42.86 0 15.276.629 26.777 1.887 34.504v.674c0 2.246-2.157 4.044-6.47 5.391-4.223 1.348-8.221 2.022-11.995 2.022-1.797 0-2.696-.494-2.696-1.483 0-.269.135-.898.405-1.886.988-1.977 1.842-11.547 2.56-28.709.809-17.162 1.213-30.101 1.213-38.816l-.269-14.691c0-.54-.27-.854-.809-.944-1.887-.359-4.043-.539-6.469-.539-4.852 0-8.446.988-10.783 2.965-.629.449-1.213.674-1.752.674-.629 0-.943-.359-.943-1.078 0-1.078.584-2.561 1.752-4.448 1.078-1.887 2.246-3.504 3.504-4.852 3.055-3.235 7.233-4.852 12.535-4.852zm176.445-34.724a54.437 54.437 0 004.042-7.413l12.398-27.658 20.425-45.126a42.295 42.295 0 003.59-13.612l.419-4.611a24.272 24.272 0 00-5.28-17.441l-11.546-14.316-9.144-12.345a8.783 8.783 0 01-1.725-5.227V8.37A8.373 8.373 0 01404.264 0h.633c1.232 0 2.453.235 3.598.693l8.207 3.283a54.342 54.342 0 017.046 3.427l6.927 4.01 2.429 1.735a33.426 33.426 0 018.637 9.043l.622.961a25.178 25.178 0 012.927 6.275 25.17 25.17 0 003.364 6.929l.151.219a26.909 26.909 0 006.078 6.283l6.557 4.871a54.353 54.353 0 0114.509 16.198l7.622 13.037A54.35 54.35 0 01491 104.393v14.714a54.353 54.353 0 01-4.116 20.747l-16.536 40.034-15.881 29.494a54.364 54.364 0 01-7.589 10.738l-28.789 31.753a54.327 54.327 0 01-8.187 7.368l-53.414 39.051a54.388 54.388 0 01-14.762 7.643l-47.03 15.805a54.354 54.354 0 01-23.154 2.516l-.433-.047a54.391 54.391 0 00-15.563.562l-16.172 2.941-11.413-21.196 11.64-9.977a48.132 48.132 0 0011.729-15.022l7.065-11.413 1.269-1.692a54.341 54.341 0 0116.889-14.79l8.656-4.856a54.312 54.312 0 006.891-4.589l39.12-30.594 25.409-21.466a54.321 54.321 0 0010.477-11.871l15.608-23.982z" fill="#FAC05C"/><path d="M386.222 166.845l11.957-21.739 14.131-34.782 7.663-17.581a54.384 54.384 0 002.613-7.418l2.223-8.153" stroke="#080808" stroke-width="2" stroke-linecap="round"/><path d="M470.348 61.412c7.609 7.609 8.696 17.935 8.696 17.935 4.581 3.099 7.445 12.225 8.816 17.79.732 2.973.966 6.031.966 9.093v11.868a54.334 54.334 0 01-4.059 20.609l-9.527 23.247-14.674 32.064-15.074 24.668a54.365 54.365 0 01-6.598 8.694l-21.7 23.308a54.389 54.389 0 01-8.61 7.489l-22.473 15.731-23.913 18.478-16.461 9.53a54.284 54.284 0 01-8.745 4.074l-20.989 7.592-19.987 4.763" stroke="#000" stroke-width="1.5" stroke-linecap="round"/><path d="M401.293 5.215a1.948 1.948 0 013.313.115l.571.999a1.854 1.854 0 002.722.563c.32-.24.711-.37 1.112-.37h1.16a1.88 1.88 0 011.503.751l.176.235a1.57 1.57 0 002.126.364c.257-.172.56-.264.87-.264h.612c.709 0 1.402.21 1.991.603l.198.132c.35.234.665.517.935.84l.404.485a8.732 8.732 0 004.814 2.934l.253.056a9.49 9.49 0 013.206 1.369l1.153.769c.419.278.882.483 1.37.605a4.387 4.387 0 012.362 1.516l2.474 3.092a16.15 16.15 0 011.659 2.528l3.561 6.728a17.01 17.01 0 001.413 2.228l2.128 2.836c.223.298.371.644.432 1.011l.064.38a1.994 1.994 0 01-1.967 2.323 1.994 1.994 0 00-1.994 1.994v4.527c0 .6.487 1.087 1.087 1.087a1.087 1.087 0 010 2.174h-.544c-.9 0-1.63.73-1.63 1.63v2.174c0 .3.243.544.544.544.3 0 .543.243.543.543v3.036a1.855 1.855 0 001.856 1.856h3.035a.544.544 0 110 1.087h-2.825a.979.979 0 00-.979.979c0 .071-.008.143-.023.212l-.527 2.37a23.07 23.07 0 01-1.575 4.665l-1.731 3.75a5.35 5.35 0 00-.492 2.241v4.804a.543.543 0 11-1.087 0v-8.404a1.921 1.921 0 00-3.28-1.36l-.5.5a2.898 2.898 0 01-1.346.763 2.9 2.9 0 00-1.962 1.67l-2.44 5.695a.978.978 0 11-1.787-.796l2.62-5.677 3.74-7.48a5.764 5.764 0 000-5.148l-.479-.958-6.522-12.5-7.68-12.198a32.424 32.424 0 00-3.536-4.632l-3.242-3.537a6.156 6.156 0 01-1.177-1.872 6.149 6.149 0 00-2.136-2.721l-.873-.624a9.802 9.802 0 01-2.462-2.543l-.127-.19a10.936 10.936 0 01-1.508-3.409l-.742-2.966a4.015 4.015 0 01.554-3.196l.612-.918zm31.371 81.393a.978.978 0 111.863.58l-1.135 3.028-1.63 5.978-.909 2.727a8.06 8.06 0 01-.429 1.037 7.904 7.904 0 00-.836 3.539v1.039c0 1.667-.339 3.318-.996 4.85l-.634 1.482a11.438 11.438 0 00-1.631 5.886v2.493c0 .911-.295 1.797-.841 2.525l-.085.112a3.756 3.756 0 01-1.818 1.311l-.372.124a3.11 3.11 0 00-2.083 2.437 3.106 3.106 0 01-1.466 2.154l-.128.077a3.429 3.429 0 00-1.619 2.378l-.523 3.138a10.321 10.321 0 01-1.22 3.423l-1.258 2.202-3.445 7.382a1.78 1.78 0 01-1.183.976 1.782 1.782 0 00-1.35 1.729v.782a1.086 1.086 0 11-2.174 0v-.543a1.63 1.63 0 00-1.63-1.631c-.9 0-1.63-.73-1.63-1.63v-2.446c0-.882-.286-1.74-.816-2.445l-.517-.69a2.106 2.106 0 00-.742-.619l-.408-.204a1.606 1.606 0 011.159-2.98l1.689.482c.476.136.918.37 1.298.687l1.797 1.497a3.192 3.192 0 005.235-2.452v-1.915c0-.926-.251-1.834-.728-2.628l-2.533-4.222-.827-1.654a.94.94 0 00-.841-.519c-.888 0-1.281-1.119-.587-1.674l.029-.024a.955.955 0 011.191 0l2.02 1.616c.068.054.13.116.184.184l1.338 1.672c.25.313.754.136.754-.264 0-.234.19-.423.423-.423h2.265a2.688 2.688 0 002.635-2.161l.529-2.642c.084-.42.213-.83.385-1.223l2.954-6.753a7.824 7.824 0 011.635-2.395 7.824 7.824 0 002.138-3.995l.912-4.558a4.293 4.293 0 011.172-2.191l.037-.037a4.158 4.158 0 001.219-2.942v-.492c0-1 .471-1.942 1.271-2.543.584-.438 1-1.063 1.177-1.771l1.715-6.86zm-46.919 77.717a2.872 2.872 0 013.187-.417c.291.145.604.24.927.28l2.121.265a2.476 2.476 0 002.523-1.35l.122-.243a2.122 2.122 0 013.869.161l.402 1.004a1.497 1.497 0 002.543.403l3.589-4.306a.945.945 0 011.546 1.074l-3.083 5.396a8.17 8.17 0 00-1.076 4.052v.895a5.48 5.48 0 01-1.097 3.289 5.497 5.497 0 00-.815 1.556l-.519 1.556a15.545 15.545 0 01-2.432 4.573l-14.702 19.114-10.273 11.3c-.396.435-.73.923-.993 1.449l-.796 1.593a3.552 3.552 0 01-3.175 1.962 3.55 3.55 0 00-2.671 1.212l-1.991 2.275a10.17 10.17 0 01-1.678 1.533l-3.699 2.69a9.355 9.355 0 00-2.283 2.379 9.37 9.37 0 01-3.201 2.967l-6.04 3.398c-.432.243-.7.7-.7 1.196 0 .757-.614 1.371-1.371 1.371h-1.405c-.975 0-1.878.512-2.38 1.348l-.387.645a4.098 4.098 0 01-1.12 1.218l-22.684 16.354-15.458 9.595a3.923 3.923 0 00-.566.427l-3.962 3.602a1.196 1.196 0 001.327 1.961l17.924-8.706a3.551 3.551 0 011.552-.357h.706c.746 0 1.443-.373 1.857-.994.275-.413.68-.722 1.151-.879l1.329-.443a6.307 6.307 0 002.161-1.238l2.73-2.388a4.486 4.486 0 001.056-1.367 4.474 4.474 0 014.002-2.474h1.535a6.955 6.955 0 004.031-1.286l18.842-13.387 8.567-4.819c.085-.048.176-.085.271-.108a1.096 1.096 0 00.456-1.887l-1.48-1.294a1.154 1.154 0 011.452-1.791l1.151.864c.3.225.633.399.988.518l.307.102a2.841 2.841 0 001.593.061l1.722-.43a1.465 1.465 0 011.094 2.686l-10.263 5.986a22.233 22.233 0 00-3.807 2.805l-3.182 2.918a11.77 11.77 0 01-3.585 2.253l-4.928 1.971a2.345 2.345 0 00-1.442 1.792 2.345 2.345 0 01-2.313 1.959h-.065a2.42 2.42 0 00-1.936.969l-.241.321a3.221 3.221 0 01-1.73 1.175l-2.992.816a12.277 12.277 0 00-3.575 1.627l-2.334 1.556a3.49 3.49 0 00-1.304 1.608 3.494 3.494 0 01-2.483 2.111l-2.016.447c-.714.159-1.4.423-2.037.782l-24.039 13.588-27.164 13.582a37.937 37.937 0 00-6.169 3.865l-3.196 2.458a8.8 8.8 0 01-2.107 1.201l-1.208.484a2.093 2.093 0 01-.774.149h-3.081c-.721 0-1.082.871-.572 1.38a.81.81 0 01-.21 1.295l-.26.13a1.018 1.018 0 00-.455 1.366l.289.578c.217.435.614.753 1.085.871l3.183.796c.267.067.55.009.77-.156.66-.495 1.586.068 1.451.882l-.107.639c-.04.241-.155.464-.328.637l-.85.85c-.34.34-.624.734-.839 1.164l-.563 1.127a1.169 1.169 0 01-.611.562c-.918.367-.994 1.637-.126 2.111l3.799 2.072 4.491 2.495c.266.147.509.331.723.545l.602.602a1.76 1.76 0 001.674.463l.476-.119c.438-.109.896.068 1.146.443l.482.722a.3.3 0 01-.116.435l-.227.114a.213.213 0 00.053.4c.252.05.215.421-.042.421h-1.672a.379.379 0 00-.359.499l.356 1.067a.29.29 0 00.07.113.29.29 0 01-.205.495h-7.996l-20.651 2.718-3.805-6.522-4.347-7.609 10.325-8.152 1.211-.847a15.606 15.606 0 005.855-7.848l1.087-3.261 4.425-10.327a54.367 54.367 0 015.1-9.281l1.956-2.858a53.047 53.047 0 0124.272-19.374 53.018 53.018 0 0015.017-9.053l27.489-23.562 23.573-17.791a54.37 54.37 0 009.373-9.025l11.424-14.004a24.95 24.95 0 012.8-2.914l11.159-9.872zm49.821-27.371c0-1.259.679-2.42 1.777-3.037l.397-.224v.124a3.35 3.35 0 01-2.174 3.137zm-28.26 39.13c0-1.259.679-2.42 1.776-3.037l.398-.224v.124a3.352 3.352 0 01-2.174 3.137z" fill="#080808"/><path d="M407.306 176.084c0-1.259.679-2.42 1.776-3.037l.398-.224v.124a3.352 3.352 0 01-2.174 3.137zm52.173-113.37a3.484 3.484 0 013.509-.255l.409.202-.102.07a3.35 3.35 0 01-3.816-.017zM370.35 245.319a3.486 3.486 0 013.509-.254l.41.201-.103.07a3.347 3.347 0 01-3.816-.017zm-47.825 28.26a3.486 3.486 0 013.509-.254l.409.202-.102.07a3.35 3.35 0 01-3.816-.018zm-27.174 19.565a3.488 3.488 0 013.51-.254l.409.201-.102.07a3.35 3.35 0 01-3.817-.017zm-23.912 13.044a3.484 3.484 0 013.509-.255l.409.202-.102.07a3.351 3.351 0 01-3.816-.017zm151.649-94.47a3.487 3.487 0 012.781-2.157l.452-.059-.046.115a3.351 3.351 0 01-3.187 2.101zm39.137-56.65a1.809 1.809 0 01.335-1.796l.155-.179.022.06a1.74 1.74 0 01-.512 1.915zm18.127-32.301a1.81 1.81 0 01.972-1.546l.211-.109-.003.064a1.737 1.737 0 01-1.18 1.591zm-31.556-49.338a3.486 3.486 0 011.6-3.134l.384-.246.007.124a3.35 3.35 0 01-1.991 3.256zm-89.128 182.605a3.484 3.484 0 011.599-3.134l.384-.246.007.124a3.35 3.35 0 01-1.99 3.256zm-47.826 28.261a3.486 3.486 0 011.6-3.134l.384-.246.007.123a3.35 3.35 0 01-1.991 3.257zm-27.173 19.565a3.485 3.485 0 011.599-3.134l.384-.246.007.123a3.352 3.352 0 01-1.99 3.257zm-23.913 13.043a3.483 3.483 0 011.6-3.134l.384-.246.007.124a3.35 3.35 0 01-1.991 3.256zm159.379-90.346a3.484 3.484 0 01-.406-3.495l.184-.417.074.099a3.349 3.349 0 01.148 3.813zm46.063-64.712a1.813 1.813 0 01-1.363-1.217l-.073-.225.063.013a1.738 1.738 0 011.373 1.429zm15.352-31.314a1.807 1.807 0 01-.819-1.632l.015-.237.054.035c.608.396.907 1.126.75 1.834zm-35.114-83.363a3.483 3.483 0 013.514.16l.383.248-.109.057a3.35 3.35 0 01-3.788-.465zm-31.522 123.329a3.485 3.485 0 013.419.831l.328.317-.118.035a3.35 3.35 0 01-3.629-1.183z" fill="#080808"/><path d="M414.914 170.497a3.485 3.485 0 013.419.831l.328.317-.118.035a3.35 3.35 0 01-3.629-1.183zM468.39 65.825a3.486 3.486 0 011.25 3.29l-.076.45-.096-.079a3.35 3.35 0 01-1.078-3.66zm-89.128 182.606a3.484 3.484 0 011.249 3.289l-.076.45-.096-.078a3.35 3.35 0 01-1.077-3.661zm-47.826 28.26a3.486 3.486 0 011.25 3.289l-.076.45-.096-.078a3.35 3.35 0 01-1.078-3.661zm-27.173 19.565a3.482 3.482 0 011.249 3.289l-.075.45-.097-.078a3.35 3.35 0 01-1.077-3.661zm-23.913 13.043a3.486 3.486 0 011.25 3.289l-.076.45-.096-.078a3.35 3.35 0 01-1.078-3.661zm151.881-99.93a3.482 3.482 0 012.862 2.045l.187.417-.123-.012a3.349 3.349 0 01-2.926-2.45zm32.731-58.367a1.81 1.81 0 011.817-.194l.216.098-.052.038a1.741 1.741 0 01-1.981.058zm19.431-31.006a1.81 1.81 0 011.761.488l.165.17-.062.017a1.741 1.741 0 01-1.864-.675zm-28.321-52.581a3.485 3.485 0 013.461.634l.346.298-.117.042a3.35 3.35 0 01-3.69-.974zm-89.129 182.606a3.483 3.483 0 013.461.634l.346.297-.117.042a3.349 3.349 0 01-3.69-.973zm-47.825 28.26a3.486 3.486 0 013.461.634l.346.297-.117.043a3.35 3.35 0 01-3.69-.974zm-27.173 19.565a3.484 3.484 0 013.46.634l.346.297-.116.043a3.35 3.35 0 01-3.69-.974zm-23.913 13.043a3.486 3.486 0 013.461.634l.346.298-.117.042a3.35 3.35 0 01-3.69-.974zm154.826-93.37a3.486 3.486 0 013.232-1.39l.453.056-.073.1a3.35 3.35 0 01-3.612 1.234zm41.279-60.121a1.808 1.808 0 01.775-1.654l.195-.135.006.064a1.74 1.74 0 01-.976 1.725zm17.134-31.76a1.81 1.81 0 011.329-1.253l.231-.053-.018.062a1.74 1.74 0 01-1.542 1.244zM454.92 51.305c.88.9 1.207 2.205.854 3.413l-.127.438-.087-.089a3.35 3.35 0 01-.64-3.762zm-44.353 124.779c0-1.206.801-2.264 1.962-2.59l2.385-.671a2.946 2.946 0 01-2.403 2.896l-1.944.365z" fill="#080808"/><path d="M410.567 176.084c0-1.206.801-2.264 1.962-2.59l2.385-.671a2.946 2.946 0 01-2.403 2.896l-1.944.365zm50.757-110.682a2.69 2.69 0 013.245.152l1.904 1.587a2.948 2.948 0 01-3.749-.342l-1.4-1.397zm-89.129 182.606a2.69 2.69 0 013.245.152l1.904 1.587a2.947 2.947 0 01-3.748-.343l-1.401-1.396zm-47.825 28.26a2.69 2.69 0 013.245.152l1.904 1.587a2.946 2.946 0 01-3.749-.343l-1.4-1.396zm-27.174 19.565a2.691 2.691 0 013.246.152l1.903 1.587a2.945 2.945 0 01-3.748-.343l-1.401-1.396zm-23.912 13.043a2.69 2.69 0 013.245.152l1.904 1.587a2.947 2.947 0 01-3.749-.342l-1.4-1.397zm152.83-95.943a2.69 2.69 0 012.786-1.672l2.464.266a2.947 2.947 0 01-3.31 1.792l-1.94-.386zm37.704-58.438a1.397 1.397 0 01.504-1.609l1.049-.747a1.531 1.531 0 01-.667 1.837l-.886.519zm18.226-31.673a1.397 1.397 0 011.061-1.311l1.25-.308a1.532 1.532 0 01-1.296 1.463l-1.015.156zm-29.992-49.58a2.69 2.69 0 011.81-2.698l2.343-.806a2.946 2.946 0 01-2.233 3.029l-1.92.475zm-89.129 182.606a2.689 2.689 0 011.81-2.698l2.343-.807a2.945 2.945 0 01-2.233 3.029l-1.92.476zm-47.825 28.26a2.689 2.689 0 011.81-2.698l2.343-.807a2.946 2.946 0 01-2.234 3.03l-1.919.475zm-27.174 19.565a2.691 2.691 0 011.81-2.698l2.344-.807a2.947 2.947 0 01-2.234 3.03l-1.92.475zm-23.912 13.043a2.689 2.689 0 011.81-2.698l2.343-.807a2.947 2.947 0 01-2.234 3.03l-1.919.475zm158.729-92.118a2.691 2.691 0 01.012-3.249l1.503-1.971a2.946 2.946 0 01-.18 3.76l-1.335 1.46zm43.793-64.413a1.396 1.396 0 01-1.117-1.264l-.096-1.284a1.53 1.53 0 011.227 1.522l-.014 1.026zm15.939-31.073a1.395 1.395 0 01-.572-1.587l.383-1.228a1.53 1.53 0 01.58 1.866l-.391.949zm-34.521-79.058a2.69 2.69 0 013.205.533l1.704 1.8a2.947 2.947 0 01-3.682-.781l-1.227-1.552zm-35.211 121.682a.98.98 0 01.636-.918l.45-.169c0 .479-.326.897-.79 1.013l-.296.074z" fill="#080808"/><path d="M412.741 171.736a.98.98 0 01.636-.918l.45-.169c0 .479-.326.897-.79 1.013l-.296.074zm53.398-107.002a.98.98 0 011.116.005l.395.276a1.045 1.045 0 01-1.283-.079l-.228-.202zM377.01 247.34a.978.978 0 011.117.005l.394.276a1.045 1.045 0 01-1.283-.079l-.228-.202zm-47.825 28.26a.98.98 0 011.116.005l.395.276a1.044 1.044 0 01-1.283-.079l-.228-.202zm-27.174 19.565a.982.982 0 011.117.005l.394.276a1.044 1.044 0 01-1.282-.079l-.229-.202zm-23.912 13.043a.98.98 0 011.116.005l.395.276a1.044 1.044 0 01-1.283-.079l-.228-.202zm151.653-98.499a.977.977 0 01.932-.615l.481.011a1.042 1.042 0 01-1.111.645l-.302-.041zm34.365-57.72a.51.51 0 01.15-.56l.191-.162a.542.542 0 01-.209.634l-.132.088zm19.128-31.387a.506.506 0 01.345-.465l.237-.081a.543.543 0 01-.428.513l-.154.033zm-29.272-51.825a.979.979 0 01.582-.953l.441-.195c.027.479-.275.914-.732 1.057l-.291.09zm-89.129 182.605a.979.979 0 01.582-.952l.441-.195c.027.478-.274.914-.732 1.057l-.291.09zm-47.825 28.261a.979.979 0 01.582-.953l.441-.195c.027.479-.275.914-.732 1.057l-.291.091zm-27.174 19.565a.981.981 0 01.583-.953l.44-.195c.028.479-.274.914-.731 1.057l-.292.091zm-23.912 13.043a.979.979 0 01.582-.953l.44-.195c.028.479-.274.914-.731 1.057l-.291.091zm155.933-92.435a.98.98 0 01-.044-1.116l.259-.406c.288.383.278.913-.023 1.285l-.192.237zm42.678-61.184a.508.508 0 01-.401-.418l-.04-.247a.541.541 0 01.434.507l.007.158zm16.651-31.697a.507.507 0 01-.219-.536l.054-.244a.541.541 0 01.217.63l-.052.15zm-28.383-76.978a.98.98 0 011.108.136l.36.32a1.045 1.045 0 01-1.265-.229l-.203-.227zM416.001 173.91a.98.98 0 01.636-.918l.451-.169c0 .479-.326.897-.791 1.013l-.296.074z" fill="#080808"/><path d="M416.001 173.91a.98.98 0 01.636-.918l.451-.169c0 .479-.326.897-.791 1.013l-.296.074zm50.191-105.257a.98.98 0 011.116.005l.395.276a1.045 1.045 0 01-1.283-.079l-.228-.202zm-89.129 182.605a.98.98 0 011.116.005l.395.276a1.044 1.044 0 01-1.283-.079l-.228-.202zm-47.826 28.261a.978.978 0 011.117.005l.395.276a1.045 1.045 0 01-1.283-.079l-.229-.202zm-27.173 19.564a.98.98 0 011.117.006l.394.276a1.044 1.044 0 01-1.282-.079l-.229-.203zm-23.913 13.044a.978.978 0 011.117.005l.395.276a1.045 1.045 0 01-1.283-.079l-.229-.202zm153.817-99.186a.98.98 0 01.932-.615l.481.012c-.178.444-.637.71-1.111.645l-.302-.042zm34.125-60.462a.508.508 0 01.149-.56l.191-.162a.542.542 0 01-.209.634l-.131.088zm18.807-30.694a.509.509 0 01.346-.465l.237-.081a.544.544 0 01-.428.513l-.155.033zM457.353 70.76a.982.982 0 01.582-.952l.441-.195c.027.478-.274.914-.732 1.057l-.291.09zm-89.129 182.606a.981.981 0 01.583-.953l.44-.195c.027.479-.274.914-.732 1.057l-.291.091zm-47.825 28.26a.981.981 0 01.582-.953l.441-.194c.027.478-.274.914-.732 1.056l-.291.091zm-27.174 19.565a.981.981 0 01.583-.953l.44-.194c.028.478-.274.914-.731 1.056l-.292.091zm-23.912 13.043a.977.977 0 01.582-.952l.441-.195c.027.478-.274.914-.732 1.056l-.291.091zm156.465-94.64a.982.982 0 01-.043-1.116l.259-.406c.288.383.278.913-.023 1.285l-.193.237zm40.208-62.398a.51.51 0 01-.402-.418l-.039-.247a.543.543 0 01.434.507l.007.158zm17.079-31.065a.507.507 0 01-.22-.536l.054-.245a.542.542 0 01.217.631l-.051.15zm-30.661-72.276a.981.981 0 011.109.136l.359.32a1.045 1.045 0 01-1.265-.229l-.203-.227zm-10.316 67.882c0-1.259.679-2.42 1.776-3.037l.398-.224v.124a3.351 3.351 0 01-2.174 3.137zm5.435-29.347c0-1.26.679-2.42 1.776-3.038l.397-.223v.124a3.35 3.35 0 01-2.173 3.137zm6.58-44.336a2.763 2.763 0 01-1.779-1.211l-2.169-3.366 3.428 2.107a54.322 54.322 0 0113.986 12.354l.605.756a7.277 7.277 0 01-2.845-1.758l-4.111-4.111a5.692 5.692 0 00-1.477-1.064l-.944-.472a1.703 1.703 0 01-.656-.58l-.544-.815a.596.596 0 00-.763-.203.598.598 0 01-.834-.345l-.143-.431a.993.993 0 00-.747-.66l-1.007-.2zm-8.754 68.248a6.128 6.128 0 012.88-5.197l.38-.237v.543a5.3 5.3 0 01-3.26 4.891zm7.274-19.332a4.09 4.09 0 011.513-4.267l.477.715a5.112 5.112 0 01-.262 6.03l-1.878 2.349.373-2.24a4.981 4.981 0 00-.081-2.024l-.142-.564zm-11.622 34.549a1.96 1.96 0 011.272-1.835l.902-.339c0 .959-.652 1.794-1.582 2.026l-.592.148zm6.135-57.533a.756.756 0 011.473.239v.48c0 .824.528 1.556 1.31 1.817l.321.107a2.384 2.384 0 011.63 2.262v1.284c0 .53.101 1.055.298 1.547l.368.919a2.646 2.646 0 001.475 1.474l1.256.503a.649.649 0 01-.241 1.25h-2.612l-1.668-.209a6.186 6.186 0 01-4.256-2.54 6.13 6.13 0 01-1.141-3.555v-.49c0-.885.262-1.751.753-2.489l.188-.28a1.96 1.96 0 00.229-.469l.617-1.85zm-72.726 153.57a1.82 1.82 0 011.727-2.397h.403c.56 0 1.098.222 1.494.618l.16.161a1.826 1.826 0 01-1.869 3.024l-.763-.254a1.822 1.822 0 01-1.152-1.152zm29.381-43.743a2.263 2.263 0 01-.136-4.11l4.205-2.103a3.098 3.098 0 011.126-.316l1.107-.092c2.029-.169 3.406 2.017 2.379 3.774a2.511 2.511 0 01-1.213 1.055l-4.864 2.002a2.762 2.762 0 01-2.12-.007l-.484-.203zm-.18 9.864a2.192 2.192 0 002.899-1.201c.164-.411.45-.763.819-1.009l.208-.139c.555-.37.97-.914 1.181-1.546l.575-1.726a6.04 6.04 0 012.735-3.335l.557-.319a4.172 4.172 0 015.942 2.073l.192.478a2.823 2.823 0 01-.655 2.862l-18.367 18.877-11.245 10.734a5.565 5.565 0 01-1.612 1.073l-6.441 2.818a.966.966 0 11-.693-1.802l.375-.125c.381-.127.696-.4.875-.759l1.218-2.436a8.085 8.085 0 011.794-2.367l16.111-14.647c.449-.408.705-.987.705-1.595 0-.757.398-1.458 1.047-1.848l1.466-.879a.823.823 0 00-.187-1.491l-3.431-1.029a2.15 2.15 0 01-1.421-1.379l-.29-.869a1.302 1.302 0 012.251-1.225l1.144 1.43c.334.417.765.745 1.256.956l.992.425z" fill="#080808"/><path d="M435.023 139.671c.348-.348.82-.543 1.312-.543h.238c.738 0 1.435.335 1.897.912l.737.922c.421.526.453 1.264.079 1.825l-.091.137a1.24 1.24 0 01-1.031.552h-.119c-.498 0-.933.339-1.054.823l-.008.032a1.06 1.06 0 001.029 1.318h.238c.569 0 .987.535.849 1.087a.874.874 0 00.848 1.087h.711c.79 0 1.43-.64 1.43-1.429v-1.381c0-.288.114-.565.318-.769a1.086 1.086 0 000-1.537 1.086 1.086 0 01-.318-.769v-1.498c0-.144.057-.282.159-.384l.384-.385a.318.318 0 00-.225-.543.318.318 0 01-.318-.318v-.744c0-.355.177-.687.473-.884l.52-.347c.413-.275.722-.68.879-1.151l.165-.494c.089-.267.254-.504.474-.68l.683-.546a1.045 1.045 0 011.697.816v2.132a3.346 3.346 0 01-1.338 2.676l-.241.181a2.38 2.38 0 00-.83 1.151l-.306.918a1.524 1.524 0 002.732 1.3l2.587-4.065a5.433 5.433 0 00.809-2.246l.279-2.231a1.57 1.57 0 00-.615-1.449 1.566 1.566 0 01-.168-2.362l.172-.173c.119-.118.26-.212.416-.274l.355-.142c.839-.336 1.688.464 1.402 1.322-.196.587.15 1.216.75 1.366l.149.038c.536.134.912.615.912 1.168v.125c0 .362-.144.709-.399.965l-.578.577a3.335 3.335 0 00-.877 1.55l-.091.361a4.66 4.66 0 01-.796 1.672l-.418.558a8.13 8.13 0 00-1.044 1.859l-.688 1.719-1.882 3.292a4.28 4.28 0 00-.435 1.084l-.157.627a2.6 2.6 0 01-1.079 1.532 2.596 2.596 0 00-1.057 1.448l-.513 1.796a7.671 7.671 0 01-.925 2.043l-3.774 5.872a1.155 1.155 0 00.155 1.442c.268.268.388.651.32 1.024l-.595 3.274a7.516 7.516 0 01-1.823 3.697l-13.065 14.416a1 1 0 01-1.71-.428.998.998 0 00-.392-.573l-1.394-.988a1.434 1.434 0 01-.604-1.169c0-.792-.641-1.434-1.433-1.434h-4.885a1.164 1.164 0 01-.165-2.316l1.457-.208a2.86 2.86 0 002.048-1.361l.157-.26a3.498 3.498 0 012.241-1.615l2.401-.534a1.691 1.691 0 001.276-1.243l.042-.167a1.45 1.45 0 00-.602-1.558 1.449 1.449 0 01-.626-1.445l.686-4.116a7.886 7.886 0 011.019-2.767l.464-.775c.26-.433.602-.812 1.006-1.115l.208-.156a3.385 3.385 0 001.354-2.708c0-.668.198-1.321.568-1.877l.149-.223c.245-.368.431-.771.553-1.196l.498-1.744c.27-.944.627-1.861 1.066-2.74l.427-.853 1.777-3.111a1.376 1.376 0 011.195-.694c.759 0 1.375-.615 1.375-1.375v-3.291c0-.492.196-.964.544-1.312zm-106.52 137.498c0-.6-.487-1.087-1.087-1.087h-.911a1.264 1.264 0 01-.399-2.462l4.456-1.485a3.06 3.06 0 001.768-1.534 3.068 3.068 0 011.601-1.473l.904-.361a4.094 4.094 0 011.523-.294h3.429c.371 0 .672-.3.672-.671 0-.255.144-.487.372-.601l.82-.41a2.16 2.16 0 001.163-1.574l.216-1.3c.096-.577.33-1.123.681-1.591l.634-.845a1.54 1.54 0 011.232-.616h1.34a.711.711 0 00.569-1.138l-.791-1.055a4.005 4.005 0 01-.801-2.403v-.952c0-.616.28-1.198.76-1.582l1.21-.968a.774.774 0 011.175.259l.01.02a.72.72 0 00.316.316c.431.215.525.79.184 1.131l-.738.737a1.458 1.458 0 00-.273 1.684l.013.026c.04.08.087.157.141.229l1.053 1.404a.992.992 0 001.236.292l.635-.318c.368-.184.8.083.8.494v.138c0 .505.655.703.935.283a.512.512 0 01.425-.228h1.18a2.038 2.038 0 01.335 4.05l-.146.024a1.966 1.966 0 00-.767 3.575l.261.174a2.553 2.553 0 01.708 3.54l-.758 1.137-5.655 7.199a2.972 2.972 0 00-.488.905c-.688 2.064.981 4.151 3.146 3.935l.401-.04c.28-.028.556-.093.82-.192l3.169-1.188a4.598 4.598 0 011.616-.293h2.938c.918 0 1.662-.744 1.662-1.662 0-.644.372-1.23.955-1.504l6.135-2.888c1.42-.668 2.699-1.6 3.769-2.747l4.75-5.089a8.905 8.905 0 001.859-3.033l1.083-2.979a2.697 2.697 0 011.793-1.671l.294-.084a2.375 2.375 0 012.907 1.533l.209.626c.1.301.054.633-.122.897-.39.586-.087 1.39.596 1.561.453.113.772.52.772.988v1.075c0 .86-.461 1.654-1.208 2.08l-1.959 1.12a.777.777 0 00.386 1.451h.378c1.321 0 1.896 1.67.855 2.483l-12.37 9.664a6.792 6.792 0 01-4.182 1.44h-1.348c-2.532 0-4.982.898-6.916 2.533l-3.41 2.886c-.44.372-.906.712-1.395 1.018l-15.504 9.69a.833.833 0 00.013 1.42.832.832 0 01-.165 1.503l-5.132 1.711a.798.798 0 01-1.034-.913.797.797 0 00-1.045-.908l-8.153 2.853a3.95 3.95 0 01-2.772-.061l-.915-.366a1.257 1.257 0 00-1.66 1.566l.055.166a.83.83 0 00.328.429.833.833 0 01-.188 1.479l-8.304 2.888c-1.039.362-2.029-.652-1.643-1.683l.226-.602a.853.853 0 00-1.454-.846l-3.109 3.731a11.223 11.223 0 01-5.143 3.486l-21.46 6.998a1.398 1.398 0 01-.925-.021l-1.07-.401c-.91-.341-.866-1.643.065-1.922.893-.268.982-1.497.137-1.891l-3.445-1.608a2.463 2.463 0 01-1.161-3.334l1.027-2.055a4.701 4.701 0 011.596-1.808l2.223-1.482 2.339-1.871c.241-.193.552-.278.858-.234l.801.114c.808.116 1.298-.865.721-1.442a.849.849 0 01-.205-.87l.248-.746a1.185 1.185 0 012.25 0l.211.63c.23.692.877 1.158 1.606 1.158h1.678c.8 0 1.449-.649 1.449-1.449v-.083c0-.404-.19-.784-.513-1.027a1.282 1.282 0 01.196-2.173l.989-.495c.273-.136.574-.207.879-.207h2.632c.692 0 1.252-.561 1.252-1.252v-.106a.9.9 0 00-.152-.5c-.4-.6.03-1.403.751-1.403h2.231c.284 0 .565.057.826.169l2.601 1.115a1.128 1.128 0 001.34-.363c.496-.662.125-1.627-.69-1.763l-.729-.121a.556.556 0 11.244-1.084l1.757.502a2.21 2.21 0 011.603 2.125 2.21 2.21 0 001.512 2.097l1.074.358a1.718 1.718 0 002.08-2.399l-.09-.18a1.913 1.913 0 00-.652-.739l-.567-.378a4.494 4.494 0 01-1.968-4.232 4.517 4.517 0 012.09-3.328l1.049-.655a3.07 3.07 0 012.991-.136 2.976 2.976 0 004.099-1.554l.339-.847 1.967-3.443a1.378 1.378 0 011.958-.462l.551.368c.274.182.581.309.903.374l1.148.229a5.501 5.501 0 002.162 0l1.111-.222c.343-.068.657-.237.904-.484l.451-.45a1.133 1.133 0 00-.688-1.929l-3.992-.399a1.415 1.415 0 01-1.246-1.13l-.045-.227a1.224 1.224 0 011.2-1.464h.681c.3 0 .543.243.543.543 0 .301.244.544.544.544h2.717c.6 0 1.087-.487 1.087-1.087zm134.78-196.736c0-.6.487-1.087 1.087-1.087h2.157c1.252 0 2.307.932 2.463 2.174l.113.91a1.444 1.444 0 001.432 1.264c.797 0 1.444.646 1.444 1.443v.094c0 .408-.162.799-.451 1.087l-.362.362a.937.937 0 01-.662.275.937.937 0 00-.901 1.194l.322 1.13a1.823 1.823 0 001.954 1.31l1.043-.116a3.063 3.063 0 013.183 1.908l1.178 2.943a1.133 1.133 0 002.151-.146l.121-.487c.021-.085.032-.172.032-.26 0-.953 1.154-1.431 1.828-.757l.147.147c.131.13.228.29.284.467l3.719 11.688.184.735c.232.929.124 1.91-.304 2.766l-.191.383a2.193 2.193 0 00-.232.983v1.43a.768.768 0 01-1.312.543l-.093-.093a1.089 1.089 0 00-1.856.769v3.897a1.087 1.087 0 01-2.174 0v-1.251c0-.251.041-.501.12-.739l.424-1.271.397-1.589c.097-.389.236-.765.415-1.123l.739-1.477a.532.532 0 01.238-.238c.502-.251.323-1.007-.238-1.007h-.559a.665.665 0 01-.616-.418l-.25-.625a1.66 1.66 0 00-2.283-.868l-.394.197a2.05 2.05 0 00-.316.195l-.326.245a1.841 1.841 0 00-.197 2.775l.059.059c.047.047.088.098.125.152l.374.562a.634.634 0 01-.528.986h-.348a.49.49 0 00-.346.837.49.49 0 01.091.566l-.712 1.425a2.059 2.059 0 00-.217.918v2.44a.543.543 0 11-1.086 0v-1.616c0-.838-.333-1.642-.926-2.234l-.753-.753a4.582 4.582 0 00-2.488-1.281l-.349-.058a3.704 3.704 0 01-2.353-1.43l-.389-.519a1.757 1.757 0 011.23-2.8l1.902-.191a1.778 1.778 0 00.705-3.314l-1.365-.78a3.043 3.043 0 00-4.231 1.281l-1.17 2.34a1.319 1.319 0 001.18 1.909h.039c.751 0 1.359.608 1.359 1.358v.294c0 .34-.104.671-.299.948l-3.505 5.008-1.599 1.999a3.784 3.784 0 00-.756 1.621l-.152.762a2.196 2.196 0 01-1.171 1.533l-.407.204a1.46 1.46 0 00-.807 1.304v1.413a.584.584 0 01-1.152.142l-.112-.451a1.21 1.21 0 00-2.359.531l.028.141a1.397 1.397 0 01-1.369 1.671h-.292a1.637 1.637 0 01-1.629-1.8l.252-2.512a2.563 2.563 0 011.015-1.8 2.572 2.572 0 00.987-2.516l-.791-4.346a.78.78 0 011.236-.764l.491.368c.274.205.435.528.435.87v.543c0 1.201.973 2.174 2.174 2.174h1.086a1.63 1.63 0 001.631-1.63v-.715a.916.916 0 00-.916-.916h-.212a.642.642 0 00-.624.487.644.644 0 01-1.2.132l-.222-.444a.835.835 0 01-.087-.37v-3.881c0-.45.365-.815.815-.815.45 0 .815-.365.815-.815 0-.45.365-.815.816-.815h1.129c.795 0 1.51-.484 1.805-1.223l.358-.893c.159-.397.24-.822.24-1.25v-7.594c0-.55.447-.997.997-.997a.998.998 0 00.984-1.16l-.175-1.048a1.897 1.897 0 00-1.166-1.449l-1.297-.519a1.217 1.217 0 01.451-2.346h.283c.789 0 1.368-.741 1.177-1.507-.104-.413.018-.85.319-1.152l.151-.15c.288-.29.45-.68.45-1.088v-.45c0-.6.487-1.087 1.087-1.087a1.087 1.087 0 000-2.174h-1.087c-.6 0-1.087-.486-1.087-1.087zm8.939.487a1.087 1.087 0 01.972-1.574h1.438c.372 0 .713-.21.879-.543a.984.984 0 01.88-.544h.955c.998 0 1.867.68 2.109 1.647l.412 1.647a.848.848 0 01-.823 1.054h-.415c-.745 0-1.426.42-1.759 1.087l-.875 1.313a1.438 1.438 0 01-1.993.398l-.794-.529a.647.647 0 01.358-1.182h.3a.83.83 0 00.83-.83v-.257c0-.6-.487-1.087-1.087-1.087h-.415c-.412 0-.788-.232-.972-.6zm-5.135 84.434c0-.408.261-.77.648-.899l.23-.077c.461-.153.97-.033 1.314.31l.062.062a1.426 1.426 0 010 2.015l-.971.971c-.13.13-.247.273-.349.426l-.521.781a2.17 2.17 0 01-1.119.855 2.164 2.164 0 00-1.308 1.203l-.989 2.309c-.17.396-.257.822-.257 1.253v1.625c0 .572-.403 1.063-.963 1.175l-.34.068a.966.966 0 00.189 1.914h.052c.586 0 1.062.475 1.062 1.062v1.655a.544.544 0 01-1.087 0v-.72c0-.544-.348-1.026-.864-1.198l-.599-.2a1.366 1.366 0 00-1.798 1.296c0 .754-.612 1.365-1.366 1.365h-.265c-.9 0-1.63.73-1.63 1.631v.128c0 .273.064.542.186.787l.715 1.431c.122.244.186.513.186.786v1.216a.543.543 0 11-1.087 0v-.994c0-.408-.162-.799-.45-1.087l-1.026-1.026a2.382 2.382 0 01-.373-2.884l3.479-5.966 4.348-7.065 1.649-2.473a1.77 1.77 0 011.472-.788h.823a.947.947 0 00.947-.947zm5.256-41.265a1.55 1.55 0 00.292-.404l.152-.304a1.007 1.007 0 011.909.45v.623c0 .3-.243.544-.543.544a.543.543 0 00-.544.543v1.066c0 .365.124.72.353 1.005l1.329 1.662c.319.398.492.892.492 1.402v.886a.81.81 0 001.483.449l.375-.561a.645.645 0 011.114.647l-.56 1.119a.862.862 0 01-.772.477.864.864 0 00-.784.503l-.435.949a2.49 2.49 0 00-.083 1.871l.418 1.18a1.4 1.4 0 001.319.932 1.4 1.4 0 011.381 1.169l.203 1.221a.748.748 0 01-.737.871.747.747 0 00-.748.747v1.197c0 .795-.484 1.51-1.222 1.805l-.251.101a1.663 1.663 0 00-1.024 1.819l.226 1.359a.498.498 0 11-.99.082v-1.132a.544.544 0 10-1.087 0v1.087a.543.543 0 11-1.087 0v-1.744c0-.615.28-1.197.76-1.582l1.325-1.059a.655.655 0 01.995.218.661.661 0 00.59.362c.371 0 .678-.3.678-.671v-.415c0-.601-.487-1.087-1.087-1.087h-2.272a3.358 3.358 0 00-3.004 1.856l-.047.093c-.074.15-.138.304-.191.462l-.72 2.159a1.263 1.263 0 01-2.462-.399v-1.326c0-.745.421-1.425 1.087-1.758a1.966 1.966 0 001.087-1.759v-.69a.889.889 0 00-1.714-.33l-.172.429a.713.713 0 01-1.375-.265v-1.919c0-.593.138-1.177.404-1.707l1.211-2.423c.371-.743.833-1.438 1.374-2.069l.611-.713a7.626 7.626 0 001.835-4.961v-2.054c0-.707.281-1.385.781-1.885l.127-.128z" fill="#080808"/><path d="M313.571 247.744a13.193 13.193 0 015.485-2.869l3.082-.77c.233-.058.472-.088.712-.088h1.205c.372 0 .713-.21.879-.543a.985.985 0 01.88-.544h.283c.462 0 .893-.231 1.15-.615l.339-.509a.688.688 0 01.881-.234c.31.155.688.055.88-.234l.444-.666a.722.722 0 111.111.91l-.621.621a1.258 1.258 0 01-.425.28l-5.888 2.355a6.47 6.47 0 00-3.144 2.678 6.484 6.484 0 01-1.249 1.507l-3.618 3.216a6.913 6.913 0 01-1.153.828l-2.449 1.399a1.583 1.583 0 01-2.202-2.082l1.109-2.218c.236-.471.561-.893.958-1.24l1.351-1.182zm-10.128 14.306a.887.887 0 01-.111-.385l-.011-.213a.33.33 0 00-.011-.07l-.112-.419a.065.065 0 01.123-.039l.211.592c.022.063.05.124.083.182l.14.245a.51.51 0 01.039.09l.059.182a.106.106 0 01-.014.093.104.104 0 01-.15.021l-.121-.095a.237.237 0 01-.063-.074l-.062-.11zm-1.723-.168a.775.775 0 01-.408-.187l-.067-.058a.223.223 0 00-.056-.036l-.285-.123a.075.075 0 01-.001-.137.083.083 0 01.054-.003l.535.172c.087.028.177.048.268.06l.295.039a.22.22 0 01.052.012l.148.053a.093.093 0 01.057.115.094.094 0 01-.074.063l-.269.042a.517.517 0 01-.157.001l-.092-.013z" fill="#FAC05C"/><path d="M303.634 261.709a.782.782 0 01-.303-.331l-.039-.08a.203.203 0 00-.038-.054l-.214-.224a.074.074 0 01.102-.108l.427.365c.07.06.145.113.224.159l.257.151c.016.009.03.02.043.032l.116.105a.092.092 0 01-.085.158l-.264-.066a.509.509 0 01-.145-.059l-.081-.048zm-.841-.045a.782.782 0 01-.393.217l-.087.019a.222.222 0 00-.062.024l-.269.155c-.055.033-.123-.017-.11-.08a.077.077 0 01.03-.045l.455-.328c.075-.054.144-.114.208-.18l.207-.215a.225.225 0 01.041-.034l.13-.087a.092.092 0 01.127.023c.02.028.022.065.006.096l-.126.242a.516.516 0 01-.092.126l-.065.067z" fill="#FAC05C"/><path d="M302.558 261.717a.777.777 0 01-.308-.327l-.04-.08a.204.204 0 00-.038-.053l-.218-.222a.075.075 0 01.051-.127c.018 0 .036.006.05.018l.432.36c.07.058.146.111.225.156l.26.147c.015.009.03.02.043.032l.117.104c.037.033.041.09.009.128a.09.09 0 01-.091.031l-.266-.063a.506.506 0 01-.145-.058l-.081-.046z" fill="#FAC05C"/><path d="M301.91 262.135a1.67 1.67 0 01-.721.173l-.412.004a.72.72 0 00-.131.015l-.803.175a.119.119 0 01-.06-.23l1.132-.343a2.13 2.13 0 00.341-.137l.472-.238a.929.929 0 01.175-.067l.348-.095a.194.194 0 01.168.032.195.195 0 01.031.285l-.182.21a.457.457 0 01-.141.109l-.217.107z" fill="#FAC05C"/><path d="M303.341 261.786c-.16.096-.341.152-.527.161l-.235.012a.413.413 0 00-.092.016l-.507.147a.089.089 0 01-.057-.168l.738-.287c.088-.034.173-.077.254-.126l.313-.193a.585.585 0 01.104-.05l.224-.079a.134.134 0 01.134.025.135.135 0 01.02.185l-.139.185a.385.385 0 01-.108.097l-.122.075z" fill="#FAC05C"/><path d="M303.88 261.664a.782.782 0 01-.393.217l-.087.019a.222.222 0 00-.062.024l-.269.155c-.056.033-.123-.017-.11-.08a.077.077 0 01.03-.045l.455-.328c.075-.054.144-.114.208-.18l.207-.215a.225.225 0 01.041-.034l.13-.087a.092.092 0 01.127.023c.02.028.022.065.006.096l-.126.242a.516.516 0 01-.092.126l-.065.067zm-1.087 0a.782.782 0 01-.393.217l-.087.019a.222.222 0 00-.062.024l-.269.155c-.055.033-.123-.017-.11-.08a.077.077 0 01.03-.045l.455-.328c.075-.054.144-.114.208-.18l.207-.215a.225.225 0 01.041-.034l.13-.087a.092.092 0 01.127.023c.02.028.022.065.006.096l-.126.242a.516.516 0 01-.092.126l-.065.067zm30.565-24.712a13.904 13.904 0 013.96-3.572l.388-.232 3.804-2.717-1.011 2.021a7.8 7.8 0 01-5.448 4.162l-1.693.338zm33.488-28.586a4.14 4.14 0 01.68-1.392l.187-.25a5.762 5.762 0 012.472-1.893l.067-.028a6.007 6.007 0 002.023-1.334l.145-.144c.406-.406.86-.761 1.352-1.056l1.044-.627a3.934 3.934 0 012.019-.559l-.013.041a20.922 20.922 0 01-3.11 5.936l-.335.446a15.163 15.163 0 01-1.991 2.177l-4.058 3.653a.963.963 0 01-1.574-.969l1.092-4.001zm-20.445 22.608c0-1.711.806-3.321 2.174-4.348v.831a3.933 3.933 0 01-2.174 3.517zm47.825-54.89c0-1.259.679-2.42 1.777-3.037l.397-.224v.124a3.351 3.351 0 01-2.174 3.137zm-44.564 52.173a1.74 1.74 0 011.318-1.689l1.943-.485c0 .941-.68 1.744-1.608 1.898l-1.653.276zM396.4 173.91a.82.82 0 01.668-.805l1.506-.282a.923.923 0 01-.809.916l-1.365.171zm-2.174-6.522c0-.394.281-.732.668-.804l1.506-.283a.923.923 0 01-.809.917l-1.365.17zm-45.86 56.19a2.375 2.375 0 012.353-1.79l3.162.07a2.64 2.64 0 01-2.813 1.98l-2.702-.26zm47.486-52.32c.157-.62.722-1.05 1.362-1.036l1.831.041a1.53 1.53 0 01-1.629 1.146l-1.564-.151zm-14.669 22.922c0-.446.203-.867.551-1.146l2.167-1.733a13.877 13.877 0 003.571-3.961l.233-.387a7.207 7.207 0 01-1.573 5.8l-.601.722-1.087 1.449a1.812 1.812 0 01-1.449.725h-.344a1.47 1.47 0 01-1.468-1.469z" fill="#FAC05C"/></svg>