<svg width="1082" height="854" fill="none" xmlns="http://www.w3.org/2000/svg"><g opacity=".2"><path d="M571.298 502.327A182.613 182.613 0 00596 515.446l92.159 40.244 150.369 66.301a143.89 143.89 0 0045.36 11.653l15.366 1.361a82.838 82.838 0 0039.755-6.284 81.347 81.347 0 0018.361-10.857l47.7-37.476 41.14-29.683c5.04-3.636 11.15-5.599 17.42-5.599h.48c6.33 0 12.48 2.1 17.42 5.954 6.62 5.157 10.47 12.964 10.47 21.218v2.054c0 4-.78 7.964-2.31 11.678l-10.94 26.643a174.566 174.566 0 01-11.42 22.871l-13.36 22.484-5.78 7.886c-8.15 11.108-18.37 20.619-30.13 28.034l-3.21 2.019a84.978 84.978 0 01-20.907 9.5 84.846 84.846 0 00-23.087 10.92l-.73.492a88.638 88.638 0 00-20.938 19.727l-16.231 21.285c-14.551 19.08-32.91 35.1-53.975 47.096l-43.442 24.74c-27.731 15.792-59.275 24.116-91.398 24.116h-49.03c-23.721 0-47.21-4.54-69.135-13.361l-133.4-53.675-98.279-51.551a181.194 181.194 0 01-35.783-24.633L252.71 617.155a178.134 178.134 0 01-24.552-26.576L98.033 417.197c-10.962-14.606-19.552-30.768-25.468-47.918L19.899 216.621a172.115 172.115 0 01-8.385-75.158l.156-1.406a171.909 171.909 0 00-1.872-50.518L0 37.046 70.627 0l33.246 37.783c13.914 15.814 30.934 28.759 50.057 38.073l38.03 22.933 5.638 4.119c20.165 14.733 36.951 33.404 49.284 54.819l16.181 28.1a176.2 176.2 0 0015.289 22.366l101.947 126.985 71.528 82.476c11.41 13.157 24.737 24.615 39.556 34.01l79.915 50.663z" fill="#FAC05C"/><path d="M536.04 513.714l72.437 38.81 115.901 45.869 58.584 24.876a184.332 184.332 0 0024.717 8.48l27.167 7.217" stroke="#080808" stroke-width="2" stroke-linecap="round"/><path d="M887.363 786.787c-25.353 24.698-59.761 28.226-59.761 28.226-10.327 14.871-40.737 24.167-59.281 28.616-9.906 2.377-20.097 3.139-30.299 3.139h-39.546c-23.554 0-46.881-4.476-68.676-13.177l-77.462-30.926-106.846-47.631-82.196-48.931a180.729 180.729 0 01-28.971-21.415l-77.666-70.44a177.902 177.902 0 01-24.956-27.948l-52.42-72.947-61.572-77.621L85.955 382.3a174.339 174.339 0 01-13.573-28.385l-25.298-68.131-15.872-64.879" stroke="#000" stroke-width="1.5" stroke-linecap="round"/><path d="M1074.62 562.633c1.81 1.173 2.89 3.148 2.89 5.263 0 2.27-1.25 4.366-3.27 5.492l-3.33 1.854c-3.23 1.796-4.11 5.939-1.88 8.834a5.865 5.865 0 011.24 3.609v3.765c0 1.92-.93 3.728-2.51 4.88l-.78.572c-2.22 1.622-2.75 4.65-1.21 6.9.57.836.88 1.82.88 2.825v1.986c0 2.301-.7 4.55-2.01 6.464l-.44.643a14.335 14.335 0 01-2.8 3.032l-1.62 1.313c-4.94 4.013-8.38 9.508-9.77 15.626l-.19.822a30.383 30.383 0 01-4.56 10.407l-2.56 3.743a14.128 14.128 0 00-2.02 4.446 14.226 14.226 0 01-5.05 7.666l-10.31 8.031a53.226 53.226 0 01-8.42 5.385l-22.417 11.561a56.542 56.542 0 00-7.423 4.586l-9.452 6.906a7.838 7.838 0 01-3.369 1.404l-1.269.206c-4.05.658-7.736-2.385-7.736-6.384 0-3.575-2.975-6.473-6.644-6.473h-15.088c-2 0-3.621 1.58-3.621 3.529 0 1.948-1.622 3.528-3.622 3.528-2.001 0-3.622-1.58-3.622-3.528v-1.764c0-2.923-2.433-5.293-5.433-5.293h-7.244c-1 0-1.811.79-1.811 1.764 0 .975-.811 1.764-1.811 1.764h-10.115c-1.64 0-3.213.635-4.372 1.765a5.94 5.94 0 00-1.811 4.258v9.854c0 .975-.811 1.764-1.811 1.764-1 0-1.811-.789-1.811-1.764v-9.169c0-1.756-1.461-3.179-3.264-3.179-.238 0-.475-.026-.708-.076l-7.893-1.709a78.349 78.349 0 01-15.548-5.112l-12.497-5.619a18.218 18.218 0 00-7.466-1.597h-16.007c-1 0-1.811-.79-1.811-1.764 0-.975.811-1.764 1.811-1.764h28.005c3.536 0 6.403-2.793 6.403-6.237a6.157 6.157 0 00-1.876-4.411l-1.665-1.622a9.354 9.354 0 01-2.541-4.372c-.732-2.852-2.791-5.208-5.566-6.366l-18.974-7.921c-1.198-.501-1.975-1.649-1.975-2.919 0-2.317 2.465-3.854 4.625-2.883l18.917 8.505 24.926 12.141a19.595 19.595 0 008.577 1.972c2.977 0 5.913-.675 8.576-1.972l3.195-1.556 41.651-21.169 40.647-24.931a107.516 107.516 0 0015.43-11.475l11.79-10.524a20.519 20.519 0 016.24-3.82 20.444 20.444 0 009.07-6.935l2.08-2.835c2.3-3.142 5.17-5.85 8.47-7.991l.63-.412a36.873 36.873 0 0111.36-4.895l9.88-2.407c3.66-.889 7.52-.236 10.65 1.798l3.06 1.985zm-271.217 101.83c1.45.353 2.468 1.623 2.468 3.079 0 2.215-2.272 3.749-4.402 2.971l-10.086-3.685-19.92-5.292-9.088-2.951a26.637 26.637 0 01-3.454-1.394 26.95 26.95 0 00-11.793-2.711h-3.462c-5.557 0-11.056-1.1-16.164-3.232l-4.935-2.061a38.892 38.892 0 00-19.614-5.292h-8.309a14.27 14.27 0 01-8.413-2.732l-.375-.274a12.222 12.222 0 01-4.367-5.902l-.413-1.208c-1.213-3.544-4.338-6.145-8.121-6.759-2.992-.486-5.615-2.226-7.176-4.76l-.257-.416c-1.723-2.798-4.62-4.719-7.924-5.256l-10.456-1.698a34.976 34.976 0 01-11.408-3.957l-7.336-4.084-24.6-11.183a5.822 5.822 0 01-3.25-3.84c-.661-2.575-3.037-4.382-5.762-4.382h-2.607c-2 0-3.622-1.58-3.622-3.528 0-1.949 1.622-3.528 3.622-3.528h1.811c3.001 0 5.433-2.37 5.433-5.293s2.432-5.292 5.433-5.292h8.149c2.939 0 5.798-.929 8.149-2.646l2.299-1.68a6.876 6.876 0 002.063-2.407l.68-1.327c1.245-2.424 4.189-3.514 6.773-2.508 2.547.993 3.911 3.701 3.157 6.271l-1.608 5.483a11.422 11.422 0 01-2.288 4.213l-4.989 5.832a10.199 10.199 0 00-2.465 6.633c0 5.723 4.762 10.362 10.637 10.362h6.381c3.084 0 6.111-.817 8.755-2.363l14.068-8.222 5.512-2.685a3.044 3.044 0 001.732-2.729c0-2.884 3.728-4.159 5.578-1.906l.078.095a3.03 3.03 0 010 3.865l-5.385 6.557c-.18.22-.385.42-.611.596l-5.574 4.344c-1.042.812-.453 2.448.881 2.448.779 0 1.411.615 1.411 1.374v7.35c0 4.159 3.013 7.739 7.2 8.555l8.803 1.715c1.4.273 2.766.692 4.075 1.249l22.502 9.591a26.087 26.087 0 017.981 5.306c3.637 3.543 8.27 5.958 13.314 6.941l15.186 2.959a14.4 14.4 0 017.301 3.806l.124.12c2.6 2.533 6.127 3.956 9.805 3.956h1.638c3.333 0 6.472 1.529 8.472 4.127a10.614 10.614 0 005.903 3.818l22.86 5.567zM544.436 512.167c2.586 2.848 3.137 6.941 1.391 10.342a9.153 9.153 0 00-.936 3.011l-.883 6.883c-.434 3.383 1.37 6.666 4.501 8.191l.808.394c2.853 1.39 4.398 4.467 3.773 7.514-.469 2.283-2.09 4.181-4.309 5.046l-3.346 1.304a4.922 4.922 0 00-2.884 2.979c-.65 1.901-.039 3.995 1.541 5.278l14.348 11.647c1.98 1.607 1.248 4.724-1.252 5.333a3.228 3.228 0 01-2.326-.313l-17.98-10.008a27.774 27.774 0 00-13.502-3.493h-2.982a18.585 18.585 0 01-10.961-3.56 18.467 18.467 0 00-5.185-2.646l-5.182-1.683a52.379 52.379 0 01-15.241-7.894l-63.69-47.725-37.653-33.345a21.47 21.47 0 00-4.831-3.224l-5.306-2.585c-4.007-1.951-6.538-5.941-6.538-10.305 0-3.322-1.472-6.483-4.039-8.67l-7.58-6.461a33.492 33.492 0 01-5.111-5.449l-8.962-12.004a30.859 30.859 0 00-7.927-7.413 30.727 30.727 0 01-9.888-10.389l-11.322-19.608c-.809-1.402-2.332-2.269-3.984-2.269-2.524 0-4.57-1.994-4.57-4.453v-4.558c0-3.165-1.705-6.099-4.491-7.727l-2.151-1.257a13.565 13.565 0 01-4.059-3.634l-54.493-73.633-31.971-50.175a12.78 12.78 0 00-1.425-1.84l-12.002-12.86c-2.199-2.356-6.215-1.273-6.856 1.85a3.787 3.787 0 00.323 2.458l29.01 58.183a11.273 11.273 0 011.19 5.036v2.293c0 2.422 1.242 4.683 3.31 6.026a7.267 7.267 0 012.929 3.735l1.476 4.315a20.37 20.37 0 004.127 7.016l7.958 8.86a14.892 14.892 0 004.553 3.427c5.052 2.46 8.243 7.49 8.243 12.992v4.984c0 4.689 1.498 9.261 4.286 13.084l44.61 61.16 16.058 27.808c.16.277.281.573.36.881.714 2.784 4.345 3.638 6.285 1.478l4.314-4.802c1.799-2.003 5.107-1.589 6.329.791a3.664 3.664 0 01-.363 3.92l-2.878 3.738a11.2 11.2 0 00-1.725 3.208l-.341.995a9.03 9.03 0 00-.204 5.171l1.435 5.591c.77 3.001-1.56 5.908-4.735 5.908-1.736 0-3.342-.899-4.216-2.359l-19.949-33.313a72.034 72.034 0 00-9.346-12.356l-9.721-10.331a38.087 38.087 0 01-7.509-11.635l-6.569-15.999c-1.014-2.469-3.277-4.243-5.97-4.68-3.767-.612-6.529-3.787-6.529-7.508v-.208c0-2.474-1.195-4.802-3.226-6.286l-1.069-.782a10.45 10.45 0 01-3.918-5.616l-2.719-9.711a39.3 39.3 0 00-5.422-11.605l-5.184-7.576a11.579 11.579 0 00-5.357-4.234c-3.568-1.39-6.2-4.407-7.034-8.061l-1.492-6.543a23.685 23.685 0 00-2.605-6.61l-45.277-78.033-45.257-88.173a122.773 122.773 0 00-12.879-20.024l-8.193-10.376a28.524 28.524 0 01-4.002-6.839l-1.61-3.92a6.615 6.615 0 01-.497-2.514v-10c0-2.34-2.902-3.51-4.6-1.857-1.3 1.267-3.493.92-4.316-.682l-.432-.843c-.838-1.633-2.876-2.294-4.552-1.478l-1.927.939a5.434 5.434 0 00-2.901 3.523L74.6 95.654a2.907 2.907 0 00.518 2.501c1.65 2.142-.227 5.149-2.939 4.709l-2.128-.346a3.94 3.94 0 01-2.122-1.064l-2.834-2.76a14.924 14.924 0 00-3.88-2.724l-3.753-1.828a3.833 3.833 0 01-1.873-1.984c-1.224-2.98-5.456-3.225-7.034-.407l-6.904 12.331-8.315 14.579a10.62 10.62 0 01-1.817 2.347l-2.004 1.951a5.624 5.624 0 00-1.545 5.435l.397 1.546c.364 1.42-.227 2.909-1.476 3.72l-2.407 1.563c-.5.325-1.18.149-1.45-.375l-.379-.739c-.302-.589-1.198-.472-1.33.174-.168.818-1.405.699-1.405-.136v-5.428c0-.838-.844-1.43-1.66-1.165l-3.557 1.155a.97.97 0 00-.378.227c-.608.593-1.65.173-1.65-.666v-25.953L3.623 35.282l21.731-12.349L50.706 8.82l27.165 33.518 2.824 3.93c6.398 8.904 15.567 15.567 26.151 19.003l10.865 3.529 34.413 14.366a182.572 182.572 0 0130.924 16.554l9.526 6.349c29.106 19.4 51.589 46.839 64.555 78.788 7.21 17.766 17.406 34.239 30.169 48.743l78.513 89.229 59.284 76.52a178.587 178.587 0 0030.073 30.423l46.662 37.082a82.156 82.156 0 019.711 9.088l32.895 36.225zm91.206 161.718c4.195 0 8.064 2.204 10.12 5.765l.745 1.291h-.412c-4.654 0-8.819-2.812-10.453-7.056zm-130.388-91.733c4.195 0 8.064 2.204 10.12 5.765l.745 1.291h-.413c-4.653 0-8.818-2.812-10.452-7.056z" fill="#080808"/><path d="M505.254 582.152c4.195 0 8.064 2.204 10.12 5.765l.745 1.291h-.413c-4.653 0-8.818-2.812-10.452-7.056zm377.771 169.353a11.062 11.062 0 01.847 11.391l-.67 1.329-.234-.332a10.646 10.646 0 01.057-12.388zM274.548 462.193a11.065 11.065 0 01.847 11.391l-.671 1.329-.234-.332a10.644 10.644 0 01.058-12.388zm-94.169-155.241a11.065 11.065 0 01.847 11.391l-.671 1.329-.234-.331a10.646 10.646 0 01.058-12.389zm-65.194-88.204a11.064 11.064 0 01.847 11.391l-.671 1.328-.234-.331a10.644 10.644 0 01.058-12.388zm-43.463-77.621a11.063 11.063 0 01.847 11.391l-.67 1.329-.234-.331a10.645 10.645 0 01.057-12.389zm314.792 492.255c3.893 1.522 6.64 4.972 7.186 9.024l.197 1.468-.383-.15c-4.318-1.689-7.108-5.811-7-10.342zm188.769 127.037a6.154 6.154 0 015.985 1.087l.596.503-.201.071c-2.274.796-4.816.134-6.38-1.661zm107.631 58.839c2.177.069 4.147 1.276 5.153 3.157l.365.682-.215-.006c-2.415-.076-4.528-1.604-5.303-3.833zM847.32 716.83c4.188-.235 8.18 1.75 10.443 5.191l.82 1.247-.412.023c-4.646.26-8.97-2.315-10.851-6.461zM238.842 427.518c4.188-.234 8.18 1.75 10.443 5.191l.82 1.247-.412.023c-4.646.26-8.97-2.315-10.851-6.461zm-94.169-155.241c4.188-.234 8.18 1.751 10.443 5.192l.82 1.246-.412.023c-4.646.26-8.97-2.314-10.851-6.461zM79.48 184.073c4.187-.235 8.18 1.75 10.442 5.191l.82 1.247-.412.023c-4.646.26-8.97-2.315-10.85-6.461zm-43.464-77.621c4.189-.234 8.18 1.751 10.443 5.192l.82 1.246-.412.023c-4.646.26-8.97-2.314-10.85-6.461zm301.05 517.343c3.353-2.456 7.805-2.959 11.646-1.317l1.392.595-.33.242c-3.719 2.724-8.783 2.916-12.708.48zm215.635 149.521c.431-2.079 1.98-3.771 4.053-4.424l.751-.237-.043.205c-.478 2.307-2.376 4.083-4.761 4.456zm104.342 49.832c1.187-1.779 3.267-2.796 5.441-2.66l.787.049-.116.176c-1.317 1.973-3.753 2.943-6.112 2.435zm277.784-113.981a11.061 11.061 0 01-.533 11.409l-.826 1.243-.192-.357c-2.164-4.012-1.546-8.912 1.551-12.295zM523.871 606.849c1.202 3.915.143 8.157-2.77 11.097l-1.056 1.066-.118-.386c-1.334-4.343.238-9.036 3.944-11.777z" fill="#080808"/><path d="M523.871 606.849c1.202 3.915.143 8.157-2.77 11.097l-1.056 1.066-.118-.386c-1.334-4.343.238-9.036 3.944-11.777zm348.786 173.583c-2.633 3.181-6.823 4.731-10.96 4.055l-1.499-.245.259-.313c2.921-3.529 7.783-4.922 12.2-3.497zM264.18 491.12c-2.633 3.181-6.823 4.731-10.96 4.055l-1.5-.245.26-.313c2.921-3.529 7.782-4.922 12.2-3.497zm-94.169-155.24c-2.633 3.181-6.823 4.731-10.961 4.055l-1.499-.245.259-.313c2.922-3.529 7.783-4.923 12.201-3.497zm-65.194-88.205c-2.634 3.181-6.823 4.731-10.96 4.055l-1.5-.245.26-.313c2.92-3.529 7.782-4.922 12.2-3.497zm-43.463-77.62c-2.633 3.181-6.823 4.731-10.96 4.055l-1.5-.245.26-.313c2.92-3.529 7.782-4.923 12.2-3.497zm332.987 493.002c-.382 4.07-2.987 7.622-6.815 9.293l-1.388.605.038-.4c.424-4.515 3.678-8.299 8.165-9.498zM588.83 769.304a5.746 5.746 0 01.646 5.896l-.324.701-.127-.168a5.527 5.527 0 01-.195-6.429zm103.32 63.073c.557 2.052-.066 4.236-1.628 5.714l-.566.536-.055-.202c-.617-2.276.279-4.685 2.249-6.048zm175.209-91.931c1.431 3.842.623 8.136-2.113 11.234l-.991 1.123-.141-.378c-1.587-4.261-.294-9.035 3.245-11.979zM258.881 451.135c1.431 3.841.623 8.135-2.112 11.233l-.991 1.123-.141-.378c-1.587-4.261-.294-9.035 3.244-11.978zm-94.169-155.241c1.431 3.842.623 8.136-2.112 11.234l-.992 1.123-.14-.378c-1.587-4.262-.295-9.035 3.244-11.979zm-65.194-88.205c1.431 3.842.623 8.136-2.112 11.234l-.992 1.123-.14-.378c-1.588-4.262-.295-9.035 3.244-11.979zm-43.463-77.62c1.431 3.841.624 8.136-2.112 11.234l-.991 1.123-.141-.379c-1.587-4.261-.294-9.034 3.244-11.978zm311.127 502.566c3.377 2.425 5.148 6.435 4.633 10.491l-.186 1.47-.333-.239c-3.745-2.69-5.384-7.361-4.114-11.722zm200.336 133.991c2.169-.194 4.276.767 5.513 2.514l.448.633-.213.019c-2.407.214-4.697-1.047-5.748-3.166zm105.83 55.616c2.09.599 3.686 2.248 4.175 4.316l.178.749-.206-.059c-2.318-.664-3.971-2.658-4.147-5.006zm247.694-85.535c-2.999 2.858-7.346 3.918-11.373 2.773l-1.46-.415.295-.281c3.327-3.17 8.323-3.998 12.538-2.077zM505.254 592.736c4.016 0 7.542 2.602 8.629 6.368l2.236 7.745c-4.725 0-8.78-3.278-9.651-7.802l-1.214-6.311z" fill="#080808"/><path d="M505.254 592.736c4.016 0 7.542 2.602 8.629 6.368l2.236 7.745c-4.725 0-8.78-3.278-9.651-7.802l-1.214-6.311zm368.813 164.758a8.554 8.554 0 01-.507 10.535l-5.289 6.178c-2.674-3.795-2.194-8.907 1.142-12.167l4.654-4.546zM265.589 468.182a8.555 8.555 0 01-.506 10.535l-5.29 6.178c-2.674-3.795-2.194-8.907 1.143-12.167l4.653-4.546zM171.42 312.941a8.555 8.555 0 01-.506 10.535l-5.29 6.178c-2.674-3.795-2.194-8.907 1.143-12.166l4.653-4.547zm-65.194-88.204a8.552 8.552 0 01-.507 10.534l-5.289 6.179c-2.674-3.795-2.194-8.907 1.142-12.167l4.654-4.546zm-43.462-77.621a8.555 8.555 0 01-.507 10.535l-5.29 6.178c-2.673-3.795-2.194-8.907 1.143-12.166l4.654-4.547zm319.701 496.087c3.726 1.458 6.003 5.153 5.571 9.042l-.888 7.999c-4.384-1.716-6.893-6.23-5.971-10.744l1.288-6.297zM577.19 765.591c1.963-.687 4.155-.018 5.365 1.636l2.488 3.402c-2.309.808-4.882-.101-6.122-2.162l-1.731-2.876zm105.542 59.159c2.084.066 3.869 1.474 4.369 3.446l1.027 4.055c-2.452-.077-4.5-1.844-4.874-4.206l-.522-3.295zm165.21-97.354c4.01-.224 7.683 2.177 8.99 5.876l2.688 7.607c-4.717.264-8.958-2.783-10.094-7.251l-1.584-6.232zM239.465 438.084c4.009-.224 7.683 2.177 8.99 5.876l2.688 7.607c-4.718.264-8.959-2.783-10.094-7.251l-1.584-6.232zm-94.169-155.24c4.009-.224 7.683 2.177 8.99 5.876l2.688 7.607c-4.718.264-8.959-2.783-10.095-7.251l-1.583-6.232zm-65.194-88.205c4.01-.224 7.682 2.177 8.99 5.876l2.688 7.607c-4.718.264-8.959-2.783-10.095-7.251l-1.584-6.232zm-43.463-77.62c4.01-.224 7.683 2.176 8.99 5.876l2.688 7.607c-4.717.264-8.959-2.783-10.094-7.251l-1.584-6.232zm306.957 515.236a9.154 9.154 0 0110.826.037l6.565 4.881c-3.777 2.766-9.04 2.52-12.527-.586l-4.864-4.332zM558.23 774.404c.413-1.991 2.135-3.471 4.215-3.623l4.276-.313c-.486 2.343-2.616 4.016-5.069 3.983l-3.422-.047zm103.543 51.739c1.136-1.703 3.297-2.462 5.288-1.857l4.093 1.243c-1.337 2.004-3.95 2.796-6.218 1.885l-3.163-1.271zm263.435-112.054c1.868 3.464 1.144 7.715-1.773 10.404l-5.998 5.53c-2.198-4.075-1.105-9.096 2.602-11.951l5.169-3.983zM519.741 599.793c1.362 0 2.581.822 3.059 2.064l.563 1.464c-1.596 0-2.988-1.059-3.375-2.567l-.247-.961z" fill="#080808"/><path d="M519.741 599.793c1.362 0 2.581.822 3.059 2.064l.563 1.464c-1.596 0-2.988-1.059-3.375-2.567l-.247-.961zm356.552 173.33a3.115 3.115 0 01-.017 3.625l-.92 1.28a3.32 3.32 0 01.263-4.163l.674-.742zM267.815 483.811a3.113 3.113 0 01-.017 3.625l-.92 1.28a3.32 3.32 0 01.263-4.163l.674-.742zM173.646 328.57a3.115 3.115 0 01-.017 3.625l-.92 1.281a3.322 3.322 0 01.263-4.164l.674-.742zm-65.194-88.204a3.113 3.113 0 01-.017 3.624l-.92 1.281a3.32 3.32 0 01.263-4.163l.674-.742zM64.99 162.745a3.115 3.115 0 01-.018 3.625l-.92 1.281a3.322 3.322 0 01.263-4.164l.674-.742zm328.219 492.266c1.263.494 2.08 1.7 2.048 3.026l-.037 1.563c-1.481-.58-2.368-2.067-2.15-3.608l.139-.981zm192.332 111.551a1.726 1.726 0 011.867.486l.539.618a1.832 1.832 0 01-2.112-.677l-.294-.427zm104.588 62.086a1.691 1.691 0 011.552 1.122l.267.768c-.829-.026-1.532-.598-1.707-1.387l-.112-.503zm172.692-95.016c1.36-.076 2.625.677 3.175 1.891l.649 1.429c-1.594.089-3.046-.89-3.521-2.374l-.303-.946zM254.344 444.32c1.359-.076 2.624.678 3.175 1.891l.648 1.429c-1.594.09-3.045-.889-3.521-2.374l-.302-.946zm-94.17-155.24c1.36-.076 2.625.677 3.175 1.89l.649 1.43c-1.594.089-3.045-.89-3.521-2.375l-.303-.945zM94.98 200.875c1.36-.076 2.625.677 3.175 1.89l.649 1.43c-1.594.089-3.046-.89-3.52-2.374l-.303-.946zm-43.462-77.62c1.36-.076 2.624.677 3.175 1.89l.648 1.43c-1.594.089-3.045-.89-3.52-2.375l-.303-.945zm308.01 506.157a3.338 3.338 0 013.719-.14l1.353.84a3.553 3.553 0 01-4.282-.076l-.79-.624zm203.879 138.535a1.678 1.678 0 011.393-1.304l.822-.129c-.164.792-.86 1.373-1.688 1.41l-.527.023zm105.619 54.049a1.716 1.716 0 011.788-.712l.814.175a1.832 1.832 0 01-2.103.705l-.499-.168zm256.508-92.131a3.116 3.116 0 01-.454 3.597l-1.068 1.167a3.329 3.329 0 01.763-4.105l.759-.659zM512.497 610.377c1.362 0 2.581.823 3.059 2.065l.563 1.463c-1.596 0-2.988-1.058-3.375-2.567l-.247-.961z" fill="#080808"/><path d="M512.497 610.377c1.362 0 2.581.823 3.059 2.065l.563 1.463c-1.596 0-2.988-1.058-3.375-2.567l-.247-.961zm350.738 162.917a3.115 3.115 0 01-.017 3.625l-.92 1.281a3.322 3.322 0 01.263-4.164l.674-.742zM254.757 483.982a3.115 3.115 0 01-.016 3.625l-.92 1.281a3.32 3.32 0 01.263-4.164l.673-.742zm-94.169-155.24a3.113 3.113 0 01-.017 3.625l-.919 1.28a3.32 3.32 0 01.262-4.163l.674-.742zm-65.194-88.205a3.115 3.115 0 01-.017 3.625l-.92 1.281a3.322 3.322 0 01.263-4.164l.674-.742zm-43.463-77.62a3.115 3.115 0 01-.016 3.625l-.92 1.28a3.32 3.32 0 01.263-4.163l.673-.742zm330.507 499.286c1.263.494 2.079 1.7 2.048 3.026l-.037 1.563c-1.482-.58-2.368-2.067-2.15-3.607l.139-.982zm201.47 110.77a1.726 1.726 0 011.867.486l.539.619a1.833 1.833 0 01-2.112-.678l-.294-.427zm102.279 61.05a1.691 1.691 0 011.552 1.122l.267.768c-.828-.026-1.532-.598-1.707-1.387l-.112-.503zm170.025-89.419c1.359-.076 2.624.678 3.175 1.891l.648 1.429c-1.593.089-3.045-.889-3.52-2.374l-.303-.946zM247.734 455.292c1.36-.076 2.625.678 3.175 1.891l.649 1.43c-1.594.089-3.046-.89-3.521-2.375l-.303-.946zm-94.169-155.24c1.36-.076 2.625.677 3.175 1.891l.649 1.429c-1.594.089-3.046-.89-3.521-2.374l-.303-.946zm-65.194-88.205c1.36-.076 2.625.677 3.175 1.891l.649 1.429c-1.594.089-3.046-.89-3.521-2.374l-.303-.946zm-43.463-77.62c1.36-.076 2.625.677 3.175 1.89l.649 1.43c-1.594.089-3.045-.89-3.52-2.374l-.304-.946zm315.361 507.886a3.338 3.338 0 013.719-.14l1.353.84a3.554 3.554 0 01-4.282-.076l-.79-.624zm207.922 130.514a1.678 1.678 0 011.394-1.304l.822-.129c-.164.792-.86 1.373-1.688 1.41l-.528.023zm103.515 55.437a1.718 1.718 0 011.788-.713l.813.176a1.832 1.832 0 01-2.102.704l-.499-.167zm240.839-99.523a3.116 3.116 0 01-.453 3.597l-1.068 1.167a3.327 3.327 0 01.763-4.105l.758-.659zm-226.197-33.487c4.195 0 8.064 2.204 10.121 5.766l.745 1.29h-.413c-4.653 0-8.819-2.812-10.453-7.056zm97.791 17.641c4.195 0 8.064 2.204 10.121 5.766l.745 1.29h-.413c-4.653 0-8.819-2.812-10.453-7.056zm147.734 21.361c.488-2.378 1.945-4.462 4.037-5.776l11.214-7.041-7.02 11.129c-10.932 17.332-24.859 32.691-41.165 45.399l-2.521 1.964a23.548 23.548 0 015.86-9.238l13.699-13.344a18.46 18.46 0 003.546-4.792l1.573-3.065a5.58 5.58 0 011.931-2.131l2.716-1.764a1.908 1.908 0 00.676-2.478c-.542-1.055.001-2.332 1.15-2.705l1.438-.467a3.249 3.249 0 002.195-2.422l.671-3.269zm-227.415-28.418c7.041 0 13.585 3.534 17.317 9.35l.792 1.235h-1.811c-7.128 0-13.557-4.175-16.298-10.585zm64.421 23.613c5.322-1.299 10.924.636 14.216 4.912l-2.383 1.548c-5.224 3.392-11.938 3.711-17.476.831a17.064 17.064 0 01-2.62-1.681l-7.824-6.098 7.466 1.212a16.96 16.96 0 006.742-.265l1.879-.459zm-115.128-37.725c2.723 0 5.161 1.645 6.117 4.129l1.127 2.927c-3.193 0-5.976-2.117-6.75-5.134l-.494-1.922zm191.713 19.912c1.778.578 2.31 2.775.986 4.066a2.558 2.558 0 01-1.783.719h-1.599c-2.747 0-5.186 1.712-6.055 4.251l-.356 1.041c-1.082 3.161-4.118 5.293-7.538 5.293h-4.277c-1.766 0-3.515.328-5.155.967l-3.063 1.193c-2.241.873-4.017 2.603-4.914 4.787l-1.674 4.079a2.162 2.162 0 01-2.006 1.322c-1.192 0-2.159-.942-2.159-2.104v-8.48l.694-5.415c.712-5.544 3.801-10.566 8.468-13.813a20.786 20.786 0 0111.843-3.706h1.632c2.952 0 5.837.852 8.294 2.447l.937.609a6.622 6.622 0 001.559.742l6.166 2.002zM333.738 475.371c3.93-1.276 7.988 1.573 7.988 5.608v1.308a6.77 6.77 0 01-2.061 4.847l-.534.52c-1.722 1.677-4.304 2.194-6.565 1.313-2.992-1.166-4.532-4.402-3.513-7.38l.847-2.477c.604-1.765 2.026-3.15 3.838-3.739zm145.761 95.372c1.665-3.865 6.306-5.591 10.191-3.79a7.451 7.451 0 013.505 3.347l7.007 13.651a9.822 9.822 0 011.051 3.654l.308 3.594c.563 6.585-6.721 11.057-12.576 7.721a8.23 8.23 0 01-3.517-3.938l-6.669-15.786a8.757 8.757 0 01.024-6.883l.676-1.57zm-32.869-.584c-1.617 3.674.19 7.923 4 9.408a7.27 7.27 0 013.365 2.659l.462.676a9.968 9.968 0 005.152 3.834l5.75 1.867c4.7 1.525 8.657 4.685 11.114 8.875l1.061 1.809a13.244 13.244 0 011.692 8.633c-.703 4.794-3.982 8.858-8.598 10.657l-1.593.621c-3.337 1.083-7.016.263-9.538-2.126l-62.9-59.618-35.768-36.501a18.064 18.064 0 01-3.575-5.232l-9.39-20.909c-.931-2.072.628-4.393 2.95-4.393 1.386 0 2.616.864 3.054 2.144l.416 1.216a4.959 4.959 0 002.531 2.842l8.115 3.953a26.906 26.906 0 017.889 5.822l48.805 52.296a7.268 7.268 0 005.314 2.29c2.523 0 4.861 1.29 6.159 3.397l2.931 4.759c.268.434.657.785 1.122 1.012 1.519.74 3.356-.033 3.844-1.618l3.43-11.137c.67-2.175 2.384-3.896 4.596-4.614l2.895-.94c2.397-.779 4.966.595 5.579 2.983.411 1.603-.174 3.292-1.498 4.324l-4.765 3.713a10.562 10.562 0 00-3.184 4.077l-1.417 3.221z" fill="#080808"/><path d="M626.587 672.121a5.94 5.94 0 011.811 4.258v.772c0 2.396-1.118 4.661-3.038 6.158l-3.073 2.394a5.264 5.264 0 01-6.081.257l-.457-.297a3.994 3.994 0 01-1.839-3.346v-.385c0-1.619-1.131-3.031-2.743-3.423l-.108-.027c-2.231-.543-4.392 1.101-4.392 3.341v.774c0 1.847-1.783 3.202-3.622 2.754-1.84-.448-3.622.908-3.622 2.755v2.307c0 2.563 2.133 4.641 4.764 4.641h4.601c.961 0 1.882.372 2.561 1.033a3.69 3.69 0 005.122 0 3.677 3.677 0 012.562-1.033h4.993c.48 0 .941.186 1.281.516l1.28 1.248c.668.651 1.811.19 1.811-.731 0-.571.475-1.033 1.061-1.033h2.478c1.183 0 2.288.576 2.944 1.535l1.157 1.69a7.41 7.41 0 003.835 2.853l1.645.534c.893.29 1.68.825 2.268 1.54l1.818 2.215c1.824 2.22.201 5.51-2.718 5.51h-7.104c-3.508 0-6.812-1.609-8.917-4.343l-.603-.784a7.915 7.915 0 00-3.835-2.692l-3.058-.994c-2.899-.941-5.988.806-6.587 3.724-.411 2.004.484 4.048 2.254 5.145l13.544 8.396a18.438 18.438 0 007.486 2.625l7.433.905c1.86.227 3.703-.535 4.827-1.996 1.908-2.478 5.625-2.735 7.873-.545l.575.559c.395.386.706.845.914 1.351l.473 1.152c1.119 2.725-1.547 5.479-4.406 4.551-1.956-.635-4.053.486-4.553 2.435l-.124.483c-.446 1.74-2.051 2.961-3.893 2.961h-.416a4.611 4.611 0 01-3.215-1.297l-1.924-1.875a11.205 11.205 0 00-5.164-2.848l-1.203-.293a15.77 15.77 0 01-5.573-2.584l-1.858-1.357a27.264 27.264 0 00-6.194-3.391l-5.728-2.232-10.971-6.107a14.462 14.462 0 00-3.61-1.413l-2.092-.51a8.658 8.658 0 01-5.104-3.503 8.64 8.64 0 00-4.825-3.431l-5.985-1.666a25.913 25.913 0 01-6.808-3l-19.566-12.253a3.929 3.929 0 00-4.806.503 3.916 3.916 0 01-3.412 1.039l-10.907-1.932a25.279 25.279 0 01-12.321-5.917l-48.038-42.409c-1.973-1.741-1.154-4.921 1.429-5.55a3.34 3.34 0 001.909-1.271l3.292-4.524a4.813 4.813 0 013.896-1.962c2.637 0 4.775-2.083 4.775-4.652v-15.857c0-2.088 1.737-3.779 3.88-3.779 1.93 0 3.567 1.382 3.84 3.244l.693 4.729c.406 2.768 2.071 5.211 4.533 6.649l.867.508c2.743 1.603 4.69 4.233 5.383 7.275l1.779 7.795c.464 2.033 2.067 3.637 4.141 4.142l.556.135c1.981.482 4.059-.3 5.192-1.955 1.055-1.542 2.939-2.337 4.815-2.032l13.717 2.227a26.787 26.787 0 019.221 3.307l2.581 1.508a12.909 12.909 0 013.715 3.264l.519.675c2.13 2.767 5.474 4.395 9.024 4.395 2.227 0 4.404.642 6.256 1.845l.743.483a14.43 14.43 0 003.984 1.795l5.81 1.617a53.783 53.783 0 019.132 3.46l2.843 1.385 10.367 5.77c1.428.795 2.31 2.275 2.31 3.877 0 2.466 2.052 4.465 4.583 4.465h10.965c1.64 0 3.213.635 4.372 1.765zM168.418 326.358c2 0 3.622-1.58 3.622-3.529v-2.955c0-2.265 1.885-4.101 4.209-4.101 1.812 0 3.421 1.13 3.994 2.804l4.949 14.463c.855 2.499 2.694 4.564 5.112 5.742a10.038 10.038 0 014.907 5.194l1.205 2.934c.645 1.573.977 3.251.977 4.945v11.132c0 1.205 1.002 2.181 2.238 2.181.848 0 1.623.466 2.003 1.205l1.367 2.664c1.028 2.002 2.977 3.405 5.245 3.773l4.329.703a12.337 12.337 0 015.302 2.21l2.817 2.058a4.955 4.955 0 012.052 3.998v4.35c0 1.716 1.855 2.833 3.431 2.065.127-.062.248-.135.362-.218l3.513-2.566a13.58 13.58 0 018.01-2.601h3.171c2.051 0 3.99.908 5.272 2.468l3.224 3.926c1.025 1.249.608 3.101-.861 3.816l-.067.033a2.315 2.315 0 00-1.052 1.025c-.719 1.399-2.633 1.702-3.769.596l-2.459-2.395c-1.479-1.441-3.738-1.798-5.609-.887l-.086.042a5.03 5.03 0 00-.763.459l-4.679 3.419c-1.277.933-1.686 2.621-.972 4.012l1.057 2.061c.612 1.192-.277 2.594-1.645 2.594h-.459c-1.683 0-2.344 2.127-.943 3.036.473.307.757.825.757 1.379v3.832c0 4.027-3.661 7.12-7.754 6.551-2.931-.408-5.253-2.618-5.74-5.463l-.081-.475c-.527-3.077-3.259-5.332-6.461-5.332-2.191 0-4.236 1.066-5.451 2.842l-.58.848c-2.606 3.808-7.888 4.837-11.797 2.298l-3.788-2.46-23.986-18.359a10.081 10.081 0 00-3.016-1.581c-6.878-2.234-13.834 3.183-13.113 10.211l.134 1.3c.093.912.308 1.807.638 2.664l3.959 10.286c.646 1.677.976 3.453.976 5.244v9.537c0 2.98 2.48 5.396 5.54 5.396 2.146 0 4.098 1.207 5.012 3.098l9.621 19.916a40.147 40.147 0 009.155 12.235l16.956 15.416a29.825 29.825 0 0010.109 6.036l9.927 3.516c2.705.959 4.776 3.123 5.566 5.819l.281.955c1.164 3.97-1.088 8.13-5.11 9.436l-2.086.677a3.514 3.514 0 01-2.988-.394c-1.954-1.268-4.631-.285-5.201 1.934-.377 1.471-1.735 2.504-3.292 2.504h-3.583c-2.865 0-5.51-1.495-6.931-3.918l-3.731-6.359c-.681-1.162-2.176-1.603-3.405-1.005a2.517 2.517 0 00-1.432 2.256v1.227c0 4.287-5.564 6.153-8.273 2.775l-32.202-40.152c-3.109-3.877-4.798-8.655-4.798-13.575v-4.374c0-8.22-2.991-16.174-8.442-22.45l-9.616-11.069a39.297 39.297 0 01-3.391-4.528l-32.29-50.327c-1.098-1.712-3.665-1.689-4.73.042-1.22 1.979-4.261 1.654-5.01-.536l-5.7-16.658c-.646-1.885 1.04-3.746 3.04-3.356 2.017.393 3.708-1.501 3.028-3.392l-9.509-26.466a12.508 12.508 0 01.203-8.995l1.22-2.971a3.985 3.985 0 00.084-2.808c-.732-2.139-3.105-3.295-5.301-2.582l-.554.18a2.765 2.765 0 00-1.43 1.064c-1.272 1.857-4.175 1.497-4.927-.611l-9.624-26.953c-1.205-3.374 2.174-6.587 5.608-5.333l2.008.734c1.858.678 3.84-.66 3.84-2.593a2.74 2.74 0 00-1.023-2.127l-12.433-10.094c-5.407-4.389-9.432-10.174-11.614-16.692l-23.319-69.66a4.433 4.433 0 01.068-3.004l1.336-3.472c1.137-2.953 5.475-2.811 6.405.21.893 2.899 4.99 3.189 6.303.447l5.358-11.183c1.954-4.079 6.976-5.783 11.109-3.771l6.847 3.335a15.543 15.543 0 016.026 5.183l4.937 7.214 6.236 7.592c.643.784.925 1.791.78 2.784l-.382 2.601c-.385 2.624 2.881 4.215 4.805 2.341a2.886 2.886 0 012.898-.667l2.486.808a3.94 3.94 0 012.039 1.516c1.445 2.112.433 4.985-2.039 5.787l-2.1.682c-2.303.748-3.857 2.849-3.857 5.214v5.447c0 2.599 2.162 4.705 4.83 4.705h.276a4.313 4.313 0 003.42-1.666c1.907-2.477 5.823-2.133 7.244.636l1.648 3.21c.454.887.691 1.864.691 2.855v8.543c0 2.244 1.867 4.063 4.17 4.063h.353c.593 0 1.174-.172 1.668-.492 1.998-1.298 4.675.097 4.675 2.437v7.242c0 .922-.192 1.834-.565 2.681l-3.715 8.444c-.676 1.538-.163 3.344 1.211 4.348 2.204 1.61 5.42.406 5.873-2.241l.405-2.366c.205-1.199 1.543-1.862 2.658-1.319a1.79 1.79 0 01.954 2.112l-1.673 5.703c-.903 3.081-3.794 5.204-7.082 5.204-3.171 0-5.986 1.977-6.989 4.907l-1.193 3.486a5.448 5.448 0 00.311 4.259c1.415 2.755 4.855 3.872 7.683 2.495l.602-.293a6.365 6.365 0 002.463-2.118l1.258-1.838c3.097-4.527 8.552-6.99 14.103-6.389 4.56.494 8.657 2.994 11.088 6.784l2.184 3.404a9.743 9.743 0 01.454 9.71 9.523 9.523 0 00-1.055 4.335c0 3.95 2.469 7.502 6.234 8.969l2.821 1.1 11.471 6.385a4.509 4.509 0 011.826 1.881 4.367 4.367 0 01-.286 4.475l-1.225 1.79a8.056 8.056 0 00-1.246 2.931l-.765 3.726a17.424 17.424 0 000 7.018l.74 3.606a5.707 5.707 0 001.613 2.935l1.501 1.463a3.846 3.846 0 005.338 0 3.634 3.634 0 001.087-2.235l1.33-12.956c.206-2.007 1.734-3.649 3.765-4.044l.758-.148c2.524-.492 4.879 1.389 4.879 3.896v2.21c0 .974-.811 1.764-1.811 1.764-1 0-1.811.79-1.811 1.764v8.82c0 1.949 1.622 3.529 3.622 3.529zM823.98 763.854c2 0 3.622 1.579 3.622 3.528v7.001c0 4.063-3.106 7.49-7.244 7.994l-3.031.369c-2.407.293-4.213 2.286-4.213 4.648 0 2.588-2.153 4.685-4.809 4.685h-.313a5.197 5.197 0 01-3.622-1.461l-1.207-1.176a3.005 3.005 0 01-.914-2.151c0-2.021-1.986-3.48-3.98-2.925l-3.762 1.047c-2.85.793-4.695 3.474-4.368 6.342l.386 3.386c.507 4.445-2.094 8.673-6.357 10.334l-9.806 3.821a3.756 3.756 0 00-1.739 1.374c-1.448 2.116-.307 4.991 2.226 5.608l1.62.395c.283.069.574.103.866.103 3.179 0 4.771 3.745 2.523 5.935l-.488.476c-.436.424-.97.741-1.557.923l-38.947 12.072-2.448.596a13.688 13.688 0 01-9.218-.986l-1.275-.621a7.478 7.478 0 00-3.276-.754h-4.765c-1.414 0-2.561-1.117-2.561-2.494 0-.662.27-1.297.75-1.764l.311-.303a3.463 3.463 0 000-4.99 3.673 3.673 0 00-2.561-1.033h-12.987c-2.001 0-3.622-1.58-3.622-3.528 0-1.949 1.621-3.529 3.622-3.529h4.168c.838 0 1.67.132 2.464.39l4.233 1.375 5.298 1.29a18.58 18.58 0 013.741 1.348l4.921 2.396c.343.167.621.438.792.773.837 1.629 3.358 1.049 3.358-.773v-1.812c0-.881.55-1.673 1.39-2l2.085-.813c3.004-1.17 4.339-4.591 2.892-7.409l-.657-1.28a6.558 6.558 0 00-.65-1.024l-.815-1.059c-2.24-2.911-6.608-3.213-9.248-.641l-.198.193c-.154.15-.324.285-.505.404l-1.873 1.215c-1.405.913-3.287-.068-3.287-1.713v-1.13c0-1.418-1.76-2.128-2.789-1.125a1.668 1.668 0 01-1.886.298l-4.747-2.312a6.975 6.975 0 00-3.057-.703h-8.133c-1.346 0-2.222-1.38-1.62-2.553a1.817 1.817 0 011.62-.976h5.386c2.792 0 5.47-1.08 7.444-3.003l2.51-2.445a14.752 14.752 0 004.266-8.076l.194-1.131c.521-3.049 2.228-5.784 4.766-7.638l1.73-1.264a5.952 5.952 0 013.51-1.14c3.005 0 5.522 2.218 5.821 5.131l.633 6.174c.349 3.395 3.626 5.756 7.06 5.087a5.917 5.917 0 003.984-2.797l2.6-4.433a9.664 9.664 0 00-.692-10.825 10.073 10.073 0 00-3.576-2.908l-7.797-3.797a4.482 4.482 0 00-1.966-.452c-2.427 0-4.395 1.917-4.395 4.281v.129c0 2.436-2.027 4.41-4.527 4.41h-.981a5.603 5.603 0 01-3.158-.97l-16.687-11.379-6.66-5.189a12.756 12.756 0 00-5.403-2.453l-2.538-.494c-2.214-.432-4.099-1.834-5.109-3.801l-.679-1.323c-.823-1.603-2.505-2.616-4.346-2.616h-4.709c-1.449 0-2.391-1.485-1.743-2.748a1.938 1.938 0 011.27-.992l1.502-.366c2.501-.609 3.779-3.317 2.627-5.562-.813-1.583-2.612-2.44-4.394-2.093l-.469.091c-2.881.561-5.568-1.585-5.568-4.447v-.947c0-3.143 2.785-5.598 5.995-5.286l8.371.816c2.386.232 4.562 1.428 6 3.296 1.947 2.528 5.192 3.768 8.384 3.202l14.482-2.565c.153-.027.309-.04.465-.04 2.142 0 3.364 2.382 2.079 4.051l-1.227 1.594a3.655 3.655 0 01-2.897 1.411h-1.811c-4.001 0-7.244 3.159-7.244 7.056v3.529c0 2.922 2.432 5.292 5.433 5.292h2.382c1.685 0 3.05-1.331 3.05-2.972v-.69c0-.958-.669-1.793-1.623-2.026-1.93-.47-2.218-3.026-.439-3.892l1.481-.721a2.803 2.803 0 011.232-.284h12.932c1.5 0 2.716 1.185 2.716 2.646 0 1.462 1.216 2.647 2.716 2.647 1.501 0 2.717 1.184 2.717 2.646v3.665c0 2.581 1.613 4.902 4.073 5.86l2.976 1.16c1.325.516 2.739.781 4.165.781h25.304c1.835 0 3.323 1.449 3.323 3.237 0 1.999 1.843 3.52 3.868 3.192l3.49-.567c2.177-.353 4.008-1.789 4.828-3.786l1.729-4.21a3.99 3.99 0 011.95-2.065c2.695-1.313 5.866.596 5.866 3.531v.917c0 2.562 2.472 4.442 5.023 3.82a4.117 4.117 0 013.839 1.036l.503.49a5.193 5.193 0 003.622 1.462h1.5c2.001 0 3.622 1.579 3.622 3.528s1.622 3.528 3.622 3.528c2.001 0 3.622-1.579 3.622-3.528v-3.528c0-1.949 1.622-3.528 3.622-3.528zm-1.62 29.014c2.409-1.173 5.242.533 5.242 3.156v4.667c0 1.209.701 2.314 1.811 2.855a3.182 3.182 0 011.811 2.854v3.103c0 3.238-2.262 6.06-5.487 6.846l-5.487 1.336c-1.785.435-3.514-.88-3.514-2.673v-1.347c0-2.418-1.402-4.628-3.622-5.709l-4.375-2.841a4.708 4.708 0 01-1.626-1.795 4.56 4.56 0 01.299-4.672l1.764-2.578c.207-.303.493-.548.827-.711 1.43-.697 3.111.316 3.111 1.873v.972c0 1.489 1.239 2.696 2.767 2.696h.855c2.001 0 3.622-1.58 3.622-3.529v-1.347c0-1.337.775-2.558 2.002-3.156zm-281.352-16.666c1.359 0 2.565.847 2.995 2.103l.255.746a4.09 4.09 0 01-1.033 4.265l-.206.2c-1.854 1.806-4.861 1.806-6.715 0l-3.233-3.15a9.256 9.256 0 00-1.421-1.134l-2.601-1.69a7.058 7.058 0 01-2.848-3.632c-.653-1.908-2.113-3.453-4.011-4.246l-7.693-3.211a10.838 10.838 0 00-4.175-.835h-5.417c-1.903 0-3.542-1.309-3.915-3.127l-.226-1.102c-.45-2.189-3.036-3.233-4.943-1.995a3.117 3.117 0 00-1.433 2.61v.166c0 1.904-1.584 3.448-3.539 3.448h-5.516c-1 0-1.811-.79-1.811-1.764 0-.975.811-1.765 1.811-1.765h2.399c1.812 0 3.421-1.129 3.994-2.804l.665-1.945c.983-2.87-1.211-5.835-4.317-5.835-2.514 0-4.552-1.985-4.552-4.434v-.858c0-2.923-2.432-5.293-5.432-5.293h-.428c-.91 0-1.807.207-2.621.603l-4.769 2.323a5.993 5.993 0 01-2.621.602h-4.049c-1 0-1.811-.789-1.811-1.764 0-.974.811-1.764 1.811-1.764h3.311a5.19 5.19 0 003.622-1.461l3.419-3.331a8.043 8.043 0 015.612-2.264c1.405 0 2.785.363 3.999 1.053l19.878 11.296 23.542 14.112 8.239 5.351c1.641 1.066 2.627 2.86 2.627 4.781v2.67c0 1.698 1.413 3.075 3.157 3.075zm137.501 17.061c.394.384.85.704 1.349.947l1.012.493a3.263 3.263 0 011.856 2.926c0 1.806-1.503 3.271-3.357 3.271h-2.075c-1.001 0-1.811-.79-1.811-1.765 0-.974-.811-1.764-1.811-1.764h-3.552a5.453 5.453 0 00-3.35 1.145l-5.538 4.316a7.604 7.604 0 01-4.671 1.596h-2.953a2.705 2.705 0 00-2.413 1.453c-.609 1.185-.216 2.627.916 3.362l1.871 1.215a2.063 2.063 0 01.731 2.68c-.531 1.035-1.823 1.455-2.885.937l-3.731-1.817a2.794 2.794 0 01-1.59-2.505c0-1.095-.655-2.09-1.676-2.546l-3.163-1.413a8.502 8.502 0 00-6.232-.27l-3.934 1.359c-1.861.643-3.104 2.358-3.104 4.281 0 2.221-1.648 4.116-3.896 4.481l-4.068.66c-1.519.247-2.902-.894-2.902-2.394 0-1.34-1.115-2.427-2.491-2.427h-3.988c-2.649 0-5.032-1.571-6.015-3.967l-.335-.814c-.968-2.358-3.491-3.742-6.063-3.324l-4.527.735c-1.012.164-1.934-.596-1.934-1.596 0-.894.744-1.618 1.661-1.618h3.772c1 0 1.811-.79 1.811-1.765 0-.974-.811-1.764-1.811-1.764h-3.622c-1 0-1.811-.789-1.811-1.764 0-.974.811-1.764 1.811-1.764h5.81a6.82 6.82 0 015.272 2.468l3.53 4.299c.868 1.057.514 2.625-.729 3.23a2.14 2.14 0 00-1.206 1.915c0 1.204 1.002 2.201 2.238 2.201h1.384c2 0 3.621-1.58 3.621-3.528v-7.375c0-4.129-2.395-7.905-6.186-9.751l-.31-.151a11.798 11.798 0 00-1.54-.621l-7.195-2.337c-1.719-.558-2.878-2.125-2.878-3.89 0-2.265 1.885-4.101 4.21-4.101h4.417c2.482 0 4.751 1.366 5.861 3.528 1.109 2.163 3.378 3.529 5.86 3.529h2.297c.585 0 1.157-.169 1.644-.485 1.985-1.289 1.672-4.218-.543-5.081l-1.429-.557c-1.29-.503-1.864-1.972-1.242-3.183a2.382 2.382 0 012.124-1.279h6.395a13 13 0 015.689 1.308l8.073 3.932a33.96 33.96 0 016.894 4.459l2.376 1.984c4.604 3.845 10.469 5.958 16.533 5.958h6.842c2.357 0 4.617.912 6.283 2.535l.424.413z" fill="#080808"/><path d="M266.466 277.888a42.433 42.433 0 019.56 17.805l2.568 10.005a9.28 9.28 0 01.292 2.309v3.912c0 1.209.701 2.314 1.811 2.855a3.182 3.182 0 011.811 2.854v.919c0 1.5.769 2.901 2.05 3.733l1.698 1.102a2.201 2.201 0 01.779 2.858 2.202 2.202 0 00.779 2.859l2.22 1.441a2.31 2.31 0 01.948 2.69c-.566 1.652-2.718 2.146-3.981.915l-2.071-2.017a4.097 4.097 0 01-.933-1.378l-7.847-19.112c-1.75-4.26-4.884-7.845-8.923-10.206a21.424 21.424 0 01-5.02-4.055l-10.717-11.744a22.265 22.265 0 01-2.759-3.742l-4.663-7.95a5.022 5.022 0 01-.138-4.848c1.303-2.538 4.471-3.567 7.077-2.298l7.389 3.599a13.49 13.49 0 014.133 3.111l3.937 4.383zm-47.667-32.874a2.989 2.989 0 011.282-.36l.71-.036c.079-.004.157-.016.233-.036l1.397-.362a.212.212 0 01.266.238.211.211 0 01-.139.16l-1.971.684a3.86 3.86 0 00-.606.27l-.818.453a1.625 1.625 0 01-.3.129l-.605.191a.358.358 0 01-.31-.046.334.334 0 01-.072-.488l.317-.391a.841.841 0 01.248-.207l.368-.199zm.557-5.594a2.5 2.5 0 01.623-1.325l.196-.218a.672.672 0 00.117-.18l.413-.924a.25.25 0 01.453-.003.233.233 0 01.011.172l-.571 1.738c-.093.283-.16.574-.2.87l-.13.959a.804.804 0 01-.042.169l-.176.479a.309.309 0 01-.593-.055l-.14-.874a1.696 1.696 0 01-.004-.508l.043-.3z" fill="#FAC05C"/><path d="M219.933 245.635a2.592 2.592 0 011.102-.986l.268-.126a.684.684 0 00.179-.122l.749-.696c.156-.145.414-.041.419.169a.236.236 0 01-.059.163l-1.218 1.385c-.199.227-.376.47-.531.727l-.501.835a.85.85 0 01-.107.14l-.352.375a.314.314 0 01-.428.024.296.296 0 01-.097-.299l.219-.858a1.72 1.72 0 01.198-.47l.159-.261zm.151-2.732a2.522 2.522 0 01-.724-1.276l-.063-.283a.657.657 0 00-.079-.199l-.518-.872c-.108-.182.057-.402.267-.358.06.013.113.047.149.095l1.095 1.48c.179.241.379.467.599.674l.715.671a.858.858 0 01.115.134l.291.422a.294.294 0 01-.077.411.314.314 0 01-.321.021l-.805-.41a1.76 1.76 0 01-.422-.298l-.222-.212z" fill="#FAC05C"/><path d="M219.908 242.14c.254-.43.633-.777 1.089-.999l.266-.13a.725.725 0 00.178-.123l.739-.706c.154-.147.414-.046.422.163a.241.241 0 01-.058.164l-1.2 1.401a5.01 5.01 0 00-.521.732l-.491.842a.79.79 0 01-.104.141l-.347.379a.314.314 0 01-.428.03.294.294 0 01-.101-.298l.208-.861c.04-.166.104-.325.192-.472l.156-.263z" fill="#FAC05C"/><path d="M218.513 240.036a5.266 5.266 0 01-.575-2.338l-.015-1.338a2.088 2.088 0 00-.049-.424l-.583-2.608c-.061-.274.189-.517.47-.458.14.029.253.131.295.264l1.144 3.673c.119.381.271.751.456 1.107l.794 1.533c.094.181.169.371.224.568l.317 1.129a.622.622 0 01-.107.547.663.663 0 01-.951.1l-.698-.591a1.493 1.493 0 01-.364-.458l-.358-.706z" fill="#FAC05C"/><path d="M219.678 244.681a3.6 3.6 0 01-.539-1.711l-.039-.76a1.33 1.33 0 00-.052-.299l-.491-1.647c-.062-.21.128-.408.347-.362.098.02.178.087.214.177l.956 2.396c.114.287.255.562.42.824l.643 1.016c.068.107.123.22.166.339l.264.726a.432.432 0 01-.083.436.461.461 0 01-.618.065l-.618-.453a1.263 1.263 0 01-.323-.349l-.247-.398z" fill="#FAC05C"/><path d="M220.084 246.431a2.52 2.52 0 01-.724-1.275l-.063-.284a.662.662 0 00-.079-.198l-.518-.873c-.108-.182.057-.402.267-.357.06.012.113.046.149.094l1.095 1.48c.179.242.379.467.599.674l.715.672c.043.04.082.085.115.133l.291.422a.294.294 0 01-.077.411.316.316 0 01-.321.022l-.805-.41a1.793 1.793 0 01-.422-.299l-.222-.212zm0-3.528a2.522 2.522 0 01-.724-1.276l-.063-.283a.657.657 0 00-.079-.199l-.518-.872c-.108-.182.057-.402.267-.358.06.013.113.047.149.095l1.095 1.48c.179.241.379.467.599.674l.715.671a.858.858 0 01.115.134l.291.422a.294.294 0 01-.077.411.314.314 0 01-.321.021l-.805-.41a1.76 1.76 0 01-.422-.298l-.222-.212zm82.344 99.214a45.45 45.45 0 0111.902 12.856l.775 1.257 9.054 12.349-6.736-3.281c-5.031-2.451-9.111-6.425-11.627-11.327a24.892 24.892 0 01-2.24-6.359l-1.128-5.495zm95.256 108.701a13.912 13.912 0 014.637 2.209l.832.608a18.78 18.78 0 016.311 8.021l.09.22a19.52 19.52 0 004.445 6.567l.482.469a22.913 22.913 0 013.519 4.39l2.087 3.389a12.494 12.494 0 011.863 6.554l-.135-.044a70.355 70.355 0 01-19.779-10.095l-1.488-1.088a50.093 50.093 0 01-7.254-6.461l-12.172-13.174a3.082 3.082 0 01-.823-2.091c0-2.062 2.012-3.559 4.053-3.016l13.332 3.542zm-75.336-66.362c5.701 0 11.068 2.614 14.488 7.056h-2.767c-4.963 0-9.501-2.732-11.721-7.056zm182.906 155.24c4.195 0 8.064 2.204 10.12 5.766l.746 1.29h-.413c-4.654 0-8.819-2.812-10.453-7.056zM331.403 395.04c2.661 0 4.98 1.764 5.626 4.279l1.618 6.306c-3.135 0-5.811-2.208-6.326-5.221l-.918-5.364zm181.095 151.712c1.312 0 2.439.911 2.681 2.168l.941 4.889c-1.552 0-2.861-1.126-3.054-2.626l-.568-4.431zm21.731-7.056c1.313 0 2.439.911 2.681 2.167l.941 4.889c-1.552 0-2.861-1.125-3.053-2.625l-.569-4.431zM346.993 390.834c3.571.883 6.045 4.05 5.964 7.639l-.232 10.263c-4.213-1.04-7.016-4.92-6.599-9.133l.867-8.769zm174.34 154.138c2.067.511 3.499 2.345 3.452 4.422l-.134 5.942c-2.439-.602-4.061-2.848-3.82-5.288l.502-5.076zm-76.381-47.614c1.487 0 2.892.658 3.821 1.788l5.774 7.032a45.83 45.83 0 0013.198 11.595l1.29.754c-6.898 1.12-13.955-.744-19.328-5.106l-2.403-1.951-4.829-3.528a5.827 5.827 0 01-2.415-4.704v-1.114c0-2.633 2.19-4.766 4.892-4.766z" fill="#FAC05C"/></g></svg>