<svg width="1082" height="877" fill="none" xmlns="http://www.w3.org/2000/svg"><g opacity=".2"><path d="M520.702 360.831A181.085 181.085 0 00496 347.363l-92.159-41.313-150.369-68.062a140.94 140.94 0 00-45.36-11.962l-15.366-1.397a80.909 80.909 0 00-58.116 17.596l-47.705 38.472-41.136 30.471a29.265 29.265 0 01-17.416 5.747h-.479A27.893 27.893 0 010 289.021v-2.108c0-4.106.784-8.175 2.309-11.988l10.94-27.35a181.132 181.132 0 0111.418-23.479l13.363-23.081 5.782-8.096a111.402 111.402 0 0130.133-28.778l3.203-2.073a83.93 83.93 0 0120.909-9.752 83.866 83.866 0 0023.087-11.21l.73-.505a89.647 89.647 0 0020.938-20.251l16.231-21.85a181.098 181.098 0 0153.975-48.347l43.442-25.397A181.093 181.093 0 01347.858 0h49.03c23.721 0 47.21 4.66 69.135 13.716l133.4 55.1 98.279 52.92a181.116 181.116 0 0135.783 25.287l105.805 95.93a181.18 181.18 0 0124.552 27.281l130.125 177.987a181.171 181.171 0 0125.473 49.191l52.66 156.712a181.112 181.112 0 018.39 77.154l-.16 1.443a181.061 181.061 0 001.87 51.859l9.8 53.888-70.63 38.03-33.243-38.787a160.416 160.416 0 00-50.057-39.084l-38.03-23.542-5.638-4.229a181.106 181.106 0 01-49.284-56.275l-16.181-28.845a181.103 181.103 0 00-15.289-22.96L711.701 532.418l-71.528-84.666a181.06 181.06 0 00-39.556-34.913l-79.915-52.008z" fill="#FAC05C"/><path d="M555.96 349.141L483.522 309.3l-115.9-47.087-58.584-25.536a181.09 181.09 0 00-24.717-8.706l-27.167-7.409" stroke="#080808" stroke-width="2" stroke-linecap="round"/><path d="M204.637 68.815c25.353-25.353 59.761-28.975 59.761-28.975 10.327-15.266 40.737-24.809 59.28-29.376 9.907-2.44 20.097-3.222 30.3-3.222h39.546a181.09 181.09 0 0168.675 13.527l77.463 31.747 106.845 48.896 82.197 50.23a181.184 181.184 0 0128.971 21.984l77.666 72.311a181.106 181.106 0 0124.956 28.69l52.419 74.885 61.573 79.681 31.751 54.852a180.891 180.891 0 0113.58 29.138l25.3 69.941 15.87 66.602" stroke="#000" stroke-width="1.5" stroke-linecap="round"/><path d="M17.38 298.923a6.493 6.493 0 01.38-11.041l3.33-1.903c3.225-1.843 4.105-6.096 1.877-9.068a6.178 6.178 0 01-1.236-3.706v-3.865c0-1.971.928-3.827 2.505-5.01l.782-.586a5.228 5.228 0 001.213-7.083 5.23 5.23 0 01-.878-2.901v-2.038c0-2.362.7-4.671 2.01-6.636l.439-.66a14.583 14.583 0 012.798-3.113l1.617-1.348a29.096 29.096 0 009.776-16.041l.188-.843a31.628 31.628 0 014.559-10.683l2.562-3.843a14.615 14.615 0 002.019-4.564 14.616 14.616 0 015.05-7.869l10.305-8.245a53.765 53.765 0 018.423-5.528l22.418-11.868a56.197 56.197 0 007.423-4.708l9.452-7.089a7.727 7.727 0 013.369-1.442l1.269-.211c4.049-.675 7.736 2.448 7.736 6.554a6.644 6.644 0 006.644 6.644h15.087a3.622 3.622 0 003.622-3.622 3.622 3.622 0 017.244 0v1.811a5.432 5.432 0 005.433 5.433h7.244c1 0 1.811-.811 1.811-1.811 0-1 .81-1.811 1.811-1.811h10.115a6.18 6.18 0 006.183-6.183V153.93a1.81 1.81 0 013.622 0v9.413a3.264 3.264 0 003.264 3.264c.238 0 .475.026.708.078l7.893 1.754a76.914 76.914 0 0115.548 5.248l12.496 5.768a17.827 17.827 0 007.467 1.64h16.007a1.81 1.81 0 110 3.622H230.96a6.403 6.403 0 00-4.528 10.93l1.666 1.665a9.662 9.662 0 012.541 4.488 9.658 9.658 0 005.566 6.535l18.974 8.132a3.26 3.26 0 011.975 2.996c0 2.379-2.466 3.956-4.625 2.959l-18.917-8.73-24.926-12.463a19.17 19.17 0 00-17.153 0l-3.195 1.597-41.652 21.731-40.646 25.593a107.978 107.978 0 00-15.434 11.78L78.82 272.733a20.514 20.514 0 01-6.24 3.922 20.498 20.498 0 00-9.067 7.118l-2.08 2.911a32.721 32.721 0 01-8.472 8.204l-.633.422a36.412 36.412 0 01-11.36 5.025l-9.883 2.471a13.357 13.357 0 01-10.65-1.845l-3.057-2.038zm271.217-104.535a3.257 3.257 0 01-2.468-3.16c0-2.274 2.272-3.849 4.401-3.05l10.087 3.782 19.92 5.433 9.088 3.029c1.184.395 2.338.873 3.454 1.431a26.364 26.364 0 0011.792 2.784h3.463a41.036 41.036 0 0116.164 3.318l4.935 2.115a38.121 38.121 0 0019.614 5.433h8.308c3.035 0 5.987.984 8.414 2.804l.375.281a12.528 12.528 0 014.367 6.059l.413 1.24a10.357 10.357 0 008.121 6.939 10.356 10.356 0 017.176 4.886l.257.427a11.432 11.432 0 007.924 5.396l10.456 1.743a34.376 34.376 0 0111.408 4.062l7.336 4.192 24.6 11.481a5.937 5.937 0 013.25 3.941 5.94 5.94 0 005.762 4.499h2.607a3.622 3.622 0 110 7.244h-1.811a5.432 5.432 0 00-5.433 5.433c0 3-2.432 5.432-5.433 5.432h-8.149c-2.939 0-5.798.953-8.149 2.717l-2.299 1.724a7.023 7.023 0 00-2.063 2.471l-.681 1.362a5.35 5.35 0 01-9.929-3.863l1.608-5.628a11.83 11.83 0 012.288-4.326l4.988-5.986a10.635 10.635 0 002.466-6.809c0-5.875-4.762-10.637-10.637-10.637h-6.381c-3.084 0-6.111.838-8.755 2.425l-14.068 8.441-5.512 2.756a3.133 3.133 0 00-1.732 2.802c0 2.961-3.728 4.269-5.578 1.956l-.078-.097a3.176 3.176 0 010-3.968l5.384-6.731c.181-.226.386-.431.612-.612l5.574-4.459c1.042-.833.453-2.513-.881-2.513a1.41 1.41 0 01-1.411-1.411v-7.545a8.955 8.955 0 00-7.2-8.782l-8.803-1.761c-1.4-.28-2.766-.71-4.075-1.282l-22.502-9.845a26.067 26.067 0 01-7.981-5.447 26.052 26.052 0 00-13.314-7.126l-15.186-3.037a14.288 14.288 0 01-7.301-3.907l-.124-.124a13.866 13.866 0 00-9.805-4.061h-1.638c-3.333 0-6.472-1.57-8.472-4.236a10.59 10.59 0 00-5.903-3.92l-22.86-5.715zm258.967 156.341a9.563 9.563 0 01-1.391-10.616c.485-.97.801-2.016.936-3.092l.883-7.065a8.257 8.257 0 00-4.501-8.409l-.808-.404a7.075 7.075 0 01.536-12.894l3.346-1.339a4.995 4.995 0 001.343-8.476l-14.348-11.956c-1.98-1.65-1.248-4.849 1.252-5.474a3.152 3.152 0 012.326.32l17.98 10.275a27.221 27.221 0 0013.502 3.585h2.982c3.953 0 7.799 1.282 10.961 3.654a18.28 18.28 0 005.185 2.717l5.182 1.727a51.912 51.912 0 0115.241 8.105l63.69 48.991 37.653 34.231a21.455 21.455 0 004.831 3.31l5.306 2.653a11.827 11.827 0 016.538 10.579c0 3.41 1.472 6.655 4.039 8.901l7.579 6.632a33.988 33.988 0 015.112 5.593l8.962 12.324a31.224 31.224 0 007.927 7.61 31.192 31.192 0 019.888 10.665l11.322 20.128a4.569 4.569 0 003.983 2.329 4.571 4.571 0 014.571 4.571v4.68a9.251 9.251 0 004.491 7.932l2.151 1.29a13.668 13.668 0 014.058 3.731l54.494 75.587 31.971 51.509c.416.671.893 1.303 1.425 1.888l12.002 13.202c2.199 2.419 6.215 1.306 6.856-1.9a3.977 3.977 0 00-.323-2.522l-29.01-59.728a11.828 11.828 0 01-1.19-5.17v-2.354a7.435 7.435 0 00-3.31-6.186 7.435 7.435 0 01-2.929-3.835l-1.477-4.429a21.035 21.035 0 00-4.126-7.203l-7.958-9.095a14.915 14.915 0 00-4.554-3.518 14.913 14.913 0 01-8.243-13.337v-5.116c0-4.813-1.497-9.508-4.285-13.431l-44.61-62.784-16.058-28.548a3.64 3.64 0 01-.36-.904c-.714-2.857-4.346-3.734-6.285-1.517l-4.314 4.93c-1.799 2.055-5.108 1.631-6.329-.812a3.845 3.845 0 01.363-4.025l2.878-3.837a11.608 11.608 0 001.725-3.293l.341-1.022a9.504 9.504 0 00.204-5.308l-1.435-5.739c-.77-3.081 1.56-6.065 4.735-6.065a4.88 4.88 0 014.216 2.422l19.949 34.197a73.72 73.72 0 009.346 12.684l9.721 10.605a39.264 39.264 0 017.508 11.944l6.57 16.424a7.813 7.813 0 005.97 4.805 7.814 7.814 0 016.529 7.707v.214a8.066 8.066 0 003.226 6.453l1.069.802a10.742 10.742 0 013.918 5.766l2.719 9.969a40.839 40.839 0 005.422 11.913l5.184 7.777a11.627 11.627 0 005.357 4.346 11.63 11.63 0 017.034 8.275l1.492 6.718a24.703 24.703 0 002.605 6.785l45.277 80.105 45.257 90.514a126.51 126.51 0 0012.879 20.557l8.193 10.651a29.45 29.45 0 014.002 7.02l1.61 4.025c.328.821.497 1.697.497 2.581V788.5c0 2.4 2.902 3.603 4.6 1.905 1.3-1.301 3.49-.945 4.32.7l.43.866a3.39 3.39 0 004.55 1.517l1.93-.964a5.533 5.533 0 002.9-3.616l2.65-10.605a3.06 3.06 0 00-.52-2.568c-1.65-2.198.23-5.285 2.94-4.833l2.13.355c.8.134 1.54.516 2.12 1.092l2.83 2.834a15.107 15.107 0 003.88 2.796l3.76 1.877a3.88 3.88 0 011.87 2.036c1.22 3.059 5.46 3.31 7.03.418l6.91-12.658 8.31-14.967a11.03 11.03 0 011.82-2.409l2-2.003a5.878 5.878 0 001.55-5.58l-.4-1.587a3.56 3.56 0 011.48-3.818l2.4-1.604a.997.997 0 011.45.385l.38.758c.31.604 1.2.484 1.33-.178.17-.841 1.41-.718 1.41.139v5.572c0 .861.84 1.468 1.66 1.196l3.56-1.185a.92.92 0 00.37-.234c.61-.608 1.65-.177 1.65.684v26.642l9.06 68.816-21.73 12.676-25.36 14.488-27.16-34.408-2.83-4.035a51.943 51.943 0 00-26.146-19.507l-10.866-3.622-34.412-14.748a181.137 181.137 0 01-30.925-16.994l-9.525-6.517a176.731 176.731 0 01-64.555-80.88 176.723 176.723 0 00-30.169-50.039l-78.513-91.598-59.284-78.552a181.093 181.093 0 00-30.073-31.231l-46.662-38.066a83.203 83.203 0 01-9.711-9.33l-32.895-37.187zm-91.206-166.012a11.61 11.61 0 01-10.12-5.919l-.746-1.325h.413c4.654 0 8.819 2.886 10.453 7.244zm130.388 94.169a11.61 11.61 0 01-10.12-5.919l-.746-1.325h.413c4.654 0 8.819 2.886 10.453 7.244z" fill="#080808"/><path d="M586.746 278.886a11.61 11.61 0 01-10.12-5.919l-.746-1.325h.413c4.654 0 8.819 2.886 10.453 7.244zM208.974 105.035a11.612 11.612 0 01-.846-11.693l.67-1.364.234.34a11.163 11.163 0 01-.058 12.717zM817.452 402.03a11.61 11.61 0 01-.847-11.693l.671-1.364.233.34a11.162 11.162 0 01-.057 12.717zm94.169 159.363a11.612 11.612 0 01-.847-11.693l.671-1.364.234.34a11.163 11.163 0 01-.058 12.717zm65.194 90.548a11.614 11.614 0 01-.847-11.694l.671-1.364.234.34a11.165 11.165 0 01-.058 12.718zm43.465 79.681a11.598 11.598 0 01-.85-11.693l.67-1.364.24.34a11.165 11.165 0 01-.06 12.717zM705.486 226.295a11.612 11.612 0 01-7.186-9.264l-.198-1.507.384.154a11.164 11.164 0 017 10.617zM516.716 95.884a6.03 6.03 0 01-5.984-1.116l-.596-.517.201-.072a5.796 5.796 0 016.379 1.705zm-107.63-60.402a6.03 6.03 0 01-5.153-3.24l-.365-.7.215.006a5.797 5.797 0 015.303 3.934zM244.68 140.631a11.611 11.611 0 01-10.443-5.329l-.82-1.28.412-.024a11.166 11.166 0 0110.851 6.633zm608.478 296.995a11.61 11.61 0 01-10.443-5.329l-.82-1.28.412-.024a11.166 11.166 0 0110.851 6.633zm94.169 159.363a11.61 11.61 0 01-10.443-5.329l-.82-1.28.412-.023a11.163 11.163 0 0110.851 6.632zm65.193 90.548c-4.19.24-8.18-1.797-10.44-5.33l-.82-1.28.41-.023a11.157 11.157 0 0110.85 6.633zm43.46 79.681a11.612 11.612 0 01-10.44-5.329l-.82-1.28.41-.024a11.16 11.16 0 0110.85 6.633zM754.934 236.136a11.61 11.61 0 01-11.646 1.352l-1.392-.611.33-.248a11.164 11.164 0 0112.708-.493zM539.299 82.644a6.03 6.03 0 01-4.053 4.542l-.751.243.043-.21a5.795 5.795 0 014.761-4.575zM434.957 31.49a6.03 6.03 0 01-5.441 2.73l-.787-.05.116-.18a5.797 5.797 0 016.112-2.5zM157.173 148.498a11.612 11.612 0 01.533-11.712l.826-1.276.192.365a11.165 11.165 0 01-1.551 12.623zm410.956 105.035a11.613 11.613 0 012.77-11.392l1.056-1.094.118.395a11.164 11.164 0 01-3.944 12.091z" fill="#080808"/><path d="M568.129 253.533a11.613 11.613 0 012.77-11.392l1.056-1.094.118.395a11.164 11.164 0 01-3.944 12.091zM219.342 75.34a11.614 11.614 0 0110.961-4.163l1.499.251-.259.322a11.164 11.164 0 01-12.201 3.59zM827.82 372.335a11.61 11.61 0 0110.96-4.163l1.499.251-.259.322a11.164 11.164 0 01-12.2 3.59zm94.169 159.363a11.61 11.61 0 0110.96-4.163l1.5.252-.26.321a11.164 11.164 0 01-12.2 3.59zm65.194 90.547a11.613 11.613 0 0110.96-4.163l1.5.252-.26.321a11.162 11.162 0 01-12.2 3.59zm43.467 79.682a11.605 11.605 0 0110.96-4.163l1.5.251-.26.322a11.167 11.167 0 01-12.2 3.59zM697.658 195.832a11.612 11.612 0 016.816-9.54l1.388-.621-.038.411a11.165 11.165 0 01-8.166 9.75zM503.17 86.763a6.028 6.028 0 01-.646-6.053l.324-.72.127.173a5.797 5.797 0 01.195 6.6zM399.849 22.015a6.03 6.03 0 011.629-5.866l.566-.55.055.208a5.796 5.796 0 01-2.25 6.208zm-175.208 94.372a11.612 11.612 0 012.112-11.532l.992-1.153.141.389a11.163 11.163 0 01-3.245 12.296zm608.478 296.995a11.61 11.61 0 012.112-11.532l.991-1.153.141.389a11.164 11.164 0 01-3.244 12.296zm94.169 159.363a11.612 11.612 0 012.112-11.532l.991-1.152.141.388a11.164 11.164 0 01-3.244 12.296zm65.194 90.548a11.614 11.614 0 012.112-11.533l.992-1.152.14.388a11.165 11.165 0 01-3.244 12.297zm43.458 79.681a11.605 11.605 0 012.12-11.532l.99-1.152.14.388c1.59 4.374.29 9.274-3.25 12.296zM724.818 227.062a11.61 11.61 0 01-4.633-10.77l.186-1.509.332.245a11.165 11.165 0 014.115 12.034zM524.482 89.513a6.029 6.029 0 01-5.513-2.581l-.448-.65.213-.02a5.796 5.796 0 015.748 3.25zm-105.83-57.094a6.03 6.03 0 01-4.176-4.43l-.177-.769.206.06a5.796 5.796 0 014.147 5.139zm-247.694 87.807a11.611 11.611 0 0111.373-2.847l1.46.426-.296.289a11.163 11.163 0 01-12.537 2.132zM586.746 268.02a8.966 8.966 0 01-8.63-6.537l-2.236-7.951a9.82 9.82 0 019.652 8.01l1.214 6.478z" fill="#080808"/><path d="M586.746 268.02a8.966 8.966 0 01-8.63-6.537l-2.236-7.951a9.82 9.82 0 019.652 8.01l1.214 6.478zM217.933 98.887a8.963 8.963 0 01.507-10.814l5.289-6.343a9.82 9.82 0 01-1.142 12.49l-4.654 4.667zm608.478 296.995a8.964 8.964 0 01.506-10.814l5.29-6.343a9.819 9.819 0 01-1.143 12.49l-4.653 4.667zm94.169 159.363a8.964 8.964 0 01.506-10.814l5.29-6.343a9.819 9.819 0 01-1.143 12.49l-4.653 4.667zm65.194 90.547a8.964 8.964 0 01.506-10.814l5.29-6.342a9.817 9.817 0 01-1.143 12.489l-4.653 4.667zm43.466 79.682a8.956 8.956 0 01.5-10.814l5.29-6.343a9.807 9.807 0 01-1.14 12.49l-4.65 4.667zM709.535 216.213a8.964 8.964 0 01-5.571-9.282l.888-8.211a9.819 9.819 0 015.97 11.029l-1.287 6.464zM514.81 90.575a4.655 4.655 0 01-5.365-1.68l-2.488-3.492a5.098 5.098 0 016.122 2.22l1.731 2.952zM409.268 29.844a4.655 4.655 0 01-4.369-3.537l-1.027-4.163a5.098 5.098 0 014.874 4.318l.522 3.382zm-165.21 99.94a8.967 8.967 0 01-8.991-6.032l-2.688-7.809a9.82 9.82 0 0110.095 7.443l1.584 6.398zm608.477 296.995a8.964 8.964 0 01-8.99-6.032l-2.688-7.809a9.82 9.82 0 0110.094 7.443l1.584 6.398zm94.169 159.363a8.964 8.964 0 01-8.99-6.032l-2.688-7.809a9.818 9.818 0 0110.094 7.444l1.584 6.397zm65.196 90.547a8.965 8.965 0 01-8.99-6.032l-2.69-7.809a9.81 9.81 0 0110.09 7.444l1.59 6.397zm43.46 79.682a8.966 8.966 0 01-8.99-6.032l-2.69-7.809a9.827 9.827 0 0110.1 7.443l1.58 6.398zM748.404 227.452a8.965 8.965 0 01-10.826-.038l-6.565-5.011a9.82 9.82 0 0112.527.602l4.864 4.447zM533.77 81.527a4.655 4.655 0 01-4.215 3.72l-4.276.32a5.1 5.1 0 015.069-4.087l3.422.047zM430.227 28.415a4.654 4.654 0 01-5.288 1.906l-4.093-1.276a5.098 5.098 0 016.218-1.935l3.163 1.305zM166.791 143.444a8.964 8.964 0 011.774-10.68l5.998-5.677a9.82 9.82 0 01-2.602 12.269l-5.17 4.088zm405.468 117.332a3.266 3.266 0 01-3.059-2.119l-.563-1.503a3.48 3.48 0 013.375 2.636l.247.986z" fill="#080808"/><path d="M572.259 260.776a3.266 3.266 0 01-3.059-2.119l-.563-1.503a3.48 3.48 0 013.375 2.636l.247.986zM215.707 82.843a3.267 3.267 0 01.017-3.721l.92-1.315a3.48 3.48 0 01-.263 4.274l-.674.762zm608.478 296.995a3.265 3.265 0 01.017-3.721l.919-1.315a3.48 3.48 0 01-.262 4.274l-.674.762zm94.169 159.363a3.265 3.265 0 01.017-3.721l.92-1.315a3.48 3.48 0 01-.263 4.275l-.674.761zm65.194 90.547a3.265 3.265 0 01.017-3.721l.92-1.314a3.48 3.48 0 01-.263 4.274l-.674.761zm43.462 79.682a3.268 3.268 0 01.02-3.721l.92-1.315c.9 1.317.79 3.079-.27 4.274l-.67.762zM698.791 204.092a3.266 3.266 0 01-2.048-3.107l.037-1.604a3.48 3.48 0 012.15 3.703l-.139 1.008zM506.459 89.578a1.697 1.697 0 01-1.867-.499l-.539-.635c.78-.28 1.651.007 2.112.696l.294.438zM401.871 25.843a1.696 1.696 0 01-1.552-1.151l-.267-.79a1.806 1.806 0 011.707 1.425l.112.516zm-172.692 97.539a3.264 3.264 0 01-3.175-1.94l-.649-1.468a3.48 3.48 0 013.521 2.438l.303.97zm608.477 296.995a3.266 3.266 0 01-3.175-1.94l-.648-1.468a3.479 3.479 0 013.52 2.438l.303.97zm94.169 159.364a3.268 3.268 0 01-3.175-1.941l-.648-1.468a3.48 3.48 0 013.521 2.438l.302.971zm65.194 90.547a3.267 3.267 0 01-3.175-1.941l-.648-1.467a3.479 3.479 0 013.521 2.437l.302.971zm43.461 79.682a3.26 3.26 0 01-3.17-1.941l-.65-1.468a3.486 3.486 0 013.52 2.438l.3.971zm-308.009-519.6a3.266 3.266 0 01-3.718.144l-1.353-.862a3.478 3.478 0 014.281.077l.79.641zM528.593 88.156a1.696 1.696 0 01-1.393 1.339l-.822.132a1.806 1.806 0 011.688-1.447l.527-.024zM422.974 32.671a1.697 1.697 0 01-1.788.732l-.814-.18a1.807 1.807 0 012.103-.723l.499.171zM166.466 127.25a3.264 3.264 0 01.454-3.693l1.068-1.198a3.48 3.48 0 01-.764 4.214l-.758.677zm413.036 122.661a3.267 3.267 0 01-3.058-2.12l-.564-1.502a3.479 3.479 0 013.376 2.635l.246.987z" fill="#080808"/><path d="M579.502 249.911a3.267 3.267 0 01-3.058-2.12l-.564-1.502a3.479 3.479 0 013.376 2.635l.246.987zM228.765 82.667a3.265 3.265 0 01.017-3.721l.92-1.315a3.48 3.48 0 01-.263 4.274l-.674.762zm608.477 296.995a3.268 3.268 0 01.017-3.721l.92-1.315a3.478 3.478 0 01-.263 4.274l-.674.762zm94.17 159.363a3.267 3.267 0 01.016-3.721l.92-1.315a3.48 3.48 0 01-.263 4.275l-.673.761zm65.194 90.548a3.268 3.268 0 01.016-3.722l.92-1.314a3.478 3.478 0 01-.263 4.274l-.673.762zm43.464 79.681a3.251 3.251 0 01.02-3.721l.92-1.315c.9 1.317.79 3.079-.27 4.274l-.67.762zM709.562 196.708a3.267 3.267 0 01-2.048-3.106l.037-1.604a3.477 3.477 0 012.15 3.703l-.139 1.007zM508.092 82.997a1.697 1.697 0 01-1.867-.499l-.539-.635c.78-.28 1.651.006 2.112.695l.294.439zM405.813 20.325a1.696 1.696 0 01-1.552-1.151l-.267-.789a1.806 1.806 0 011.707 1.424l.112.516zm-170.025 91.794a3.266 3.266 0 01-3.175-1.941l-.649-1.467a3.478 3.478 0 013.521 2.437l.303.971zm608.478 296.995a3.265 3.265 0 01-3.175-1.941l-.649-1.467a3.479 3.479 0 013.521 2.437l.303.971zm94.169 159.363a3.265 3.265 0 01-3.175-1.941l-.649-1.467a3.478 3.478 0 013.521 2.437l.303.971zm65.195 90.547a3.273 3.273 0 01-3.18-1.94l-.645-1.468a3.487 3.487 0 013.525 2.438l.3.97zm43.46 79.682a3.258 3.258 0 01-3.17-1.941l-.65-1.467a3.484 3.484 0 013.52 2.437l.3.971zM731.731 217.331a3.268 3.268 0 01-3.719.145l-1.353-.862a3.478 3.478 0 014.281.077l.791.64zM523.808 83.352a1.696 1.696 0 01-1.393 1.338l-.822.133a1.806 1.806 0 011.688-1.447l.527-.024zM420.294 26.443a1.696 1.696 0 01-1.788.731l-.813-.18a1.805 1.805 0 012.102-.723l.499.172zm-240.84 102.166a3.267 3.267 0 01.454-3.693l1.068-1.198a3.479 3.479 0 01-.763 4.214l-.759.677zm226.198 34.376a11.612 11.612 0 01-10.121-5.919l-.745-1.325h.413c4.653 0 8.819 2.887 10.453 7.244zm-97.791-18.109a11.614 11.614 0 01-10.121-5.919l-.745-1.325h.413c4.653 0 8.819 2.887 10.453 7.244zm-147.734-21.929a9.2 9.2 0 01-4.037 5.929l-11.215 7.229 7.021-11.425a181.092 181.092 0 0141.165-46.604l2.521-2.017a24.251 24.251 0 01-5.861 9.483l-13.698 13.699a18.928 18.928 0 00-3.546 4.92l-1.573 3.145a5.67 5.67 0 01-1.932 2.188l-2.715 1.811a1.989 1.989 0 00-.676 2.544 1.99 1.99 0 01-1.15 2.777l-1.438.479a3.305 3.305 0 00-2.195 2.487l-.671 3.355zm227.415 29.173a20.423 20.423 0 01-17.317-9.598l-.792-1.268h1.811a17.655 17.655 0 0116.298 10.866zm-64.421-24.24a13.63 13.63 0 01-14.216-5.042l2.383-1.589a17.04 17.04 0 0120.095.872l7.825 6.26-7.467-1.244a16.545 16.545 0 00-6.741.271l-1.879.472zm115.128 38.727a6.532 6.532 0 01-6.117-4.239l-1.127-3.005a6.957 6.957 0 016.75 5.271l.494 1.973zm-191.714-20.442c-1.777-.592-2.31-2.848-.985-4.173a2.52 2.52 0 011.782-.738h1.6a6.383 6.383 0 006.055-4.364l.356-1.069a7.947 7.947 0 017.538-5.433h4.277c1.766 0 3.515-.337 5.155-.993l3.063-1.225a8.815 8.815 0 004.913-4.914l1.675-4.187a2.16 2.16 0 014.165.802v8.706l-.695 5.558a20.608 20.608 0 01-8.467 14.181 20.42 20.42 0 01-11.843 3.804h-1.632c-2.952 0-5.838-.874-8.294-2.512l-.937-.625a6.572 6.572 0 00-1.559-.762l-6.167-2.056zm511.727 242.337c-3.93 1.31-7.988-1.615-7.988-5.757v-1.343c0-1.866.742-3.656 2.061-4.975l.534-.534a6.086 6.086 0 0110.078 6.228l-.848 2.543a6.067 6.067 0 01-3.837 3.838zm-145.761-97.905a7.54 7.54 0 01-13.696.455l-7.007-14.013a10.309 10.309 0 01-1.052-3.751l-.307-3.69c-.563-6.759 6.721-11.35 12.576-7.926a8.373 8.373 0 013.516 4.043l6.67 16.205a9.21 9.21 0 01-.024 7.066l-.676 1.611zm32.869.6a7.303 7.303 0 00-4-9.658 7.304 7.304 0 01-3.365-2.73l-.462-.694a9.985 9.985 0 00-5.153-3.935l-5.749-1.917a20.126 20.126 0 01-11.114-9.111l-1.061-1.857a13.898 13.898 0 016.906-19.802l1.593-.637a9.408 9.408 0 019.537 2.182l62.901 61.201 35.768 37.471a18.569 18.569 0 013.575 5.371l9.39 21.464c.931 2.127-.628 4.51-2.95 4.51a3.219 3.219 0 01-3.054-2.202l-.416-1.248a5.05 5.05 0 00-2.531-2.918l-8.115-4.057a26.95 26.95 0 01-7.889-5.977l-48.805-53.685a7.184 7.184 0 00-5.315-2.351 7.183 7.183 0 01-6.158-3.487l-2.931-4.885a2.737 2.737 0 00-4.966.622l-3.43 11.432a7.167 7.167 0 01-4.596 4.738l-2.895.965a4.337 4.337 0 01-4.081-7.502l4.765-3.812a10.817 10.817 0 003.184-4.184l1.417-3.307z" fill="#080808"/><path d="M465.413 186.528a6.183 6.183 0 01-1.811-4.372v-.793a8.097 8.097 0 013.038-6.321l3.073-2.458a5.158 5.158 0 016.081-.264l.457.305a4.128 4.128 0 011.838 3.435v.396a3.624 3.624 0 002.744 3.514l.108.027a3.535 3.535 0 004.392-3.43v-.794a2.915 2.915 0 013.622-2.828 2.914 2.914 0 003.622-2.827v-2.369a4.764 4.764 0 00-4.764-4.764h-4.601a3.618 3.618 0 01-2.561-1.061 3.624 3.624 0 00-5.123 0 3.618 3.618 0 01-2.561 1.061h-4.993c-.48 0-.941-.191-1.281-.53l-1.28-1.281c-.668-.668-1.811-.195-1.811.75 0 .586-.475 1.061-1.061 1.061h-2.478a3.54 3.54 0 01-2.945-1.576l-1.156-1.734a7.431 7.431 0 00-3.835-2.929l-1.645-.549a4.874 4.874 0 01-2.268-1.581l-1.818-2.273c-1.824-2.279-.201-5.656 2.718-5.656h7.104c3.508 0 6.812 1.651 8.917 4.458l.603.805a7.922 7.922 0 003.834 2.763l3.059 1.02a5.08 5.08 0 004.333-9.104l-13.544-8.619a18.139 18.139 0 00-7.486-2.695l-7.433-.929a5.227 5.227 0 00-4.828 2.049 5.222 5.222 0 01-7.872.56l-.575-.575a4.137 4.137 0 01-.914-1.386l-.473-1.182c-1.119-2.798 1.547-5.625 4.406-4.672a3.54 3.54 0 004.553-2.5l.124-.496a4.013 4.013 0 013.893-3.04h.416c1.206 0 2.362.479 3.215 1.332l1.924 1.924a11.12 11.12 0 005.164 2.924l1.203.301a15.598 15.598 0 015.573 2.652l1.858 1.394a27.115 27.115 0 006.194 3.481l5.727 2.291 10.972 6.269a14.212 14.212 0 003.61 1.451l2.092.523a8.654 8.654 0 015.103 3.597 8.663 8.663 0 004.826 3.522l5.985 1.71a25.557 25.557 0 016.808 3.08l19.565 12.577a3.853 3.853 0 004.807-.516 3.849 3.849 0 013.412-1.066l10.907 1.983a25.007 25.007 0 0112.321 6.075l48.038 43.534c1.972 1.788 1.154 5.053-1.429 5.698a3.333 3.333 0 00-1.909 1.305l-3.292 4.644a4.776 4.776 0 01-3.896 2.014 4.775 4.775 0 00-4.775 4.775v16.279a3.88 3.88 0 01-7.72.549l-.693-4.855a9.534 9.534 0 00-4.533-6.826l-.868-.521a11.661 11.661 0 01-5.383-7.468l-1.778-8.002a5.646 5.646 0 00-4.141-4.252l-.556-.139a4.832 4.832 0 00-5.192 2.008 4.834 4.834 0 01-4.815 2.086l-13.717-2.287a26.342 26.342 0 01-9.221-3.395l-2.581-1.548a13.013 13.013 0 01-3.715-3.351l-.519-.693a11.282 11.282 0 00-9.024-4.511 11.27 11.27 0 01-6.256-1.895l-.744-.495a14.185 14.185 0 00-3.984-1.842l-5.81-1.66a53.049 53.049 0 01-9.131-3.552l-2.843-1.422-10.367-5.924a4.585 4.585 0 01-2.31-3.98 4.584 4.584 0 00-4.584-4.584h-10.964a6.183 6.183 0 01-4.372-1.81zm458.169 354.945c-2 0-3.622 1.621-3.622 3.622v3.034a4.21 4.21 0 01-8.203 1.331l-4.949-14.847a10.194 10.194 0 00-5.112-5.894 10.192 10.192 0 01-4.907-5.333l-1.205-3.012a13.679 13.679 0 01-.977-5.075V503.87a2.238 2.238 0 00-2.239-2.238 2.24 2.24 0 01-2.002-1.237l-1.367-2.735a7.185 7.185 0 00-5.245-3.873l-4.329-.722a12.168 12.168 0 01-5.302-2.269l-2.817-2.113a5.128 5.128 0 01-2.052-4.104v-4.465c0-1.762-1.855-2.908-3.431-2.12a2.4 2.4 0 00-.362.224l-3.513 2.635a13.35 13.35 0 01-8.01 2.67h-3.171a6.753 6.753 0 01-5.272-2.534l-3.224-4.03a2.58 2.58 0 01.861-3.918l.067-.033a2.356 2.356 0 001.052-1.053 2.354 2.354 0 013.769-.611l2.459 2.458a4.858 4.858 0 005.609.91l.086-.043c.268-.134.524-.292.763-.471l4.679-3.51a3.3 3.3 0 00.972-4.118l-1.058-2.116a1.84 1.84 0 011.646-2.663h.459c1.683 0 2.344-2.183.943-3.117a1.7 1.7 0 01-.757-1.415v-3.934a6.794 6.794 0 0113.494-1.116l.081.487a6.55 6.55 0 0011.912 2.556l.58-.871a8.507 8.507 0 0111.797-2.359l3.787 2.525 23.987 18.847c.904.71 1.925 1.26 3.016 1.624 6.878 2.292 13.834-3.268 13.113-10.483l-.134-1.335a10.862 10.862 0 00-.638-2.735l-3.959-10.559a15.315 15.315 0 01-.977-5.382v-9.79a5.54 5.54 0 00-5.539-5.54 5.539 5.539 0 01-5.012-3.181l-9.621-20.445a41.141 41.141 0 00-9.155-12.559l-16.956-15.826a29.697 29.697 0 00-10.109-6.196l-9.927-3.609a8.983 8.983 0 01-5.567-5.974l-.28-.98a7.919 7.919 0 015.11-9.687l2.086-.695a3.44 3.44 0 012.988.405c1.953 1.302 4.631.292 5.2-1.985a3.395 3.395 0 013.293-2.571h3.583a7.982 7.982 0 016.931 4.022l3.73 6.528a2.589 2.589 0 004.837-1.285v-1.259c0-4.401 5.565-6.317 8.274-2.849l32.202 41.218a22.64 22.64 0 014.798 13.936v4.49a35.677 35.677 0 008.442 23.046l9.615 11.364a40.081 40.081 0 013.392 4.647l32.295 51.664c1.09 1.757 3.66 1.734 4.73-.043 1.21-2.032 4.26-1.698 5.01.55l5.7 17.101c.64 1.935-1.05 3.845-3.05 3.445-2.01-.404-3.7 1.54-3.02 3.482l9.51 27.168c1.05 3.002.97 6.282-.21 9.234l-1.22 3.05a4.262 4.262 0 00-.08 2.883 4.187 4.187 0 005.3 2.65l.55-.184c.59-.195 1.09-.58 1.43-1.093 1.28-1.906 4.18-1.536 4.93.627l9.63 27.669c1.2 3.464-2.18 6.763-5.61 5.475l-2.01-.753a2.841 2.841 0 00-3.84 2.661c0 .844.37 1.644 1.02 2.184l12.44 10.362a37.424 37.424 0 0111.61 17.136l23.32 71.509c.33 1.006.3 2.093-.07 3.084l-1.34 3.564c-1.13 3.032-5.47 2.886-6.4-.216-.89-2.976-4.99-3.273-6.3-.458l-5.36 11.48c-1.96 4.187-6.98 5.937-11.11 3.871l-6.85-3.424a15.61 15.61 0 01-6.02-5.32l-4.94-7.405-6.24-7.795a3.766 3.766 0 01-.78-2.858l.38-2.67c.39-2.693-2.88-4.326-4.8-2.402a2.836 2.836 0 01-2.9.684l-2.48-.829a3.903 3.903 0 01-2.04-1.557c-1.45-2.168-.44-5.117 2.04-5.941l2.1-.7a5.64 5.64 0 003.85-5.352v-5.592a4.828 4.828 0 00-4.83-4.829h-.27c-1.35 0-2.62.633-3.42 1.71-1.91 2.542-5.83 2.189-7.25-.653l-1.64-3.296a6.49 6.49 0 01-.7-2.93v-8.77a4.165 4.165 0 00-4.167-4.171h-.352c-.594 0-1.174.176-1.668.505-1.998 1.333-4.675-.1-4.675-2.502v-7.434c0-.946.192-1.883.565-2.752l3.715-8.668c.676-1.579.163-3.433-1.211-4.464-2.204-1.653-5.421-.416-5.873 2.3l-.405 2.43a1.854 1.854 0 11-3.612-.815l1.673-5.854a7.366 7.366 0 017.082-5.343 7.364 7.364 0 006.988-5.036l1.19-3.579a5.724 5.724 0 00-.31-4.372 5.722 5.722 0 00-7.68-2.561l-.602.301a6.4 6.4 0 00-2.463 2.174l-1.258 1.887a14.975 14.975 0 01-14.103 6.558 15.048 15.048 0 01-11.089-6.965l-2.183-3.494c-1.877-3.002-2.037-6.801-.454-9.968a9.916 9.916 0 00-5.179-13.657l-2.821-1.128-11.471-6.555a4.587 4.587 0 01-1.54-6.525l1.225-1.838a8.39 8.39 0 001.246-3.009l.765-3.825a18.388 18.388 0 000-7.204l-.74-3.701a5.904 5.904 0 00-1.613-3.014l-1.501-1.501a3.776 3.776 0 00-6.425 2.293l-1.33 13.301a4.714 4.714 0 01-3.765 4.152l-.758.151a4.08 4.08 0 01-4.879-4v-2.268c0-1 .811-1.811 1.811-1.811 1 0 1.811-.81 1.811-1.811v-9.054a3.622 3.622 0 00-3.622-3.622zM268.02 92.358c-2 0-3.622-1.621-3.622-3.622V81.55a8.27 8.27 0 017.244-8.206l3.031-.379a4.81 4.81 0 004.212-4.772 4.81 4.81 0 014.81-4.809h.313c1.358 0 2.661.54 3.622 1.5l1.207 1.208c.585.585.914 1.38.914 2.207a3.123 3.123 0 003.98 3.003l3.762-1.075a6.074 6.074 0 004.368-6.51l-.386-3.476a10.212 10.212 0 016.356-10.608l9.807-3.923a3.777 3.777 0 001.739-1.41c1.448-2.173.307-5.124-2.226-5.757l-1.62-.406a3.574 3.574 0 00-.866-.106c-3.179 0-4.771-3.844-2.523-6.092l.488-.489c.436-.435.97-.76 1.557-.947l38.947-12.392 2.448-.612a13.364 13.364 0 019.218 1.012l1.275.637a7.325 7.325 0 003.276.774h4.764a2.562 2.562 0 011.811 4.372l-.31.31a3.62 3.62 0 002.561 6.183h12.987a3.622 3.622 0 010 7.244h-4.169a7.787 7.787 0 01-2.463-.4l-4.234-1.411-5.297-1.324a18.274 18.274 0 01-3.741-1.384l-4.921-2.46a1.768 1.768 0 01-.792-.793c-.837-1.673-3.358-1.078-3.358.792v1.86c0 .905-.551 1.718-1.39 2.054l-2.086.834a5.529 5.529 0 00-2.891 7.606l.657 1.315c.184.369.402.72.649 1.051l.816 1.087c2.24 2.988 6.607 3.298 9.248.657l.197-.197a3.33 3.33 0 01.506-.414l1.873-1.249c1.405-.937 3.287.07 3.287 1.76v1.159c0 1.456 1.76 2.185 2.789 1.155a1.634 1.634 0 011.886-.306l4.747 2.374a6.834 6.834 0 003.057.722h8.133a1.81 1.81 0 110 3.621h-5.387a10.527 10.527 0 00-7.443 3.083l-2.51 2.51a15.274 15.274 0 00-4.266 8.29l-.194 1.162a12.333 12.333 0 01-4.766 7.841l-1.73 1.298a5.85 5.85 0 01-9.331-4.098l-.633-6.338a5.927 5.927 0 00-11.044-2.35l-2.6 4.55a10.137 10.137 0 004.268 14.098l7.797 3.898a4.395 4.395 0 006.361-3.93v-.133c0-2.5 2.027-4.527 4.527-4.527h.981c1.13 0 2.232.347 3.158.995l16.687 11.681 6.659 5.328a12.615 12.615 0 005.404 2.518l2.538.507a7.318 7.318 0 015.109 3.902l.678 1.358a4.861 4.861 0 004.347 2.686h4.709a1.948 1.948 0 01.473 3.839l-1.503.376a4.028 4.028 0 001.768 7.858l.469-.094a4.655 4.655 0 015.568 4.565v.973a5.453 5.453 0 01-5.995 5.426l-8.372-.838a8.56 8.56 0 01-5.999-3.383 8.566 8.566 0 00-8.384-3.288l-14.482 2.633a2.586 2.586 0 01-.465.042c-2.142 0-3.364-2.445-2.079-4.159l1.227-1.636a3.621 3.621 0 012.897-1.449h1.811a7.243 7.243 0 007.244-7.243v-3.622a5.432 5.432 0 00-5.433-5.433h-2.382a3.051 3.051 0 00-3.051 3.051v.709c0 .983.67 1.84 1.624 2.079 1.93.482 2.218 3.106.438 3.996l-1.48.74a2.756 2.756 0 01-1.232.291h-12.932a2.717 2.717 0 01-2.716-2.717c0-1.5-1.216-2.716-2.717-2.716a2.716 2.716 0 01-2.716-2.717v-3.762a6.479 6.479 0 00-4.073-6.016l-2.976-1.19a11.218 11.218 0 00-4.165-.803h-25.305a3.323 3.323 0 01-3.322-3.322 3.322 3.322 0 00-3.868-3.277l-3.49.582a6.318 6.318 0 00-4.828 3.886l-1.729 4.322a4.053 4.053 0 01-1.951 2.12c-2.694 1.348-5.865-.612-5.865-3.625v-.94c0-2.63-2.472-4.56-5.023-3.923a4.042 4.042 0 01-3.839-1.063l-.503-.503a5.124 5.124 0 00-3.622-1.5h-1.501c-2 0-3.622-1.622-3.622-3.622a3.621 3.621 0 10-7.243 0v3.621c0 2-1.622 3.622-3.622 3.622zm1.62-29.785c-2.409 1.205-5.242-.547-5.242-3.24v-4.79a3.276 3.276 0 00-1.811-2.931 3.276 3.276 0 01-1.811-2.93v-3.185a7.244 7.244 0 015.487-7.028l5.487-1.372a2.828 2.828 0 013.514 2.744v1.383a6.552 6.552 0 003.621 5.86l4.376 2.917a4.788 4.788 0 011.327 6.639l-1.764 2.646a2.15 2.15 0 01-.827.73c-1.43.715-3.112-.324-3.112-1.922v-.999a2.766 2.766 0 00-2.766-2.767h-.855a3.622 3.622 0 00-3.622 3.622v1.384a3.622 3.622 0 01-2.002 3.24zm281.352 17.109a3.156 3.156 0 01-2.995-2.16l-.256-.765a4.278 4.278 0 011.034-4.378l.206-.205a4.748 4.748 0 016.715 0l3.233 3.233c.434.434.91.824 1.421 1.165l2.601 1.734a7.225 7.225 0 012.848 3.729 7.23 7.23 0 004.011 4.358l7.693 3.297c1.319.566 2.74.857 4.175.857h5.417a3.992 3.992 0 013.915 3.21l.226 1.132c.45 2.246 3.036 3.318 4.942 2.047a3.218 3.218 0 001.434-2.679v-.17a3.539 3.539 0 013.539-3.54h5.516a1.81 1.81 0 010 3.622h-2.399a4.21 4.21 0 00-3.994 2.879l-.665 1.996c-.983 2.948 1.211 5.991 4.317 5.991a4.55 4.55 0 014.551 4.551v.882c0 3 2.433 5.433 5.433 5.433h.428a5.86 5.86 0 002.621-.619l4.769-2.385a5.869 5.869 0 012.621-.618h4.049a1.811 1.811 0 010 3.622h-3.311a5.118 5.118 0 00-3.622 1.5l-3.419 3.419a7.939 7.939 0 01-9.611 1.243l-19.878-11.595-23.542-14.488-8.239-5.493a5.898 5.898 0 01-2.627-4.907v-2.741a3.157 3.157 0 00-3.157-3.157zM413.491 62.168a5.198 5.198 0 00-1.349-.972l-1.012-.507a3.357 3.357 0 011.501-6.36h2.075a1.81 1.81 0 011.811 1.81c0 1 .811 1.811 1.811 1.811h3.552a5.363 5.363 0 003.35-1.175l5.538-4.43a7.478 7.478 0 014.671-1.638h2.953a2.698 2.698 0 001.497-4.944l-1.872-1.247a2.151 2.151 0 012.155-3.713l3.731 1.865a2.875 2.875 0 011.589 2.572c0 1.124.656 2.145 1.677 2.614l3.163 1.45c1.962.9 4.197.999 6.232.277l3.934-1.395a4.663 4.663 0 003.104-4.395 4.663 4.663 0 013.896-4.6l4.068-.678a2.492 2.492 0 012.902 2.458 2.491 2.491 0 002.491 2.492h3.988a6.479 6.479 0 016.015 4.073l.335.835a5.547 5.547 0 006.063 3.412l4.527-.754a1.661 1.661 0 11.273 3.3h-3.772a1.811 1.811 0 000 3.621h3.622a1.811 1.811 0 010 3.622h-5.81a6.751 6.751 0 01-5.272-2.533l-3.53-4.413a2.183 2.183 0 01.728-3.316 2.202 2.202 0 001.207-1.965c0-1.237-1.002-2.26-2.238-2.26h-1.384c-2 0-3.622 1.621-3.622 3.622v7.57c0 4.24 2.396 8.115 6.187 10.01l.31.155c.498.25 1.012.462 1.54.638l7.194 2.398a4.21 4.21 0 01-1.331 8.204h-4.417a6.553 6.553 0 01-5.861-3.622 6.551 6.551 0 00-5.86-3.622h-2.297c-.585 0-1.157.173-1.644.498-1.985 1.323-1.672 4.33.543 5.216l1.429.571a2.375 2.375 0 01-.882 4.58h-6.395a12.72 12.72 0 01-5.689-1.342l-8.073-4.037a33.87 33.87 0 01-6.894-4.577l-2.376-2.037a25.404 25.404 0 00-16.533-6.116h-6.842a8.884 8.884 0 01-6.283-2.602l-.424-.424z" fill="#080808"/><path d="M825.534 591.23a43.94 43.94 0 01-9.56-18.279l-2.568-10.27a9.774 9.774 0 01-.292-2.371v-4.016a3.276 3.276 0 00-1.811-2.93 3.276 3.276 0 01-1.811-2.93v-.944a4.604 4.604 0 00-2.05-3.831l-1.698-1.132a2.294 2.294 0 01-.779-2.934 2.294 2.294 0 00-.779-2.934l-2.22-1.48a2.406 2.406 0 01-.948-2.761c.566-1.696 2.718-2.204 3.981-.94l2.071 2.071c.403.403.721.884.933 1.414l7.848 19.62a21.55 21.55 0 008.922 10.477 21.545 21.545 0 015.02 4.163l10.717 12.055a22.876 22.876 0 012.759 3.842l4.663 8.161a5.276 5.276 0 01-6.939 7.336l-7.389-3.694a13.528 13.528 0 01-4.133-3.194l-3.937-4.499zm47.667 33.747c-.393.22-.832.346-1.282.369l-.71.038a1.142 1.142 0 00-.233.036l-1.396.372a.214.214 0 01-.266-.245.214.214 0 01.138-.164l1.971-.702c.209-.075.412-.167.606-.277l.818-.466c.095-.054.196-.098.3-.132l.605-.196a.35.35 0 01.382.549l-.316.401a.86.86 0 01-.249.212l-.368.205zm-.556 5.742a2.608 2.608 0 01-.623 1.36l-.197.224a.71.71 0 00-.117.184l-.413.95a.248.248 0 01-.463-.175l.57-1.783c.093-.291.16-.59.2-.893l.13-.985a.882.882 0 01.042-.174l.176-.491a.307.307 0 01.593.056l.14.897c.027.173.028.349.004.522l-.042.308z" fill="#FAC05C"/><path d="M872.067 624.339c-.261.438-.644.79-1.102 1.012l-.268.129a.747.747 0 00-.179.125l-.749.715a.248.248 0 01-.36-.34l1.218-1.423c.199-.232.377-.481.531-.745l.501-.858a.882.882 0 01.107-.144l.352-.384a.307.307 0 01.525.281l-.219.882a1.795 1.795 0 01-.198.482l-.159.268zm-.151 2.805c.365.356.616.811.724 1.309l.063.291c.015.071.042.14.079.204l.518.896a.248.248 0 01-.416.269l-1.095-1.519a5.12 5.12 0 00-.599-.691l-.715-.69a.835.835 0 01-.115-.137l-.291-.433a.308.308 0 01.398-.444l.805.421c.155.08.297.184.422.306l.222.218z" fill="#FAC05C"/><path d="M872.092 627.927a2.598 2.598 0 01-1.088 1.025l-.266.134a.678.678 0 00-.179.127l-.739.724a.248.248 0 01-.364-.336l1.2-1.438a5.14 5.14 0 00.521-.752l.491-.864a.818.818 0 01.104-.145l.348-.389a.306.306 0 01.528.275l-.208.884c-.04.17-.104.334-.192.485l-.156.27z" fill="#FAC05C"/><path d="M873.487 630.087c.37.746.567 1.566.576 2.399l.014 1.374c.002.147.018.293.049.436l.583 2.677a.395.395 0 01-.765.199l-1.144-3.77a7.029 7.029 0 00-.456-1.137l-.794-1.573a3.146 3.146 0 01-.224-.583l-.317-1.159a.652.652 0 011.058-.665l.698.607c.152.131.275.291.364.47l.358.725z" fill="#FAC05C"/><path d="M872.322 625.318c.322.532.507 1.136.539 1.757l.04.78c.005.104.022.207.051.307l.491 1.691a.296.296 0 01-.561.189l-.956-2.46a5.278 5.278 0 00-.42-.845l-.643-1.043a1.852 1.852 0 01-.166-.348l-.264-.746a.455.455 0 01.702-.514l.617.466c.129.097.239.219.323.358l.247.408z" fill="#FAC05C"/><path d="M871.916 623.522c.365.356.616.811.724 1.309l.063.291c.015.072.042.14.079.204l.518.896a.248.248 0 01-.416.269l-1.095-1.519a5.181 5.181 0 00-.599-.691l-.715-.69a.796.796 0 01-.115-.137l-.291-.433a.308.308 0 01.398-.444l.805.421c.155.081.297.184.422.306l.222.218zm0 3.622c.365.356.616.811.724 1.309l.063.291c.015.071.042.14.079.204l.518.896a.248.248 0 01-.416.269l-1.095-1.519a5.12 5.12 0 00-.599-.691l-.715-.69a.835.835 0 01-.115-.137l-.291-.433a.308.308 0 01.398-.444l.805.421c.155.08.297.184.422.306l.222.218zm-82.344-101.849a46.21 46.21 0 01-11.902-13.198l-.775-1.29-9.054-12.677 6.736 3.368a26.003 26.003 0 0113.867 18.156l1.128 5.641zm-95.256-111.588a13.762 13.762 0 01-4.637-2.268l-.832-.624a19.21 19.21 0 01-6.311-8.234l-.09-.226a20.078 20.078 0 00-4.445-6.741l-.482-.482a23.404 23.404 0 01-3.519-4.506l-2.087-3.479a13.082 13.082 0 01-1.863-6.728l.135.045a69.695 69.695 0 0119.779 10.363l1.488 1.117a50.564 50.564 0 017.254 6.633l12.172 13.524a3.209 3.209 0 01-3.23 5.242l-13.332-3.636zm75.336 68.125a18.11 18.11 0 01-14.488-7.244h2.767c4.963 0 9.501 2.804 11.721 7.244zM586.746 322.469a11.61 11.61 0 01-10.12-5.919l-.746-1.325h.413c4.654 0 8.819 2.886 10.453 7.244zm173.851 148.497a5.8 5.8 0 01-5.626-4.392l-1.618-6.474a6.413 6.413 0 016.326 5.359l.918 5.507zM579.502 315.225a2.728 2.728 0 01-2.681-2.225l-.941-5.019a3.078 3.078 0 013.054 2.696l.568 4.548zm-21.731 7.244a2.728 2.728 0 01-2.681-2.225l-.941-5.019a3.076 3.076 0 013.053 2.695l.569 4.549zm187.236 152.815a7.91 7.91 0 01-5.963-7.841l.232-10.537a8.803 8.803 0 016.598 9.377l-.867 9.001zm-174.34-158.232a4.578 4.578 0 01-3.452-4.539l.134-6.1a5.096 5.096 0 013.82 5.428l-.502 5.211zm76.381 48.879a4.893 4.893 0 01-3.821-1.836l-5.774-7.218a46.229 46.229 0 00-13.198-11.903l-1.29-.774a24.023 24.023 0 0119.328 5.241l2.403 2.003 4.83 3.622a6.036 6.036 0 012.414 4.829v1.144a4.892 4.892 0 01-4.892 4.892z" fill="#FAC05C"/></g></svg>