<svg width="1082" height="877" fill="none" xmlns="http://www.w3.org/2000/svg"><g opacity=".2"><path d="M561.298 360.831A181.085 181.085 0 01586 347.363l92.159-41.313 150.369-68.062a140.94 140.94 0 0145.36-11.962l15.366-1.397a80.909 80.909 0 0158.116 17.596l47.705 38.472 41.135 30.471a29.28 29.28 0 0017.42 5.747h.48c6.33 0 12.48-2.155 17.42-6.112a27.887 27.887 0 0010.47-21.782v-2.108c0-4.107-.78-8.175-2.31-11.988l-10.94-27.35a181.105 181.105 0 00-11.42-23.479l-13.36-23.081-5.78-8.096a111.537 111.537 0 00-30.13-28.778l-3.21-2.073a83.865 83.865 0 00-20.907-9.752 83.869 83.869 0 01-23.087-11.21l-.73-.505a89.647 89.647 0 01-20.938-20.251L922.957 98.5a181.098 181.098 0 00-53.975-48.347L825.54 24.756A181.093 181.093 0 00734.142 0h-49.03c-23.721 0-47.21 4.66-69.135 13.716l-133.4 55.1-98.279 52.92a181.116 181.116 0 00-35.783 25.287l-105.805 95.93a181.18 181.18 0 00-24.552 27.281L88.033 448.221a181.099 181.099 0 00-25.468 49.191L9.899 654.124a181.097 181.097 0 00-8.385 77.154l.156 1.443A181.09 181.09 0 01-.202 784.58L-10 838.468l70.627 38.03 33.246-38.787a160.42 160.42 0 0150.057-39.084l38.03-23.542 5.638-4.229a181.106 181.106 0 0049.284-56.275l16.181-28.845a181.103 181.103 0 0115.289-22.96l101.947-130.358 71.528-84.666a181.06 181.06 0 0139.556-34.913l79.915-52.008z" fill="#FAC05C"/><path d="M526.04 349.141l72.438-39.841 115.9-47.087 58.584-25.536a181.09 181.09 0 0124.717-8.706l27.167-7.409" stroke="#080808" stroke-width="2" stroke-linecap="round"/><path d="M877.363 68.815C852.01 43.462 817.602 39.84 817.602 39.84c-10.327-15.266-40.737-24.809-59.28-29.376-9.907-2.44-20.097-3.222-30.3-3.222h-39.546a181.09 181.09 0 00-68.675 13.527l-77.463 31.747-106.845 48.896-82.197 50.23a181.184 181.184 0 00-28.971 21.984l-77.666 72.311a181.106 181.106 0 00-24.956 28.69l-52.419 74.885-61.573 79.681-31.756 54.852a181.08 181.08 0 00-13.573 29.138l-25.297 69.941-15.872 66.602" stroke="#000" stroke-width="1.5" stroke-linecap="round"/><path d="M1064.62 298.923a6.498 6.498 0 00-.38-11.041l-3.33-1.903c-3.23-1.844-4.11-6.096-1.88-9.068a6.129 6.129 0 001.24-3.706v-3.865a6.26 6.26 0 00-2.51-5.01l-.78-.586a5.227 5.227 0 01-1.21-7.083c.57-.859.88-1.868.88-2.901v-2.039c0-2.361-.7-4.67-2.01-6.635l-.44-.66a14.578 14.578 0 00-2.8-3.113l-1.62-1.348a29.07 29.07 0 01-9.77-16.041l-.19-.843a31.608 31.608 0 00-4.56-10.683l-2.56-3.843a14.69 14.69 0 01-2.02-4.564 14.64 14.64 0 00-5.05-7.87l-10.31-8.244a53.117 53.117 0 00-8.42-5.528l-22.417-11.868a56.213 56.213 0 01-7.423-4.708l-9.452-7.089a7.727 7.727 0 00-3.369-1.442l-1.269-.211c-4.049-.675-7.736 2.448-7.736 6.554a6.644 6.644 0 01-6.644 6.644h-15.087a3.622 3.622 0 01-3.622-3.622 3.622 3.622 0 00-7.244 0v1.811c0 3-2.432 5.433-5.433 5.433h-7.244c-1 0-1.811-.811-1.811-1.811 0-1-.81-1.811-1.811-1.811h-10.115a6.18 6.18 0 01-6.183-6.183V153.93a1.81 1.81 0 00-3.622 0v9.413a3.264 3.264 0 01-3.264 3.264c-.238 0-.475.026-.708.078l-7.893 1.754a76.914 76.914 0 00-15.548 5.248l-12.496 5.768a17.827 17.827 0 01-7.467 1.64h-16.007a1.81 1.81 0 100 3.621h28.005a6.403 6.403 0 014.528 10.93l-1.666 1.666a9.662 9.662 0 00-2.541 4.488 9.658 9.658 0 01-5.566 6.535l-18.974 8.132a3.26 3.26 0 00-1.975 2.996c0 2.379 2.466 3.956 4.625 2.959l18.917-8.73 24.926-12.463a19.17 19.17 0 0117.153 0l3.195 1.597 41.652 21.731 40.646 25.593a107.947 107.947 0 0115.434 11.78l11.786 10.803a20.444 20.444 0 006.24 3.922 20.513 20.513 0 019.07 7.118l2.08 2.911a32.62 32.62 0 008.47 8.204l.63.422a36.375 36.375 0 0011.36 5.025l9.88 2.471c3.66.913 7.52.243 10.65-1.845l3.06-2.038zM793.403 194.388a3.257 3.257 0 002.468-3.16c0-2.274-2.272-3.849-4.401-3.05l-10.087 3.782-19.92 5.433-9.088 3.029a26.414 26.414 0 00-3.454 1.431 26.364 26.364 0 01-11.792 2.784h-3.463a41.036 41.036 0 00-16.164 3.318l-4.935 2.115a38.121 38.121 0 01-19.614 5.433h-8.308c-3.035 0-5.987.984-8.414 2.804l-.375.281a12.528 12.528 0 00-4.367 6.059l-.413 1.24a10.357 10.357 0 01-8.121 6.939 10.356 10.356 0 00-7.176 4.886l-.257.427a11.432 11.432 0 01-7.924 5.396l-10.456 1.742a34.4 34.4 0 00-11.408 4.063l-7.336 4.192-24.6 11.481a5.937 5.937 0 00-3.25 3.941 5.94 5.94 0 01-5.762 4.499h-2.607a3.622 3.622 0 100 7.244h1.811a5.432 5.432 0 015.433 5.432 5.432 5.432 0 005.433 5.433h8.149c2.939 0 5.798.953 8.149 2.717l2.299 1.724a7.005 7.005 0 012.063 2.471l.681 1.362a5.35 5.35 0 009.929-3.863l-1.608-5.628a11.83 11.83 0 00-2.288-4.326l-4.988-5.986a10.635 10.635 0 01-2.466-6.809c0-5.875 4.762-10.637 10.637-10.637h6.381c3.084 0 6.111.838 8.755 2.425l14.068 8.441 5.512 2.756a3.133 3.133 0 011.732 2.802c0 2.961 3.728 4.269 5.578 1.956l.078-.097a3.177 3.177 0 000-3.969l-5.384-6.73a3.936 3.936 0 00-.612-.612l-5.574-4.459c-1.042-.833-.453-2.513.881-2.513a1.41 1.41 0 001.411-1.411v-7.545a8.955 8.955 0 017.2-8.782l8.803-1.761c1.4-.28 2.766-.71 4.075-1.282l22.502-9.845a26.067 26.067 0 007.981-5.447 26.052 26.052 0 0113.314-7.126l15.186-3.037a14.288 14.288 0 007.301-3.907l.124-.124c2.6-2.6 6.127-4.061 9.805-4.061h1.638c3.333 0 6.472-1.57 8.472-4.236a10.59 10.59 0 015.903-3.92l22.86-5.715zM534.436 350.729a9.565 9.565 0 001.391-10.617 9.576 9.576 0 01-.936-3.091l-.883-7.065a8.257 8.257 0 014.501-8.409l.808-.404a7.075 7.075 0 00-.536-12.894l-3.346-1.339a4.995 4.995 0 01-1.343-8.476l14.348-11.956c1.98-1.65 1.248-4.85-1.252-5.475a3.157 3.157 0 00-2.326.321l-17.98 10.275a27.221 27.221 0 01-13.502 3.585h-2.982a18.265 18.265 0 00-10.961 3.654 18.28 18.28 0 01-5.185 2.717l-5.182 1.727a51.933 51.933 0 00-15.241 8.104l-63.69 48.992-37.653 34.231a21.455 21.455 0 01-4.831 3.31l-5.306 2.653a11.827 11.827 0 00-6.538 10.579c0 3.41-1.472 6.655-4.039 8.901l-7.579 6.632a33.988 33.988 0 00-5.112 5.593l-8.962 12.324a31.224 31.224 0 01-7.927 7.61 31.192 31.192 0 00-9.888 10.665l-11.322 20.128a4.569 4.569 0 01-3.983 2.329 4.571 4.571 0 00-4.571 4.571v4.68a9.251 9.251 0 01-4.491 7.932l-2.151 1.29a13.665 13.665 0 00-4.058 3.73l-54.494 75.588-31.971 51.509a12.943 12.943 0 01-1.425 1.888l-12.002 13.201c-2.199 2.42-6.215 1.307-6.856-1.899a3.977 3.977 0 01.323-2.522l29.01-59.728a11.828 11.828 0 001.19-5.17v-2.355a7.434 7.434 0 013.31-6.185 7.435 7.435 0 002.929-3.835l1.477-4.43a21.03 21.03 0 014.126-7.202l7.958-9.095a14.915 14.915 0 014.554-3.518 14.913 14.913 0 008.243-13.337v-5.116c0-4.813 1.497-9.508 4.285-13.432l44.61-62.783 16.058-28.548a3.64 3.64 0 00.36-.904c.714-2.857 4.346-3.734 6.285-1.517l4.314 4.93c1.799 2.055 5.108 1.631 6.329-.812a3.845 3.845 0 00-.363-4.025l-2.878-3.837a11.608 11.608 0 01-1.725-3.293l-.341-1.022a9.504 9.504 0 01-.204-5.308l1.435-5.739c.77-3.081-1.56-6.065-4.735-6.065a4.88 4.88 0 00-4.216 2.422l-19.949 34.197a73.72 73.72 0 01-9.346 12.684l-9.721 10.605a39.264 39.264 0 00-7.508 11.944l-6.57 16.424a7.813 7.813 0 01-5.97 4.805 7.814 7.814 0 00-6.529 7.707v.214a8.066 8.066 0 01-3.226 6.453l-1.069.802a10.742 10.742 0 00-3.918 5.766l-2.719 9.969a40.85 40.85 0 01-5.422 11.913l-5.184 7.777a11.633 11.633 0 01-5.357 4.346 11.63 11.63 0 00-7.034 8.275l-1.492 6.718a24.703 24.703 0 01-2.605 6.785l-45.277 80.105-45.257 90.514a126.51 126.51 0 01-12.879 20.557l-8.193 10.651a29.446 29.446 0 00-4.002 7.02l-1.61 4.025a6.952 6.952 0 00-.497 2.58v10.266c0 2.401-2.902 3.603-4.6 1.906a2.694 2.694 0 00-4.316.7l-.432.866a3.392 3.392 0 01-4.552 1.517l-1.927-.964a5.546 5.546 0 01-2.901-3.616l-2.651-10.606a3.047 3.047 0 01.518-2.567c1.65-2.199-.227-5.285-2.938-4.833l-2.128.355a3.914 3.914 0 00-2.123 1.092l-2.834 2.834a14.952 14.952 0 01-3.88 2.796l-3.752 1.876a3.898 3.898 0 00-1.874 2.037c-1.224 3.058-5.456 3.31-7.033.418l-6.905-12.658-8.315-14.967a10.899 10.899 0 00-1.817-2.409l-2.004-2.003a5.877 5.877 0 01-1.545-5.58l.397-1.587a3.553 3.553 0 00-1.476-3.818l-2.406-1.605a1 1 0 00-1.45.386l-.38.758c-.302.604-1.198.484-1.33-.178-.168-.841-1.405-.718-1.405.139v5.572c0 .86-.844 1.468-1.66 1.196l-3.557-1.185a.975.975 0 01-.378-.234c-.608-.608-1.65-.177-1.65.684v26.642l-9.054 68.816 21.731 12.676 25.354 14.488 27.164-34.408L70.695 829a51.987 51.987 0 0126.15-19.507l10.867-3.622 34.412-14.748a181.137 181.137 0 0030.925-16.994l9.525-6.517a176.731 176.731 0 0064.555-80.88 176.723 176.723 0 0130.169-50.039l78.513-91.598 59.284-78.552a181.093 181.093 0 0130.073-31.231l46.662-38.067a83.04 83.04 0 009.711-9.33l32.895-37.186zm91.206-166.013a11.61 11.61 0 0010.12-5.918l.746-1.325h-.413a11.163 11.163 0 00-10.453 7.243zm-130.388 94.17a11.61 11.61 0 0010.12-5.919l.746-1.325h-.413a11.162 11.162 0 00-10.453 7.244z" fill="#080808"/><path d="M495.254 278.886a11.61 11.61 0 0010.12-5.919l.746-1.325h-.413a11.162 11.162 0 00-10.453 7.244zm377.772-173.851a11.613 11.613 0 00.846-11.693l-.67-1.364-.234.34a11.163 11.163 0 00.058 12.717zM264.548 402.03a11.61 11.61 0 00.847-11.693l-.671-1.365-.233.341a11.162 11.162 0 00.057 12.717zm-94.169 159.363a11.612 11.612 0 00.847-11.693l-.671-1.364-.234.34a11.163 11.163 0 00.058 12.717zm-65.194 90.548a11.614 11.614 0 00.847-11.694l-.671-1.364-.234.34a11.165 11.165 0 00.058 12.718zm-43.463 79.681a11.61 11.61 0 00.847-11.693l-.67-1.364-.234.34a11.163 11.163 0 00.057 12.717zm314.792-505.327a11.612 11.612 0 007.186-9.264l.198-1.507-.384.154a11.164 11.164 0 00-7 10.617zm188.77-130.411a6.03 6.03 0 005.984-1.116l.596-.517-.201-.072a5.796 5.796 0 00-6.379 1.705zm107.63-60.402a6.03 6.03 0 005.153-3.24l.365-.7-.215.006a5.797 5.797 0 00-5.303 3.934zM837.32 140.631c4.188.24 8.18-1.797 10.443-5.329l.82-1.28-.412-.024a11.166 11.166 0 00-10.851 6.633zM228.842 437.626a11.612 11.612 0 0010.443-5.329l.82-1.28-.412-.024a11.166 11.166 0 00-10.851 6.633zm-94.169 159.363a11.611 11.611 0 0010.443-5.329l.82-1.28-.412-.023a11.163 11.163 0 00-10.851 6.632zM69.48 687.536a11.609 11.609 0 0010.442-5.329l.82-1.28-.412-.023a11.163 11.163 0 00-10.85 6.632zm-43.463 79.682a11.61 11.61 0 0010.442-5.329l.82-1.28-.412-.024a11.165 11.165 0 00-10.85 6.633zm301.049-531.082a11.61 11.61 0 0011.646 1.352l1.392-.611-.33-.248a11.164 11.164 0 00-12.708-.493zM542.701 82.644a6.03 6.03 0 004.053 4.542l.751.243-.043-.21a5.795 5.795 0 00-4.761-4.575zm104.342-51.155a6.029 6.029 0 005.441 2.73l.787-.05-.116-.18a5.797 5.797 0 00-6.112-2.5zm277.784 117.009a11.612 11.612 0 00-.533-11.712l-.826-1.276-.192.365a11.165 11.165 0 001.551 12.623zM513.871 253.533a11.613 11.613 0 00-2.77-11.392l-1.056-1.094-.118.395a11.164 11.164 0 003.944 12.091z" fill="#080808"/><path d="M513.871 253.533a11.613 11.613 0 00-2.77-11.392l-1.056-1.094-.118.395a11.164 11.164 0 003.944 12.091zM862.658 75.34a11.614 11.614 0 00-10.961-4.163l-1.499.251.259.322a11.165 11.165 0 0012.201 3.59zM254.18 372.335a11.61 11.61 0 00-10.96-4.163l-1.499.251.259.322a11.164 11.164 0 0012.2 3.59zm-94.169 159.363a11.61 11.61 0 00-10.96-4.163l-1.5.251.26.322a11.164 11.164 0 0012.2 3.59zm-65.194 90.547a11.613 11.613 0 00-10.96-4.163l-1.5.252.26.321a11.163 11.163 0 0012.2 3.59zm-43.463 79.682a11.61 11.61 0 00-10.96-4.163l-1.5.251.26.322a11.165 11.165 0 0012.2 3.59zm332.988-506.096a11.612 11.612 0 00-6.816-9.539l-1.388-.621.038.411a11.163 11.163 0 008.166 9.749zM578.83 86.763a6.028 6.028 0 00.646-6.053l-.324-.72-.127.173a5.797 5.797 0 00-.195 6.6zm103.321-64.748a6.03 6.03 0 00-1.629-5.866l-.566-.55-.055.207a5.796 5.796 0 002.25 6.209zm175.208 94.372a11.612 11.612 0 00-2.112-11.532l-.992-1.153-.141.389a11.163 11.163 0 003.245 12.296zM248.881 413.382a11.61 11.61 0 00-2.112-11.532l-.991-1.153-.141.389a11.164 11.164 0 003.244 12.296zm-94.169 159.363a11.612 11.612 0 00-2.112-11.532l-.991-1.152-.141.388a11.164 11.164 0 003.244 12.296zm-65.194 90.548a11.613 11.613 0 00-2.112-11.533l-.992-1.152-.14.388a11.165 11.165 0 003.244 12.297zm-43.462 79.681a11.61 11.61 0 00-2.113-11.532l-.991-1.153-.141.389a11.163 11.163 0 003.245 12.296zm311.126-515.912a11.61 11.61 0 004.633-10.77l-.186-1.509-.332.245a11.165 11.165 0 00-4.115 12.034zM557.518 89.513a6.03 6.03 0 005.513-2.581l.448-.65-.213-.02a5.797 5.797 0 00-5.748 3.25zm105.83-57.094a6.03 6.03 0 004.176-4.43l.177-.769-.206.06a5.796 5.796 0 00-4.147 5.139zm247.694 87.807a11.611 11.611 0 00-11.373-2.847l-1.46.426.296.289a11.163 11.163 0 0012.537 2.132zM495.254 268.02a8.966 8.966 0 008.63-6.537l2.236-7.951a9.82 9.82 0 00-9.652 8.01l-1.214 6.478z" fill="#080808"/><path d="M495.254 268.02a8.966 8.966 0 008.63-6.537l2.236-7.951a9.82 9.82 0 00-9.652 8.01l-1.214 6.478zM864.067 98.887a8.963 8.963 0 00-.507-10.814l-5.289-6.343a9.82 9.82 0 001.142 12.49l4.654 4.667zM255.589 395.882a8.964 8.964 0 00-.506-10.814l-5.29-6.343a9.819 9.819 0 001.143 12.49l4.653 4.667zM161.42 555.245a8.964 8.964 0 00-.506-10.814l-5.29-6.343a9.819 9.819 0 001.143 12.49l4.653 4.667zm-65.194 90.547a8.964 8.964 0 00-.506-10.814l-5.29-6.342a9.818 9.818 0 001.143 12.489l4.653 4.667zm-43.462 79.682a8.964 8.964 0 00-.507-10.814l-5.29-6.343a9.82 9.82 0 001.143 12.49l4.654 4.667zm319.701-509.261a8.964 8.964 0 005.571-9.283l-.888-8.21a9.819 9.819 0 00-5.97 11.029l1.287 6.464zM567.19 90.575a4.655 4.655 0 005.365-1.68l2.488-3.492a5.098 5.098 0 00-6.122 2.22l-1.731 2.952zm105.542-60.731a4.656 4.656 0 004.369-3.537l1.027-4.163a5.098 5.098 0 00-4.874 4.318l-.522 3.382zm165.21 99.94a8.967 8.967 0 008.991-6.032l2.688-7.809a9.82 9.82 0 00-10.095 7.443l-1.584 6.398zM229.465 426.779a8.965 8.965 0 008.99-6.032l2.688-7.809a9.82 9.82 0 00-10.094 7.443l-1.584 6.398zm-94.169 159.363a8.964 8.964 0 008.99-6.032l2.688-7.809a9.818 9.818 0 00-10.094 7.444l-1.584 6.397zm-65.194 90.547a8.963 8.963 0 008.99-6.032l2.688-7.809a9.82 9.82 0 00-10.094 7.444l-1.584 6.397zm-43.463 79.682a8.965 8.965 0 008.99-6.032l2.688-7.809a9.82 9.82 0 00-10.094 7.443l-1.584 6.398zm306.957-528.919a8.965 8.965 0 0010.826-.038l6.565-5.011a9.82 9.82 0 00-12.527.602l-4.864 4.447zM548.23 81.527a4.655 4.655 0 004.215 3.72l4.276.32a5.099 5.099 0 00-5.069-4.087l-3.422.047zm103.543-53.112a4.654 4.654 0 005.288 1.906l4.093-1.276a5.098 5.098 0 00-6.218-1.935l-3.163 1.305zm263.436 115.029a8.964 8.964 0 00-1.774-10.68l-5.998-5.677a9.82 9.82 0 002.602 12.269l5.17 4.088zM509.741 260.776a3.266 3.266 0 003.059-2.119l.563-1.503a3.48 3.48 0 00-3.375 2.636l-.247.986z" fill="#080808"/><path d="M509.741 260.776a3.266 3.266 0 003.059-2.119l.563-1.503a3.48 3.48 0 00-3.375 2.636l-.247.986zM866.293 82.843a3.267 3.267 0 00-.017-3.721l-.92-1.315a3.48 3.48 0 00.263 4.274l.674.762zM257.815 379.838a3.265 3.265 0 00-.017-3.721l-.919-1.315a3.48 3.48 0 00.262 4.274l.674.762zm-94.169 159.363a3.265 3.265 0 00-.017-3.721l-.92-1.315a3.48 3.48 0 00.263 4.275l.674.761zm-65.194 90.547a3.266 3.266 0 00-.017-3.721l-.92-1.314a3.479 3.479 0 00.263 4.274l.674.761zM54.99 709.43a3.266 3.266 0 00-.018-3.721l-.92-1.315a3.479 3.479 0 00.264 4.274l.673.762zm328.219-505.338a3.266 3.266 0 002.048-3.107l-.037-1.604a3.48 3.48 0 00-2.15 3.703l.139 1.008zM575.541 89.578c.666.24 1.409.04 1.867-.499l.539-.635a1.807 1.807 0 00-2.112.695l-.294.44zm104.588-63.735a1.696 1.696 0 001.552-1.151l.267-.79a1.806 1.806 0 00-1.707 1.425l-.112.516zm172.692 97.539a3.264 3.264 0 003.175-1.94l.649-1.468a3.48 3.48 0 00-3.521 2.438l-.303.97zM244.344 420.377a3.266 3.266 0 003.175-1.94l.648-1.468a3.479 3.479 0 00-3.52 2.438l-.303.97zm-94.169 159.364a3.268 3.268 0 003.175-1.941l.648-1.468a3.48 3.48 0 00-3.521 2.438l-.302.971zM84.98 670.288a3.266 3.266 0 003.176-1.941l.648-1.467a3.478 3.478 0 00-3.52 2.437l-.303.971zm-43.462 79.681a3.265 3.265 0 003.175-1.94l.648-1.468a3.48 3.48 0 00-3.52 2.438l-.303.97zM349.529 230.37a3.266 3.266 0 003.718.144l1.353-.862a3.478 3.478 0 00-4.281.077l-.79.641zM553.407 88.156c.14.693.695 1.226 1.393 1.338l.822.133a1.806 1.806 0 00-1.688-1.447l-.527-.024zm105.619-55.485a1.697 1.697 0 001.788.732l.814-.18a1.807 1.807 0 00-2.103-.724l-.499.172zm256.508 94.579a3.264 3.264 0 00-.454-3.693l-1.068-1.198a3.48 3.48 0 00.764 4.214l.758.677zM502.498 249.911c1.361 0 2.58-.845 3.058-2.12l.564-1.502a3.479 3.479 0 00-3.376 2.635l-.246.987z" fill="#080808"/><path d="M502.498 249.911c1.361 0 2.58-.845 3.058-2.12l.564-1.502a3.479 3.479 0 00-3.376 2.635l-.246.987zM853.235 82.667a3.265 3.265 0 00-.017-3.721l-.92-1.315a3.48 3.48 0 00.263 4.274l.674.762zM244.758 379.662a3.268 3.268 0 00-.017-3.721l-.92-1.315a3.478 3.478 0 00.263 4.274l.674.762zm-94.17 159.363a3.267 3.267 0 00-.016-3.721l-.92-1.315a3.48 3.48 0 00.263 4.275l.673.761zm-65.194 90.547a3.266 3.266 0 00-.017-3.721l-.92-1.314a3.48 3.48 0 00.264 4.274l.673.761zm-43.462 79.682a3.266 3.266 0 00-.017-3.721l-.92-1.315a3.479 3.479 0 00.263 4.274l.674.762zm330.506-512.546a3.267 3.267 0 002.048-3.106l-.037-1.605a3.479 3.479 0 00-2.15 3.704l.139 1.007zm201.47-113.711c.666.239 1.409.04 1.867-.5l.539-.634a1.807 1.807 0 00-2.112.695l-.294.439zm102.279-62.672a1.696 1.696 0 001.552-1.151l.267-.79a1.806 1.806 0 00-1.707 1.425l-.112.516zm170.025 91.794a3.266 3.266 0 003.175-1.941l.649-1.467a3.478 3.478 0 00-3.521 2.437l-.303.971zM237.734 409.114a3.265 3.265 0 003.175-1.941l.649-1.467a3.479 3.479 0 00-3.521 2.437l-.303.971zm-94.169 159.363a3.265 3.265 0 003.175-1.941l.649-1.467a3.478 3.478 0 00-3.521 2.437l-.303.971zm-65.194 90.547a3.267 3.267 0 003.175-1.94l.649-1.468a3.478 3.478 0 00-3.521 2.437l-.303.971zm-43.462 79.682a3.266 3.266 0 003.175-1.941l.648-1.467a3.478 3.478 0 00-3.52 2.437l-.303.971zm315.36-521.375a3.268 3.268 0 003.719.145l1.353-.863a3.48 3.48 0 00-4.281.078l-.791.64zM558.192 83.352c.14.693.695 1.226 1.393 1.338l.822.133a1.806 1.806 0 00-1.688-1.447l-.527-.024zm103.514-56.909a1.696 1.696 0 001.788.731l.813-.18a1.806 1.806 0 00-2.102-.723l-.499.172zm240.84 102.166a3.267 3.267 0 00-.454-3.693l-1.068-1.198a3.479 3.479 0 00.763 4.214l.759.677zm-226.198 34.376c4.195 0 8.064-2.262 10.121-5.919l.745-1.325h-.413a11.165 11.165 0 00-10.453 7.244zm97.791-18.109c4.195 0 8.064-2.263 10.121-5.919l.745-1.325h-.413a11.163 11.163 0 00-10.453 7.244zm147.734-21.929a9.2 9.2 0 004.037 5.929l11.215 7.229-7.021-11.425a181.09 181.09 0 00-41.165-46.604l-2.521-2.017a24.251 24.251 0 005.861 9.483l13.698 13.699a18.93 18.93 0 013.546 4.92l1.573 3.145a5.67 5.67 0 001.932 2.188l2.715 1.811a1.989 1.989 0 01.676 2.544 1.99 1.99 0 001.15 2.777l1.438.479a3.305 3.305 0 012.195 2.487l.671 3.355zM694.458 152.12a20.422 20.422 0 0017.317-9.599l.792-1.267h-1.811a17.655 17.655 0 00-16.298 10.866zm64.421-24.24a13.63 13.63 0 0014.216-5.042l-2.383-1.589a17.038 17.038 0 00-20.095.872l-7.825 6.259 7.467-1.243a16.545 16.545 0 016.741.271l1.879.472zm-115.128 38.727a6.532 6.532 0 006.117-4.239l1.127-3.005a6.957 6.957 0 00-6.75 5.271l-.494 1.973zm191.714-20.442c1.777-.592 2.31-2.848.985-4.173a2.52 2.52 0 00-1.782-.738h-1.6a6.383 6.383 0 01-6.055-4.364l-.356-1.069a7.947 7.947 0 00-7.538-5.433h-4.277c-1.766 0-3.515-.337-5.155-.993l-3.063-1.225a8.815 8.815 0 01-4.913-4.914l-1.675-4.187a2.16 2.16 0 00-4.165.802v8.706l.695 5.558a20.608 20.608 0 008.467 14.181 20.42 20.42 0 0011.843 3.804h1.632c2.952 0 5.838-.874 8.294-2.512l.937-.625a6.534 6.534 0 011.559-.762l6.167-2.056zM323.738 388.502c3.93 1.31 7.988-1.615 7.988-5.757v-1.343a7.037 7.037 0 00-2.061-4.975l-.534-.534a6.086 6.086 0 00-10.078 6.228l.848 2.543a6.067 6.067 0 003.837 3.838zm145.761-97.905a7.54 7.54 0 0013.696.455l7.007-14.013a10.309 10.309 0 001.052-3.751l.307-3.69c.563-6.759-6.721-11.35-12.576-7.926a8.375 8.375 0 00-3.516 4.042l-6.67 16.206a9.21 9.21 0 00.024 7.066l.676 1.611zm-32.869.6a7.303 7.303 0 014-9.658 7.304 7.304 0 003.365-2.73l.462-.694a9.985 9.985 0 015.153-3.935l5.749-1.917a20.126 20.126 0 0011.114-9.111l1.061-1.857a13.898 13.898 0 00-6.906-19.802l-1.593-.637a9.408 9.408 0 00-9.537 2.182l-62.901 61.201-35.768 37.471a18.555 18.555 0 00-3.575 5.371l-9.39 21.463c-.931 2.128.628 4.511 2.95 4.511a3.219 3.219 0 003.054-2.202l.416-1.248a5.05 5.05 0 012.531-2.918l8.115-4.057a26.95 26.95 0 007.889-5.977l48.805-53.685a7.184 7.184 0 015.315-2.351 7.183 7.183 0 006.158-3.487l2.931-4.885a2.737 2.737 0 014.966.622l3.43 11.432c.67 2.233 2.385 4 4.596 4.738l2.895.965a4.337 4.337 0 004.081-7.502l-4.765-3.812a10.817 10.817 0 01-3.184-4.184l-1.417-3.307z" fill="#080808"/><path d="M616.587 186.527a6.18 6.18 0 001.811-4.372v-.792a8.095 8.095 0 00-3.038-6.321l-3.073-2.458a5.156 5.156 0 00-6.081-.264l-.457.305a4.128 4.128 0 00-1.838 3.435v.396a3.624 3.624 0 01-2.744 3.514l-.108.027a3.535 3.535 0 01-4.392-3.43v-.794a2.915 2.915 0 00-3.622-2.828 2.915 2.915 0 01-3.622-2.828v-2.368a4.764 4.764 0 014.764-4.764h4.601c.961 0 1.882-.381 2.561-1.061a3.624 3.624 0 015.123 0c.679.68 1.6 1.061 2.561 1.061h4.993c.48 0 .941-.191 1.281-.53l1.28-1.281c.668-.668 1.811-.195 1.811.75 0 .586.475 1.061 1.061 1.061h2.478a3.54 3.54 0 002.945-1.576l1.156-1.734a7.426 7.426 0 013.835-2.929l1.645-.549a4.874 4.874 0 002.268-1.581l1.818-2.273c1.824-2.279.201-5.656-2.718-5.656h-7.104a11.145 11.145 0 00-8.917 4.458l-.603.805a7.922 7.922 0 01-3.834 2.763l-3.059 1.02a5.08 5.08 0 01-4.333-9.104l13.544-8.619a18.139 18.139 0 017.486-2.695l7.433-.929a5.227 5.227 0 014.828 2.049 5.223 5.223 0 007.872.56l.575-.575c.395-.395.706-.867.914-1.386l.473-1.182c1.119-2.798-1.547-5.625-4.406-4.672a3.54 3.54 0 01-4.553-2.5l-.124-.496a4.013 4.013 0 00-3.893-3.04h-.416a4.546 4.546 0 00-3.215 1.332l-1.924 1.924a11.12 11.12 0 01-5.164 2.924l-1.203.301a15.598 15.598 0 00-5.573 2.652l-1.858 1.394a27.115 27.115 0 01-6.194 3.481l-5.727 2.291-10.972 6.269a14.212 14.212 0 01-3.61 1.451l-2.092.523a8.654 8.654 0 00-5.103 3.597 8.663 8.663 0 01-4.826 3.522l-5.985 1.71a25.557 25.557 0 00-6.808 3.08l-19.565 12.577a3.853 3.853 0 01-4.807-.516 3.849 3.849 0 00-3.412-1.066l-10.907 1.983a25.007 25.007 0 00-12.321 6.075l-48.038 43.534c-1.972 1.788-1.154 5.053 1.429 5.698a3.333 3.333 0 011.909 1.305l3.292 4.644a4.776 4.776 0 003.896 2.014 4.775 4.775 0 014.775 4.775v16.279a3.88 3.88 0 007.72.548l.693-4.854a9.534 9.534 0 014.533-6.826l.868-.521a11.661 11.661 0 005.383-7.468l1.778-8.002a5.646 5.646 0 014.141-4.252l.556-.139a4.832 4.832 0 015.192 2.008 4.834 4.834 0 004.815 2.086l13.717-2.287a26.342 26.342 0 009.221-3.395l2.581-1.548a13.013 13.013 0 003.715-3.351l.519-.693a11.282 11.282 0 019.024-4.511c2.227 0 4.404-.66 6.256-1.895l.744-.495a14.185 14.185 0 013.984-1.842l5.81-1.66a52.972 52.972 0 009.131-3.553l2.843-1.421 10.367-5.924a4.585 4.585 0 002.31-3.98 4.584 4.584 0 014.584-4.584h10.964a6.18 6.18 0 004.372-1.811zM158.418 541.473c2 0 3.622 1.621 3.622 3.622v3.034a4.21 4.21 0 008.203 1.331l4.949-14.847a10.194 10.194 0 015.112-5.894 10.192 10.192 0 004.907-5.333l1.205-3.012a13.68 13.68 0 00.977-5.076V503.87a2.238 2.238 0 012.239-2.238 2.24 2.24 0 002.002-1.237l1.367-2.735a7.183 7.183 0 015.245-3.873l4.329-.722a12.168 12.168 0 005.302-2.269l2.817-2.113a5.128 5.128 0 002.052-4.104v-4.465c0-1.762 1.855-2.908 3.431-2.12a2.4 2.4 0 01.362.224l3.513 2.635a13.35 13.35 0 008.01 2.669h3.171a6.752 6.752 0 005.272-2.533l3.224-4.03a2.58 2.58 0 00-.861-3.918l-.067-.033a2.356 2.356 0 01-1.052-1.053 2.354 2.354 0 00-3.769-.611l-2.459 2.458a4.858 4.858 0 01-5.609.91l-.086-.043a5.017 5.017 0 01-.763-.471l-4.679-3.51a3.3 3.3 0 01-.972-4.118l1.058-2.116a1.84 1.84 0 00-1.646-2.663h-.459c-1.683 0-2.344-2.183-.943-3.117a1.7 1.7 0 00.757-1.415v-3.934a6.794 6.794 0 00-13.494-1.116l-.081.487a6.55 6.55 0 01-11.912 2.556l-.58-.871a8.507 8.507 0 00-11.797-2.359l-3.787 2.525-23.987 18.847a9.994 9.994 0 01-3.016 1.623c-6.878 2.293-13.834-3.267-13.113-10.482l.134-1.335c.093-.935.308-1.855.638-2.735l3.959-10.559c.646-1.721.977-3.544.977-5.382v-9.791a5.54 5.54 0 015.539-5.539 5.539 5.539 0 005.012-3.181l9.621-20.445a41.158 41.158 0 019.155-12.56l16.956-15.825a29.697 29.697 0 0110.109-6.196l9.927-3.61a8.98 8.98 0 005.567-5.973l.28-.98a7.919 7.919 0 00-5.11-9.687l-2.086-.695a3.44 3.44 0 00-2.988.405c-1.953 1.302-4.631.292-5.2-1.985a3.395 3.395 0 00-3.293-2.571h-3.583a7.982 7.982 0 00-6.931 4.022l-3.73 6.528a2.59 2.59 0 01-4.837-1.285v-1.259c0-4.401-5.565-6.317-8.274-2.849l-32.202 41.218a22.64 22.64 0 00-4.798 13.936v4.49a35.677 35.677 0 01-8.442 23.046l-9.615 11.364a40.081 40.081 0 00-3.392 4.647l-32.29 51.664c-1.098 1.757-3.665 1.734-4.73-.043-1.22-2.032-4.26-1.698-5.01.55l-5.7 17.101c-.646 1.935 1.04 3.845 3.04 3.445 2.017-.404 3.708 1.54 3.028 3.482l-9.509 27.168a13.158 13.158 0 00.203 9.234l1.22 3.05a4.19 4.19 0 01-5.217 5.533l-.554-.184a2.774 2.774 0 01-1.43-1.093c-1.271-1.906-4.175-1.536-4.927.627l-9.624 27.669c-1.205 3.464 2.174 6.763 5.608 5.475l2.008-.753c1.858-.697 3.84.677 3.84 2.661 0 .844-.374 1.644-1.022 2.184l-12.434 10.362a37.396 37.396 0 00-11.614 17.136L1.372 706.526a4.665 4.665 0 00.068 3.084l1.336 3.564c1.137 3.032 5.475 2.886 6.405-.216.893-2.976 4.99-3.273 6.304-.458l5.357 11.48a8.207 8.207 0 0011.11 3.87l6.846-3.423a15.657 15.657 0 006.026-5.32l4.937-7.405 6.236-7.795a3.73 3.73 0 00.78-2.858l-.382-2.67c-.384-2.694 2.881-4.326 4.806-2.402a2.832 2.832 0 002.897.684l2.487-.829a3.953 3.953 0 002.038-1.557c1.445-2.168.433-5.117-2.038-5.941l-2.1-.7a5.642 5.642 0 01-3.858-5.352v-5.592a4.83 4.83 0 014.83-4.829h.276c1.346 0 2.613.633 3.42 1.71 1.907 2.542 5.823 2.189 7.244-.653l1.648-3.296a6.55 6.55 0 00.692-2.93v-8.77a4.17 4.17 0 014.17-4.171h.352a3.01 3.01 0 011.668.505c1.998 1.333 4.675-.1 4.675-2.502v-7.434a6.98 6.98 0 00-.565-2.752l-3.715-8.668c-.676-1.579-.163-3.433 1.211-4.464 2.204-1.653 5.42-.417 5.873 2.3l.405 2.43a1.854 1.854 0 103.612-.815l-1.673-5.854a7.367 7.367 0 00-7.082-5.343 7.366 7.366 0 01-6.989-5.037l-1.192-3.578a5.726 5.726 0 017.994-6.933l.601.301a6.396 6.396 0 012.463 2.174l1.258 1.887a14.976 14.976 0 0014.103 6.558 15.048 15.048 0 0011.089-6.965l2.183-3.494c1.877-3.002 2.037-6.801.454-9.968a9.916 9.916 0 015.179-13.657l2.821-1.128 11.471-6.555a4.587 4.587 0 001.54-6.525l-1.225-1.838a8.39 8.39 0 01-1.246-3.009l-.765-3.825a18.388 18.388 0 010-7.204l.74-3.701a5.904 5.904 0 011.613-3.014l1.501-1.501a3.776 3.776 0 016.425 2.293l1.33 13.301a4.714 4.714 0 003.765 4.152l.758.151a4.08 4.08 0 004.879-4v-2.268c0-1-.811-1.811-1.811-1.811-1 0-1.811-.81-1.811-1.811v-9.054a3.622 3.622 0 013.622-3.622zM813.98 92.358c2 0 3.622-1.621 3.622-3.622V81.55a8.27 8.27 0 00-7.244-8.206l-3.031-.379a4.81 4.81 0 01-4.212-4.772 4.81 4.81 0 00-4.81-4.809h-.313c-1.358 0-2.661.54-3.622 1.5l-1.207 1.208a3.124 3.124 0 00-.914 2.207 3.122 3.122 0 01-3.98 3.003l-3.762-1.075a6.074 6.074 0 01-4.368-6.51l.386-3.476a10.212 10.212 0 00-6.356-10.608l-9.807-3.923a3.778 3.778 0 01-1.739-1.41c-1.448-2.173-.307-5.124 2.226-5.757l1.62-.406a3.57 3.57 0 01.866-.106c3.179 0 4.771-3.844 2.523-6.092l-.488-.489a3.857 3.857 0 00-1.557-.947L728.866 18.11l-2.448-.612a13.365 13.365 0 00-9.218 1.011l-1.275.638a7.325 7.325 0 01-3.276.774h-4.764a2.561 2.561 0 00-1.811 4.372l.31.31a3.62 3.62 0 01-2.561 6.183h-12.987a3.622 3.622 0 000 7.244h4.169c.837 0 1.669-.135 2.463-.4l4.234-1.411 5.297-1.324a18.28 18.28 0 003.741-1.384l4.921-2.46c.343-.172.621-.45.792-.793.837-1.673 3.358-1.078 3.358.792v1.86c0 .905.551 1.718 1.39 2.054l2.086.834a5.529 5.529 0 012.891 7.606l-.657 1.315a6.88 6.88 0 01-.649 1.051l-.816 1.087c-2.24 2.988-6.607 3.298-9.248.657l-.197-.197a3.335 3.335 0 00-.506-.415l-1.873-1.248c-1.405-.937-3.287.07-3.287 1.76v1.159c0 1.456-1.76 2.185-2.789 1.155a1.634 1.634 0 00-1.886-.306l-4.747 2.374a6.834 6.834 0 01-3.057.721h-8.133a1.81 1.81 0 100 3.622h5.387c2.791 0 5.469 1.11 7.443 3.083l2.51 2.51a15.274 15.274 0 014.266 8.29l.194 1.162a12.333 12.333 0 004.766 7.841l1.73 1.298a5.85 5.85 0 009.331-4.098l.633-6.338a5.927 5.927 0 0111.044-2.35l2.6 4.55a10.137 10.137 0 01-4.268 14.098l-7.797 3.898a4.395 4.395 0 01-6.361-3.931v-.132c0-2.5-2.027-4.527-4.527-4.527h-.981c-1.13 0-2.232.347-3.158.995L694.458 94.17l-6.659 5.328a12.615 12.615 0 01-5.404 2.518l-2.538.507a7.318 7.318 0 00-5.109 3.902l-.678 1.358a4.861 4.861 0 01-4.347 2.686h-4.709a1.948 1.948 0 00-.473 3.839l1.503.376a4.028 4.028 0 01-1.768 7.858l-.469-.094a4.655 4.655 0 00-5.568 4.565v.973a5.453 5.453 0 005.995 5.426l8.372-.838a8.56 8.56 0 005.999-3.383 8.566 8.566 0 018.384-3.288l14.482 2.633c.153.028.309.042.465.042 2.142 0 3.364-2.445 2.079-4.159l-1.227-1.636a3.621 3.621 0 00-2.897-1.449h-1.811a7.243 7.243 0 01-7.244-7.243v-3.622a5.432 5.432 0 015.433-5.433h2.382a3.051 3.051 0 013.051 3.051v.708c0 .984-.67 1.841-1.624 2.08-1.93.482-2.218 3.106-.438 3.996l1.48.74c.382.191.804.291 1.232.291h12.932c1.5 0 2.716-1.217 2.716-2.717s1.216-2.716 2.717-2.716c1.5 0 2.716-1.216 2.716-2.717v-3.762a6.479 6.479 0 014.073-6.016l2.976-1.19a11.22 11.22 0 014.165-.803h25.305a3.323 3.323 0 003.322-3.322 3.322 3.322 0 013.868-3.277l3.49.582a6.318 6.318 0 014.828 3.886l1.729 4.322a4.053 4.053 0 001.951 2.12c2.694 1.348 5.865-.612 5.865-3.625v-.94c0-2.63 2.472-4.56 5.023-3.923a4.042 4.042 0 003.839-1.063l.503-.503a5.124 5.124 0 013.622-1.5h1.501c2 0 3.622-1.622 3.622-3.622a3.621 3.621 0 117.243 0v3.621c0 2 1.622 3.622 3.622 3.622zm-1.62-29.785c2.409 1.204 5.242-.547 5.242-3.24v-4.79c0-1.242.701-2.376 1.811-2.931a3.276 3.276 0 001.811-2.93v-3.185a7.244 7.244 0 00-5.487-7.028l-5.487-1.372a2.828 2.828 0 00-3.514 2.744v1.383a6.553 6.553 0 01-3.621 5.86l-4.376 2.917a4.788 4.788 0 00-1.327 6.639l1.764 2.646a2.15 2.15 0 003.939-1.192v-.999a2.766 2.766 0 012.766-2.767h.855a3.622 3.622 0 013.622 3.622v1.384c0 1.372.775 2.626 2.002 3.24zM531.008 79.682c1.359 0 2.566-.87 2.995-2.16l.256-.765a4.278 4.278 0 00-1.034-4.378l-.206-.205a4.748 4.748 0 00-6.715 0l-3.233 3.233c-.434.434-.91.824-1.421 1.165l-2.601 1.734a7.225 7.225 0 00-2.848 3.729 7.23 7.23 0 01-4.011 4.358l-7.693 3.297c-1.319.566-2.74.857-4.175.857h-5.417a3.992 3.992 0 00-3.915 3.21l-.226 1.132c-.45 2.246-3.036 3.318-4.942 2.047a3.219 3.219 0 01-1.434-2.679v-.17a3.539 3.539 0 00-3.539-3.54h-5.516a1.81 1.81 0 000 3.622h2.399a4.21 4.21 0 013.994 2.879l.665 1.996c.983 2.948-1.211 5.991-4.317 5.991a4.55 4.55 0 00-4.551 4.551v.882c0 3-2.433 5.433-5.433 5.433h-.428a5.86 5.86 0 01-2.621-.619l-4.769-2.385a5.869 5.869 0 00-2.621-.618h-4.049a1.81 1.81 0 100 3.622h3.311c1.359 0 2.662.539 3.622 1.5l3.419 3.419a7.939 7.939 0 009.611 1.243l19.878-11.595 23.542-14.488 8.239-5.493a5.898 5.898 0 002.627-4.907v-2.741a3.157 3.157 0 013.157-3.157zm137.501-17.514c.395-.395.85-.723 1.349-.972l1.012-.507a3.357 3.357 0 00-1.501-6.36h-2.075a1.81 1.81 0 00-1.811 1.81c0 1-.811 1.811-1.811 1.811h-3.552a5.362 5.362 0 01-3.35-1.175l-5.538-4.43a7.478 7.478 0 00-4.671-1.639h-2.953a2.697 2.697 0 01-1.497-4.943l1.872-1.247a2.151 2.151 0 00-2.155-3.713l-3.731 1.865a2.875 2.875 0 00-1.589 2.572 2.877 2.877 0 01-1.677 2.614l-3.163 1.45a8.294 8.294 0 01-6.232.277l-3.934-1.395a4.663 4.663 0 01-3.104-4.395 4.663 4.663 0 00-3.896-4.6l-4.068-.678a2.492 2.492 0 00-2.902 2.458 2.491 2.491 0 01-2.491 2.492h-3.988a6.478 6.478 0 00-6.015 4.073l-.335.835a5.547 5.547 0 01-6.063 3.412l-4.527-.754a1.661 1.661 0 10-.273 3.3h3.772a1.811 1.811 0 010 3.621h-3.622a1.811 1.811 0 000 3.622h5.81a6.751 6.751 0 005.272-2.534l3.53-4.412a2.183 2.183 0 00-.728-3.316 2.202 2.202 0 01-1.207-1.966c0-1.236 1.002-2.26 2.238-2.26h1.384c2 0 3.622 1.622 3.622 3.622v7.57c0 4.24-2.396 8.116-6.187 10.011l-.31.155c-.498.25-1.012.462-1.54.638l-7.194 2.398a4.21 4.21 0 001.331 8.204h4.417a6.553 6.553 0 005.861-3.622 6.551 6.551 0 015.86-3.622h2.297c.585 0 1.157.173 1.644.498 1.985 1.323 1.672 4.33-.543 5.216l-1.429.571a2.375 2.375 0 00.882 4.58h6.395c1.975 0 3.923-.46 5.689-1.343l8.073-4.036a33.87 33.87 0 006.894-4.577l2.376-2.037a25.404 25.404 0 0116.533-6.116h6.842a8.884 8.884 0 006.283-2.602l.424-.424z" fill="#080808"/><path d="M256.466 591.23a43.94 43.94 0 009.56-18.279l2.568-10.27a9.774 9.774 0 00.292-2.371v-4.016c0-1.241.701-2.375 1.811-2.93a3.276 3.276 0 001.811-2.93v-.944c0-1.539.769-2.977 2.05-3.831l1.698-1.132a2.294 2.294 0 00.779-2.934 2.294 2.294 0 01.779-2.934l2.22-1.48a2.406 2.406 0 00.948-2.761c-.566-1.696-2.718-2.204-3.981-.94l-2.071 2.071a4.214 4.214 0 00-.933 1.414l-7.848 19.62a21.555 21.555 0 01-8.922 10.477 21.52 21.52 0 00-5.02 4.163l-10.717 12.055a22.876 22.876 0 00-2.759 3.842l-4.663 8.161a5.276 5.276 0 006.939 7.336l7.389-3.694a13.528 13.528 0 004.133-3.194l3.937-4.499zm-47.667 33.747c.393.22.832.346 1.282.369l.71.037c.079.005.157.017.233.037l1.396.372a.214.214 0 00.128-.409l-1.971-.702a3.895 3.895 0 01-.606-.277l-.818-.466a1.637 1.637 0 00-.3-.132l-.605-.196a.35.35 0 00-.382.549l.316.401a.86.86 0 00.249.212l.368.205zm.556 5.742c.071.505.287.978.623 1.36l.197.224a.71.71 0 01.117.184l.413.95a.248.248 0 00.463-.175l-.57-1.783a5.147 5.147 0 01-.2-.893l-.13-.985a.882.882 0 00-.042-.174l-.176-.491a.308.308 0 00-.593.056l-.14.897a1.79 1.79 0 00-.004.522l.042.308z" fill="#FAC05C"/><path d="M209.933 624.339c.261.438.644.789 1.102 1.012l.268.129a.72.72 0 01.179.125l.749.715a.248.248 0 00.36-.34l-1.218-1.423a5.063 5.063 0 01-.531-.745l-.501-.858a.882.882 0 00-.107-.144l-.352-.384a.307.307 0 00-.525.281l.219.882c.042.169.109.332.198.482l.159.268zm.151 2.805a2.595 2.595 0 00-.724 1.309l-.063.291a.697.697 0 01-.079.204l-.518.896a.248.248 0 00.416.269l1.095-1.519a5.12 5.12 0 01.599-.691l.715-.69a.88.88 0 00.115-.137l.291-.433a.308.308 0 00-.398-.444l-.805.421c-.155.08-.297.184-.422.306l-.222.218z" fill="#FAC05C"/><path d="M209.908 627.927c.254.441.633.797 1.088 1.025l.266.133a.706.706 0 01.179.128l.739.724a.248.248 0 00.364-.336l-1.2-1.438a5.14 5.14 0 01-.521-.752l-.491-.864a.818.818 0 00-.104-.145l-.348-.389a.306.306 0 00-.528.275l.208.884c.04.17.104.334.192.485l.156.27z" fill="#FAC05C"/><path d="M208.513 630.087a5.534 5.534 0 00-.576 2.399l-.014 1.374a2.206 2.206 0 01-.049.436l-.583 2.677a.395.395 0 00.765.199l1.144-3.77c.119-.392.271-.772.456-1.137l.794-1.573c.094-.187.169-.382.224-.583l.317-1.159a.652.652 0 00-1.058-.665l-.698.607a1.502 1.502 0 00-.364.47l-.358.725z" fill="#FAC05C"/><path d="M209.678 625.318a3.765 3.765 0 00-.539 1.757l-.04.78a1.331 1.331 0 01-.051.307l-.491 1.69a.296.296 0 00.561.19l.956-2.46c.114-.293.255-.576.42-.845l.643-1.043c.067-.11.123-.226.166-.348l.264-.746a.455.455 0 00-.702-.514l-.617.466a1.27 1.27 0 00-.323.358l-.247.408z" fill="#FAC05C"/><path d="M210.084 623.522a2.595 2.595 0 00-.724 1.309l-.063.291a.686.686 0 01-.079.204l-.518.896a.248.248 0 00.416.269l1.095-1.519a5.12 5.12 0 01.599-.691l.715-.69a.796.796 0 00.115-.137l.291-.433a.308.308 0 00-.398-.444l-.805.421a1.792 1.792 0 00-.422.306l-.222.218zm0 3.622a2.595 2.595 0 00-.724 1.309l-.063.291a.697.697 0 01-.079.204l-.518.896a.248.248 0 00.416.269l1.095-1.519a5.12 5.12 0 01.599-.691l.715-.69a.88.88 0 00.115-.137l.291-.433a.308.308 0 00-.398-.444l-.805.421c-.155.08-.297.184-.422.306l-.222.218zm82.344-101.85a46.194 46.194 0 0011.902-13.197l.775-1.29 9.054-12.677-6.736 3.368a26.003 26.003 0 00-13.867 18.156l-1.128 5.64zm95.256-111.587a13.762 13.762 0 004.637-2.268l.832-.624a19.21 19.21 0 006.311-8.234l.09-.226a20.078 20.078 0 014.445-6.741l.482-.482a23.41 23.41 0 003.519-4.507l2.087-3.479a13.076 13.076 0 001.863-6.727l-.135.045a69.695 69.695 0 00-19.779 10.363l-1.488 1.117a50.564 50.564 0 00-7.254 6.633l-12.172 13.524a3.209 3.209 0 003.23 5.242l13.332-3.636zm-75.336 68.125a18.11 18.11 0 0014.488-7.244h-2.767a13.105 13.105 0 00-11.721 7.244zm182.906-159.363a11.61 11.61 0 0010.12-5.919l.746-1.325h-.413a11.162 11.162 0 00-10.453 7.244zM321.403 470.966a5.8 5.8 0 005.626-4.392l1.618-6.474a6.413 6.413 0 00-6.326 5.359l-.918 5.507zm181.095-155.741a2.728 2.728 0 002.681-2.225l.941-5.019a3.078 3.078 0 00-3.054 2.695l-.568 4.549zm21.731 7.244a2.728 2.728 0 002.681-2.225l.941-5.019a3.076 3.076 0 00-3.053 2.695l-.569 4.549zM336.993 475.284a7.91 7.91 0 005.963-7.841l-.232-10.537a8.802 8.802 0 00-6.598 9.376l.867 9.002zm174.34-158.232a4.578 4.578 0 003.452-4.539l-.134-6.1a5.096 5.096 0 00-3.82 5.428l.502 5.211zm-76.381 48.879a4.893 4.893 0 003.821-1.836l5.774-7.218a46.229 46.229 0 0113.198-11.903l1.29-.774a24.023 24.023 0 00-19.328 5.241l-2.403 2.003-4.83 3.622a6.036 6.036 0 00-2.414 4.829v1.144a4.892 4.892 0 004.892 4.892z" fill="#FAC05C"/></g></svg>